G04 #@! TF.GenerationSoftware,KiCad,Pcbnew,9.0.2*
G04 #@! TF.CreationDate,2025-05-14T19:25:05+05:30*
G04 #@! TF.ProjectId,SpO2_project,53704f32-5f70-4726-9f6a-6563742e6b69,rev?*
G04 #@! TF.SameCoordinates,Original*
G04 #@! TF.FileFunction,Legend,Top*
G04 #@! TF.FilePolarity,Positive*
%FSLAX46Y46*%
G04 Gerber Fmt 4.6, Leading zero omitted, Abs format (unit mm)*
G04 Created by KiCad (PCBNEW 9.0.2) date 2025-05-14 19:25:05*
%MOMM*%
%LPD*%
G01*
G04 APERTURE LIST*
%ADD10C,0.152400*%
%ADD11C,0.100000*%
%ADD12C,0.175000*%
%ADD13C,0.150000*%
%ADD14C,0.120000*%
G04 APERTURE END LIST*
D10*
X154262603Y-100730460D02*
X154262603Y-101194917D01*
X154262603Y-100962689D02*
X153449803Y-100962689D01*
X153449803Y-100962689D02*
X153565918Y-101040098D01*
X153565918Y-101040098D02*
X153643327Y-101117508D01*
X153643327Y-101117508D02*
X153682032Y-101194917D01*
X153449803Y-100227299D02*
X153449803Y-100149889D01*
X153449803Y-100149889D02*
X153488508Y-100072480D01*
X153488508Y-100072480D02*
X153527213Y-100033775D01*
X153527213Y-100033775D02*
X153604622Y-99995070D01*
X153604622Y-99995070D02*
X153759441Y-99956365D01*
X153759441Y-99956365D02*
X153952965Y-99956365D01*
X153952965Y-99956365D02*
X154107784Y-99995070D01*
X154107784Y-99995070D02*
X154185194Y-100033775D01*
X154185194Y-100033775D02*
X154223899Y-100072480D01*
X154223899Y-100072480D02*
X154262603Y-100149889D01*
X154262603Y-100149889D02*
X154262603Y-100227299D01*
X154262603Y-100227299D02*
X154223899Y-100304708D01*
X154223899Y-100304708D02*
X154185194Y-100343413D01*
X154185194Y-100343413D02*
X154107784Y-100382118D01*
X154107784Y-100382118D02*
X153952965Y-100420822D01*
X153952965Y-100420822D02*
X153759441Y-100420822D01*
X153759441Y-100420822D02*
X153604622Y-100382118D01*
X153604622Y-100382118D02*
X153527213Y-100343413D01*
X153527213Y-100343413D02*
X153488508Y-100304708D01*
X153488508Y-100304708D02*
X153449803Y-100227299D01*
X153449803Y-99453204D02*
X153449803Y-99375794D01*
X153449803Y-99375794D02*
X153488508Y-99298385D01*
X153488508Y-99298385D02*
X153527213Y-99259680D01*
X153527213Y-99259680D02*
X153604622Y-99220975D01*
X153604622Y-99220975D02*
X153759441Y-99182270D01*
X153759441Y-99182270D02*
X153952965Y-99182270D01*
X153952965Y-99182270D02*
X154107784Y-99220975D01*
X154107784Y-99220975D02*
X154185194Y-99259680D01*
X154185194Y-99259680D02*
X154223899Y-99298385D01*
X154223899Y-99298385D02*
X154262603Y-99375794D01*
X154262603Y-99375794D02*
X154262603Y-99453204D01*
X154262603Y-99453204D02*
X154223899Y-99530613D01*
X154223899Y-99530613D02*
X154185194Y-99569318D01*
X154185194Y-99569318D02*
X154107784Y-99608023D01*
X154107784Y-99608023D02*
X153952965Y-99646727D01*
X153952965Y-99646727D02*
X153759441Y-99646727D01*
X153759441Y-99646727D02*
X153604622Y-99608023D01*
X153604622Y-99608023D02*
X153527213Y-99569318D01*
X153527213Y-99569318D02*
X153488508Y-99530613D01*
X153488508Y-99530613D02*
X153449803Y-99453204D01*
X153720737Y-98833928D02*
X154262603Y-98833928D01*
X153798146Y-98833928D02*
X153759441Y-98795223D01*
X153759441Y-98795223D02*
X153720737Y-98717813D01*
X153720737Y-98717813D02*
X153720737Y-98601699D01*
X153720737Y-98601699D02*
X153759441Y-98524290D01*
X153759441Y-98524290D02*
X153836851Y-98485585D01*
X153836851Y-98485585D02*
X154262603Y-98485585D01*
X153932603Y-88690460D02*
X153932603Y-89154917D01*
X153932603Y-88922689D02*
X153119803Y-88922689D01*
X153119803Y-88922689D02*
X153235918Y-89000098D01*
X153235918Y-89000098D02*
X153313327Y-89077508D01*
X153313327Y-89077508D02*
X153352032Y-89154917D01*
X153119803Y-88187299D02*
X153119803Y-88109889D01*
X153119803Y-88109889D02*
X153158508Y-88032480D01*
X153158508Y-88032480D02*
X153197213Y-87993775D01*
X153197213Y-87993775D02*
X153274622Y-87955070D01*
X153274622Y-87955070D02*
X153429441Y-87916365D01*
X153429441Y-87916365D02*
X153622965Y-87916365D01*
X153622965Y-87916365D02*
X153777784Y-87955070D01*
X153777784Y-87955070D02*
X153855194Y-87993775D01*
X153855194Y-87993775D02*
X153893899Y-88032480D01*
X153893899Y-88032480D02*
X153932603Y-88109889D01*
X153932603Y-88109889D02*
X153932603Y-88187299D01*
X153932603Y-88187299D02*
X153893899Y-88264708D01*
X153893899Y-88264708D02*
X153855194Y-88303413D01*
X153855194Y-88303413D02*
X153777784Y-88342118D01*
X153777784Y-88342118D02*
X153622965Y-88380822D01*
X153622965Y-88380822D02*
X153429441Y-88380822D01*
X153429441Y-88380822D02*
X153274622Y-88342118D01*
X153274622Y-88342118D02*
X153197213Y-88303413D01*
X153197213Y-88303413D02*
X153158508Y-88264708D01*
X153158508Y-88264708D02*
X153119803Y-88187299D01*
X153119803Y-87413204D02*
X153119803Y-87335794D01*
X153119803Y-87335794D02*
X153158508Y-87258385D01*
X153158508Y-87258385D02*
X153197213Y-87219680D01*
X153197213Y-87219680D02*
X153274622Y-87180975D01*
X153274622Y-87180975D02*
X153429441Y-87142270D01*
X153429441Y-87142270D02*
X153622965Y-87142270D01*
X153622965Y-87142270D02*
X153777784Y-87180975D01*
X153777784Y-87180975D02*
X153855194Y-87219680D01*
X153855194Y-87219680D02*
X153893899Y-87258385D01*
X153893899Y-87258385D02*
X153932603Y-87335794D01*
X153932603Y-87335794D02*
X153932603Y-87413204D01*
X153932603Y-87413204D02*
X153893899Y-87490613D01*
X153893899Y-87490613D02*
X153855194Y-87529318D01*
X153855194Y-87529318D02*
X153777784Y-87568023D01*
X153777784Y-87568023D02*
X153622965Y-87606727D01*
X153622965Y-87606727D02*
X153429441Y-87606727D01*
X153429441Y-87606727D02*
X153274622Y-87568023D01*
X153274622Y-87568023D02*
X153197213Y-87529318D01*
X153197213Y-87529318D02*
X153158508Y-87490613D01*
X153158508Y-87490613D02*
X153119803Y-87413204D01*
X153390737Y-86793928D02*
X153932603Y-86793928D01*
X153468146Y-86793928D02*
X153429441Y-86755223D01*
X153429441Y-86755223D02*
X153390737Y-86677813D01*
X153390737Y-86677813D02*
X153390737Y-86561699D01*
X153390737Y-86561699D02*
X153429441Y-86484290D01*
X153429441Y-86484290D02*
X153506851Y-86445585D01*
X153506851Y-86445585D02*
X153932603Y-86445585D01*
X152732603Y-76380460D02*
X152732603Y-76844917D01*
X152732603Y-76612689D02*
X151919803Y-76612689D01*
X151919803Y-76612689D02*
X152035918Y-76690098D01*
X152035918Y-76690098D02*
X152113327Y-76767508D01*
X152113327Y-76767508D02*
X152152032Y-76844917D01*
X151919803Y-75877299D02*
X151919803Y-75799889D01*
X151919803Y-75799889D02*
X151958508Y-75722480D01*
X151958508Y-75722480D02*
X151997213Y-75683775D01*
X151997213Y-75683775D02*
X152074622Y-75645070D01*
X152074622Y-75645070D02*
X152229441Y-75606365D01*
X152229441Y-75606365D02*
X152422965Y-75606365D01*
X152422965Y-75606365D02*
X152577784Y-75645070D01*
X152577784Y-75645070D02*
X152655194Y-75683775D01*
X152655194Y-75683775D02*
X152693899Y-75722480D01*
X152693899Y-75722480D02*
X152732603Y-75799889D01*
X152732603Y-75799889D02*
X152732603Y-75877299D01*
X152732603Y-75877299D02*
X152693899Y-75954708D01*
X152693899Y-75954708D02*
X152655194Y-75993413D01*
X152655194Y-75993413D02*
X152577784Y-76032118D01*
X152577784Y-76032118D02*
X152422965Y-76070822D01*
X152422965Y-76070822D02*
X152229441Y-76070822D01*
X152229441Y-76070822D02*
X152074622Y-76032118D01*
X152074622Y-76032118D02*
X151997213Y-75993413D01*
X151997213Y-75993413D02*
X151958508Y-75954708D01*
X151958508Y-75954708D02*
X151919803Y-75877299D01*
X151919803Y-75103204D02*
X151919803Y-75025794D01*
X151919803Y-75025794D02*
X151958508Y-74948385D01*
X151958508Y-74948385D02*
X151997213Y-74909680D01*
X151997213Y-74909680D02*
X152074622Y-74870975D01*
X152074622Y-74870975D02*
X152229441Y-74832270D01*
X152229441Y-74832270D02*
X152422965Y-74832270D01*
X152422965Y-74832270D02*
X152577784Y-74870975D01*
X152577784Y-74870975D02*
X152655194Y-74909680D01*
X152655194Y-74909680D02*
X152693899Y-74948385D01*
X152693899Y-74948385D02*
X152732603Y-75025794D01*
X152732603Y-75025794D02*
X152732603Y-75103204D01*
X152732603Y-75103204D02*
X152693899Y-75180613D01*
X152693899Y-75180613D02*
X152655194Y-75219318D01*
X152655194Y-75219318D02*
X152577784Y-75258023D01*
X152577784Y-75258023D02*
X152422965Y-75296727D01*
X152422965Y-75296727D02*
X152229441Y-75296727D01*
X152229441Y-75296727D02*
X152074622Y-75258023D01*
X152074622Y-75258023D02*
X151997213Y-75219318D01*
X151997213Y-75219318D02*
X151958508Y-75180613D01*
X151958508Y-75180613D02*
X151919803Y-75103204D01*
X152190737Y-74483928D02*
X152732603Y-74483928D01*
X152268146Y-74483928D02*
X152229441Y-74445223D01*
X152229441Y-74445223D02*
X152190737Y-74367813D01*
X152190737Y-74367813D02*
X152190737Y-74251699D01*
X152190737Y-74251699D02*
X152229441Y-74174290D01*
X152229441Y-74174290D02*
X152306851Y-74135585D01*
X152306851Y-74135585D02*
X152732603Y-74135585D01*
X148392603Y-101580460D02*
X148392603Y-102044917D01*
X148392603Y-101812689D02*
X147579803Y-101812689D01*
X147579803Y-101812689D02*
X147695918Y-101890098D01*
X147695918Y-101890098D02*
X147773327Y-101967508D01*
X147773327Y-101967508D02*
X147812032Y-102044917D01*
X148392603Y-101232118D02*
X147579803Y-101232118D01*
X148082965Y-101154708D02*
X148392603Y-100922480D01*
X147850737Y-100922480D02*
X148160375Y-101232118D01*
X148392603Y-89680460D02*
X148392603Y-90144917D01*
X148392603Y-89912689D02*
X147579803Y-89912689D01*
X147579803Y-89912689D02*
X147695918Y-89990098D01*
X147695918Y-89990098D02*
X147773327Y-90067508D01*
X147773327Y-90067508D02*
X147812032Y-90144917D01*
X148392603Y-89332118D02*
X147579803Y-89332118D01*
X148082965Y-89254708D02*
X148392603Y-89022480D01*
X147850737Y-89022480D02*
X148160375Y-89332118D01*
X148092603Y-77480460D02*
X148092603Y-77944917D01*
X148092603Y-77712689D02*
X147279803Y-77712689D01*
X147279803Y-77712689D02*
X147395918Y-77790098D01*
X147395918Y-77790098D02*
X147473327Y-77867508D01*
X147473327Y-77867508D02*
X147512032Y-77944917D01*
X148092603Y-77132118D02*
X147279803Y-77132118D01*
X147782965Y-77054708D02*
X148092603Y-76822480D01*
X147550737Y-76822480D02*
X147860375Y-77132118D01*
X149119539Y-65892603D02*
X148655082Y-65892603D01*
X148887310Y-65892603D02*
X148887310Y-65079803D01*
X148887310Y-65079803D02*
X148809901Y-65195918D01*
X148809901Y-65195918D02*
X148732491Y-65273327D01*
X148732491Y-65273327D02*
X148655082Y-65312032D01*
X149467881Y-65892603D02*
X149467881Y-65079803D01*
X149545291Y-65582965D02*
X149777519Y-65892603D01*
X149777519Y-65350737D02*
X149467881Y-65660375D01*
X127855082Y-86860375D02*
X128242129Y-86860375D01*
X127777672Y-87092603D02*
X128048605Y-86279803D01*
X128048605Y-86279803D02*
X128319539Y-87092603D01*
X128590472Y-87092603D02*
X128590472Y-86550737D01*
X128590472Y-86705556D02*
X128629177Y-86628146D01*
X128629177Y-86628146D02*
X128667882Y-86589441D01*
X128667882Y-86589441D02*
X128745291Y-86550737D01*
X128745291Y-86550737D02*
X128822701Y-86550737D01*
X129441977Y-87092603D02*
X129441977Y-86279803D01*
X129441977Y-87053899D02*
X129364568Y-87092603D01*
X129364568Y-87092603D02*
X129209749Y-87092603D01*
X129209749Y-87092603D02*
X129132339Y-87053899D01*
X129132339Y-87053899D02*
X129093634Y-87015194D01*
X129093634Y-87015194D02*
X129054930Y-86937784D01*
X129054930Y-86937784D02*
X129054930Y-86705556D01*
X129054930Y-86705556D02*
X129093634Y-86628146D01*
X129093634Y-86628146D02*
X129132339Y-86589441D01*
X129132339Y-86589441D02*
X129209749Y-86550737D01*
X129209749Y-86550737D02*
X129364568Y-86550737D01*
X129364568Y-86550737D02*
X129441977Y-86589441D01*
X130177367Y-86550737D02*
X130177367Y-87092603D01*
X129829024Y-86550737D02*
X129829024Y-86976489D01*
X129829024Y-86976489D02*
X129867729Y-87053899D01*
X129867729Y-87053899D02*
X129945139Y-87092603D01*
X129945139Y-87092603D02*
X130061253Y-87092603D01*
X130061253Y-87092603D02*
X130138662Y-87053899D01*
X130138662Y-87053899D02*
X130177367Y-87015194D01*
X130564414Y-87092603D02*
X130564414Y-86550737D01*
X130564414Y-86279803D02*
X130525710Y-86318508D01*
X130525710Y-86318508D02*
X130564414Y-86357213D01*
X130564414Y-86357213D02*
X130603119Y-86318508D01*
X130603119Y-86318508D02*
X130564414Y-86279803D01*
X130564414Y-86279803D02*
X130564414Y-86357213D01*
X130951462Y-86550737D02*
X130951462Y-87092603D01*
X130951462Y-86628146D02*
X130990167Y-86589441D01*
X130990167Y-86589441D02*
X131067577Y-86550737D01*
X131067577Y-86550737D02*
X131183691Y-86550737D01*
X131183691Y-86550737D02*
X131261100Y-86589441D01*
X131261100Y-86589441D02*
X131299805Y-86666851D01*
X131299805Y-86666851D02*
X131299805Y-87092603D01*
X131802967Y-87092603D02*
X131725557Y-87053899D01*
X131725557Y-87053899D02*
X131686852Y-87015194D01*
X131686852Y-87015194D02*
X131648148Y-86937784D01*
X131648148Y-86937784D02*
X131648148Y-86705556D01*
X131648148Y-86705556D02*
X131686852Y-86628146D01*
X131686852Y-86628146D02*
X131725557Y-86589441D01*
X131725557Y-86589441D02*
X131802967Y-86550737D01*
X131802967Y-86550737D02*
X131919081Y-86550737D01*
X131919081Y-86550737D02*
X131996490Y-86589441D01*
X131996490Y-86589441D02*
X132035195Y-86628146D01*
X132035195Y-86628146D02*
X132073900Y-86705556D01*
X132073900Y-86705556D02*
X132073900Y-86937784D01*
X132073900Y-86937784D02*
X132035195Y-87015194D01*
X132035195Y-87015194D02*
X131996490Y-87053899D01*
X131996490Y-87053899D02*
X131919081Y-87092603D01*
X131919081Y-87092603D02*
X131802967Y-87092603D01*
X133041518Y-87092603D02*
X133041518Y-86279803D01*
X133041518Y-86279803D02*
X133505975Y-87092603D01*
X133505975Y-87092603D02*
X133505975Y-86279803D01*
X134241366Y-87092603D02*
X134241366Y-86666851D01*
X134241366Y-86666851D02*
X134202661Y-86589441D01*
X134202661Y-86589441D02*
X134125252Y-86550737D01*
X134125252Y-86550737D02*
X133970433Y-86550737D01*
X133970433Y-86550737D02*
X133893023Y-86589441D01*
X134241366Y-87053899D02*
X134163957Y-87092603D01*
X134163957Y-87092603D02*
X133970433Y-87092603D01*
X133970433Y-87092603D02*
X133893023Y-87053899D01*
X133893023Y-87053899D02*
X133854319Y-86976489D01*
X133854319Y-86976489D02*
X133854319Y-86899079D01*
X133854319Y-86899079D02*
X133893023Y-86821670D01*
X133893023Y-86821670D02*
X133970433Y-86782965D01*
X133970433Y-86782965D02*
X134163957Y-86782965D01*
X134163957Y-86782965D02*
X134241366Y-86744260D01*
X134628413Y-86550737D02*
X134628413Y-87092603D01*
X134628413Y-86628146D02*
X134667118Y-86589441D01*
X134667118Y-86589441D02*
X134744528Y-86550737D01*
X134744528Y-86550737D02*
X134860642Y-86550737D01*
X134860642Y-86550737D02*
X134938051Y-86589441D01*
X134938051Y-86589441D02*
X134976756Y-86666851D01*
X134976756Y-86666851D02*
X134976756Y-87092603D01*
X135479918Y-87092603D02*
X135402508Y-87053899D01*
X135402508Y-87053899D02*
X135363803Y-87015194D01*
X135363803Y-87015194D02*
X135325099Y-86937784D01*
X135325099Y-86937784D02*
X135325099Y-86705556D01*
X135325099Y-86705556D02*
X135363803Y-86628146D01*
X135363803Y-86628146D02*
X135402508Y-86589441D01*
X135402508Y-86589441D02*
X135479918Y-86550737D01*
X135479918Y-86550737D02*
X135596032Y-86550737D01*
X135596032Y-86550737D02*
X135673441Y-86589441D01*
X135673441Y-86589441D02*
X135712146Y-86628146D01*
X135712146Y-86628146D02*
X135750851Y-86705556D01*
X135750851Y-86705556D02*
X135750851Y-86937784D01*
X135750851Y-86937784D02*
X135712146Y-87015194D01*
X135712146Y-87015194D02*
X135673441Y-87053899D01*
X135673441Y-87053899D02*
X135596032Y-87092603D01*
X135596032Y-87092603D02*
X135479918Y-87092603D01*
D11*
X98238095Y-101457419D02*
X98238095Y-102266942D01*
X98238095Y-102266942D02*
X98285714Y-102362180D01*
X98285714Y-102362180D02*
X98333333Y-102409800D01*
X98333333Y-102409800D02*
X98428571Y-102457419D01*
X98428571Y-102457419D02*
X98619047Y-102457419D01*
X98619047Y-102457419D02*
X98714285Y-102409800D01*
X98714285Y-102409800D02*
X98761904Y-102362180D01*
X98761904Y-102362180D02*
X98809523Y-102266942D01*
X98809523Y-102266942D02*
X98809523Y-101457419D01*
X99809523Y-102457419D02*
X99238095Y-102457419D01*
X99523809Y-102457419D02*
X99523809Y-101457419D01*
X99523809Y-101457419D02*
X99428571Y-101600276D01*
X99428571Y-101600276D02*
X99333333Y-101695514D01*
X99333333Y-101695514D02*
X99238095Y-101743133D01*
D12*
X103368519Y-100289630D02*
X104368519Y-99956297D01*
X104368519Y-99956297D02*
X103368519Y-99622964D01*
X104273280Y-98718202D02*
X104320900Y-98765821D01*
X104320900Y-98765821D02*
X104368519Y-98908678D01*
X104368519Y-98908678D02*
X104368519Y-99003916D01*
X104368519Y-99003916D02*
X104320900Y-99146773D01*
X104320900Y-99146773D02*
X104225661Y-99242011D01*
X104225661Y-99242011D02*
X104130423Y-99289630D01*
X104130423Y-99289630D02*
X103939947Y-99337249D01*
X103939947Y-99337249D02*
X103797090Y-99337249D01*
X103797090Y-99337249D02*
X103606614Y-99289630D01*
X103606614Y-99289630D02*
X103511376Y-99242011D01*
X103511376Y-99242011D02*
X103416138Y-99146773D01*
X103416138Y-99146773D02*
X103368519Y-99003916D01*
X103368519Y-99003916D02*
X103368519Y-98908678D01*
X103368519Y-98908678D02*
X103416138Y-98765821D01*
X103416138Y-98765821D02*
X103463757Y-98718202D01*
X104273280Y-97718202D02*
X104320900Y-97765821D01*
X104320900Y-97765821D02*
X104368519Y-97908678D01*
X104368519Y-97908678D02*
X104368519Y-98003916D01*
X104368519Y-98003916D02*
X104320900Y-98146773D01*
X104320900Y-98146773D02*
X104225661Y-98242011D01*
X104225661Y-98242011D02*
X104130423Y-98289630D01*
X104130423Y-98289630D02*
X103939947Y-98337249D01*
X103939947Y-98337249D02*
X103797090Y-98337249D01*
X103797090Y-98337249D02*
X103606614Y-98289630D01*
X103606614Y-98289630D02*
X103511376Y-98242011D01*
X103511376Y-98242011D02*
X103416138Y-98146773D01*
X103416138Y-98146773D02*
X103368519Y-98003916D01*
X103368519Y-98003916D02*
X103368519Y-97908678D01*
X103368519Y-97908678D02*
X103416138Y-97765821D01*
X103416138Y-97765821D02*
X103463757Y-97718202D01*
X100916138Y-99622964D02*
X100868519Y-99718202D01*
X100868519Y-99718202D02*
X100868519Y-99861059D01*
X100868519Y-99861059D02*
X100916138Y-100003916D01*
X100916138Y-100003916D02*
X101011376Y-100099154D01*
X101011376Y-100099154D02*
X101106614Y-100146773D01*
X101106614Y-100146773D02*
X101297090Y-100194392D01*
X101297090Y-100194392D02*
X101439947Y-100194392D01*
X101439947Y-100194392D02*
X101630423Y-100146773D01*
X101630423Y-100146773D02*
X101725661Y-100099154D01*
X101725661Y-100099154D02*
X101820900Y-100003916D01*
X101820900Y-100003916D02*
X101868519Y-99861059D01*
X101868519Y-99861059D02*
X101868519Y-99765821D01*
X101868519Y-99765821D02*
X101820900Y-99622964D01*
X101820900Y-99622964D02*
X101773280Y-99575345D01*
X101773280Y-99575345D02*
X101439947Y-99575345D01*
X101439947Y-99575345D02*
X101439947Y-99765821D01*
X101868519Y-99146773D02*
X100868519Y-99146773D01*
X100868519Y-99146773D02*
X101868519Y-98575345D01*
X101868519Y-98575345D02*
X100868519Y-98575345D01*
X101868519Y-98099154D02*
X100868519Y-98099154D01*
X100868519Y-98099154D02*
X100868519Y-97861059D01*
X100868519Y-97861059D02*
X100916138Y-97718202D01*
X100916138Y-97718202D02*
X101011376Y-97622964D01*
X101011376Y-97622964D02*
X101106614Y-97575345D01*
X101106614Y-97575345D02*
X101297090Y-97527726D01*
X101297090Y-97527726D02*
X101439947Y-97527726D01*
X101439947Y-97527726D02*
X101630423Y-97575345D01*
X101630423Y-97575345D02*
X101725661Y-97622964D01*
X101725661Y-97622964D02*
X101820900Y-97718202D01*
X101820900Y-97718202D02*
X101868519Y-97861059D01*
X101868519Y-97861059D02*
X101868519Y-98099154D01*
X94368519Y-100146773D02*
X93368519Y-100146773D01*
X94368519Y-99670583D02*
X93368519Y-99670583D01*
X93368519Y-99670583D02*
X94368519Y-99099155D01*
X94368519Y-99099155D02*
X93368519Y-99099155D01*
X93368519Y-98765821D02*
X93368519Y-98194393D01*
X94368519Y-98480107D02*
X93368519Y-98480107D01*
X99320900Y-100194392D02*
X99368519Y-100051535D01*
X99368519Y-100051535D02*
X99368519Y-99813440D01*
X99368519Y-99813440D02*
X99320900Y-99718202D01*
X99320900Y-99718202D02*
X99273280Y-99670583D01*
X99273280Y-99670583D02*
X99178042Y-99622964D01*
X99178042Y-99622964D02*
X99082804Y-99622964D01*
X99082804Y-99622964D02*
X98987566Y-99670583D01*
X98987566Y-99670583D02*
X98939947Y-99718202D01*
X98939947Y-99718202D02*
X98892328Y-99813440D01*
X98892328Y-99813440D02*
X98844709Y-100003916D01*
X98844709Y-100003916D02*
X98797090Y-100099154D01*
X98797090Y-100099154D02*
X98749471Y-100146773D01*
X98749471Y-100146773D02*
X98654233Y-100194392D01*
X98654233Y-100194392D02*
X98558995Y-100194392D01*
X98558995Y-100194392D02*
X98463757Y-100146773D01*
X98463757Y-100146773D02*
X98416138Y-100099154D01*
X98416138Y-100099154D02*
X98368519Y-100003916D01*
X98368519Y-100003916D02*
X98368519Y-99765821D01*
X98368519Y-99765821D02*
X98416138Y-99622964D01*
X99273280Y-98622964D02*
X99320900Y-98670583D01*
X99320900Y-98670583D02*
X99368519Y-98813440D01*
X99368519Y-98813440D02*
X99368519Y-98908678D01*
X99368519Y-98908678D02*
X99320900Y-99051535D01*
X99320900Y-99051535D02*
X99225661Y-99146773D01*
X99225661Y-99146773D02*
X99130423Y-99194392D01*
X99130423Y-99194392D02*
X98939947Y-99242011D01*
X98939947Y-99242011D02*
X98797090Y-99242011D01*
X98797090Y-99242011D02*
X98606614Y-99194392D01*
X98606614Y-99194392D02*
X98511376Y-99146773D01*
X98511376Y-99146773D02*
X98416138Y-99051535D01*
X98416138Y-99051535D02*
X98368519Y-98908678D01*
X98368519Y-98908678D02*
X98368519Y-98813440D01*
X98368519Y-98813440D02*
X98416138Y-98670583D01*
X98416138Y-98670583D02*
X98463757Y-98622964D01*
X99368519Y-97718202D02*
X99368519Y-98194392D01*
X99368519Y-98194392D02*
X98368519Y-98194392D01*
X96820900Y-100194392D02*
X96868519Y-100051535D01*
X96868519Y-100051535D02*
X96868519Y-99813440D01*
X96868519Y-99813440D02*
X96820900Y-99718202D01*
X96820900Y-99718202D02*
X96773280Y-99670583D01*
X96773280Y-99670583D02*
X96678042Y-99622964D01*
X96678042Y-99622964D02*
X96582804Y-99622964D01*
X96582804Y-99622964D02*
X96487566Y-99670583D01*
X96487566Y-99670583D02*
X96439947Y-99718202D01*
X96439947Y-99718202D02*
X96392328Y-99813440D01*
X96392328Y-99813440D02*
X96344709Y-100003916D01*
X96344709Y-100003916D02*
X96297090Y-100099154D01*
X96297090Y-100099154D02*
X96249471Y-100146773D01*
X96249471Y-100146773D02*
X96154233Y-100194392D01*
X96154233Y-100194392D02*
X96058995Y-100194392D01*
X96058995Y-100194392D02*
X95963757Y-100146773D01*
X95963757Y-100146773D02*
X95916138Y-100099154D01*
X95916138Y-100099154D02*
X95868519Y-100003916D01*
X95868519Y-100003916D02*
X95868519Y-99765821D01*
X95868519Y-99765821D02*
X95916138Y-99622964D01*
X96868519Y-99194392D02*
X95868519Y-99194392D01*
X95868519Y-99194392D02*
X95868519Y-98956297D01*
X95868519Y-98956297D02*
X95916138Y-98813440D01*
X95916138Y-98813440D02*
X96011376Y-98718202D01*
X96011376Y-98718202D02*
X96106614Y-98670583D01*
X96106614Y-98670583D02*
X96297090Y-98622964D01*
X96297090Y-98622964D02*
X96439947Y-98622964D01*
X96439947Y-98622964D02*
X96630423Y-98670583D01*
X96630423Y-98670583D02*
X96725661Y-98718202D01*
X96725661Y-98718202D02*
X96820900Y-98813440D01*
X96820900Y-98813440D02*
X96868519Y-98956297D01*
X96868519Y-98956297D02*
X96868519Y-99194392D01*
X96582804Y-98242011D02*
X96582804Y-97765821D01*
X96868519Y-98337249D02*
X95868519Y-98003916D01*
X95868519Y-98003916D02*
X96868519Y-97670583D01*
D11*
X104738095Y-73957419D02*
X104738095Y-74766942D01*
X104738095Y-74766942D02*
X104785714Y-74862180D01*
X104785714Y-74862180D02*
X104833333Y-74909800D01*
X104833333Y-74909800D02*
X104928571Y-74957419D01*
X104928571Y-74957419D02*
X105119047Y-74957419D01*
X105119047Y-74957419D02*
X105214285Y-74909800D01*
X105214285Y-74909800D02*
X105261904Y-74862180D01*
X105261904Y-74862180D02*
X105309523Y-74766942D01*
X105309523Y-74766942D02*
X105309523Y-73957419D01*
X105738095Y-74052657D02*
X105785714Y-74005038D01*
X105785714Y-74005038D02*
X105880952Y-73957419D01*
X105880952Y-73957419D02*
X106119047Y-73957419D01*
X106119047Y-73957419D02*
X106214285Y-74005038D01*
X106214285Y-74005038D02*
X106261904Y-74052657D01*
X106261904Y-74052657D02*
X106309523Y-74147895D01*
X106309523Y-74147895D02*
X106309523Y-74243133D01*
X106309523Y-74243133D02*
X106261904Y-74385990D01*
X106261904Y-74385990D02*
X105690476Y-74957419D01*
X105690476Y-74957419D02*
X106309523Y-74957419D01*
D12*
X106820900Y-67694392D02*
X106868519Y-67551535D01*
X106868519Y-67551535D02*
X106868519Y-67313440D01*
X106868519Y-67313440D02*
X106820900Y-67218202D01*
X106820900Y-67218202D02*
X106773280Y-67170583D01*
X106773280Y-67170583D02*
X106678042Y-67122964D01*
X106678042Y-67122964D02*
X106582804Y-67122964D01*
X106582804Y-67122964D02*
X106487566Y-67170583D01*
X106487566Y-67170583D02*
X106439947Y-67218202D01*
X106439947Y-67218202D02*
X106392328Y-67313440D01*
X106392328Y-67313440D02*
X106344709Y-67503916D01*
X106344709Y-67503916D02*
X106297090Y-67599154D01*
X106297090Y-67599154D02*
X106249471Y-67646773D01*
X106249471Y-67646773D02*
X106154233Y-67694392D01*
X106154233Y-67694392D02*
X106058995Y-67694392D01*
X106058995Y-67694392D02*
X105963757Y-67646773D01*
X105963757Y-67646773D02*
X105916138Y-67599154D01*
X105916138Y-67599154D02*
X105868519Y-67503916D01*
X105868519Y-67503916D02*
X105868519Y-67265821D01*
X105868519Y-67265821D02*
X105916138Y-67122964D01*
X106773280Y-66122964D02*
X106820900Y-66170583D01*
X106820900Y-66170583D02*
X106868519Y-66313440D01*
X106868519Y-66313440D02*
X106868519Y-66408678D01*
X106868519Y-66408678D02*
X106820900Y-66551535D01*
X106820900Y-66551535D02*
X106725661Y-66646773D01*
X106725661Y-66646773D02*
X106630423Y-66694392D01*
X106630423Y-66694392D02*
X106439947Y-66742011D01*
X106439947Y-66742011D02*
X106297090Y-66742011D01*
X106297090Y-66742011D02*
X106106614Y-66694392D01*
X106106614Y-66694392D02*
X106011376Y-66646773D01*
X106011376Y-66646773D02*
X105916138Y-66551535D01*
X105916138Y-66551535D02*
X105868519Y-66408678D01*
X105868519Y-66408678D02*
X105868519Y-66313440D01*
X105868519Y-66313440D02*
X105916138Y-66170583D01*
X105916138Y-66170583D02*
X105963757Y-66122964D01*
X106868519Y-65218202D02*
X106868519Y-65694392D01*
X106868519Y-65694392D02*
X105868519Y-65694392D01*
X100916138Y-67122964D02*
X100868519Y-67218202D01*
X100868519Y-67218202D02*
X100868519Y-67361059D01*
X100868519Y-67361059D02*
X100916138Y-67503916D01*
X100916138Y-67503916D02*
X101011376Y-67599154D01*
X101011376Y-67599154D02*
X101106614Y-67646773D01*
X101106614Y-67646773D02*
X101297090Y-67694392D01*
X101297090Y-67694392D02*
X101439947Y-67694392D01*
X101439947Y-67694392D02*
X101630423Y-67646773D01*
X101630423Y-67646773D02*
X101725661Y-67599154D01*
X101725661Y-67599154D02*
X101820900Y-67503916D01*
X101820900Y-67503916D02*
X101868519Y-67361059D01*
X101868519Y-67361059D02*
X101868519Y-67265821D01*
X101868519Y-67265821D02*
X101820900Y-67122964D01*
X101820900Y-67122964D02*
X101773280Y-67075345D01*
X101773280Y-67075345D02*
X101439947Y-67075345D01*
X101439947Y-67075345D02*
X101439947Y-67265821D01*
X101868519Y-66646773D02*
X100868519Y-66646773D01*
X100868519Y-66646773D02*
X101868519Y-66075345D01*
X101868519Y-66075345D02*
X100868519Y-66075345D01*
X101868519Y-65599154D02*
X100868519Y-65599154D01*
X100868519Y-65599154D02*
X100868519Y-65361059D01*
X100868519Y-65361059D02*
X100916138Y-65218202D01*
X100916138Y-65218202D02*
X101011376Y-65122964D01*
X101011376Y-65122964D02*
X101106614Y-65075345D01*
X101106614Y-65075345D02*
X101297090Y-65027726D01*
X101297090Y-65027726D02*
X101439947Y-65027726D01*
X101439947Y-65027726D02*
X101630423Y-65075345D01*
X101630423Y-65075345D02*
X101725661Y-65122964D01*
X101725661Y-65122964D02*
X101820900Y-65218202D01*
X101820900Y-65218202D02*
X101868519Y-65361059D01*
X101868519Y-65361059D02*
X101868519Y-65599154D01*
X103368519Y-67789630D02*
X104368519Y-67456297D01*
X104368519Y-67456297D02*
X103368519Y-67122964D01*
X104273280Y-66218202D02*
X104320900Y-66265821D01*
X104320900Y-66265821D02*
X104368519Y-66408678D01*
X104368519Y-66408678D02*
X104368519Y-66503916D01*
X104368519Y-66503916D02*
X104320900Y-66646773D01*
X104320900Y-66646773D02*
X104225661Y-66742011D01*
X104225661Y-66742011D02*
X104130423Y-66789630D01*
X104130423Y-66789630D02*
X103939947Y-66837249D01*
X103939947Y-66837249D02*
X103797090Y-66837249D01*
X103797090Y-66837249D02*
X103606614Y-66789630D01*
X103606614Y-66789630D02*
X103511376Y-66742011D01*
X103511376Y-66742011D02*
X103416138Y-66646773D01*
X103416138Y-66646773D02*
X103368519Y-66503916D01*
X103368519Y-66503916D02*
X103368519Y-66408678D01*
X103368519Y-66408678D02*
X103416138Y-66265821D01*
X103416138Y-66265821D02*
X103463757Y-66218202D01*
X104273280Y-65218202D02*
X104320900Y-65265821D01*
X104320900Y-65265821D02*
X104368519Y-65408678D01*
X104368519Y-65408678D02*
X104368519Y-65503916D01*
X104368519Y-65503916D02*
X104320900Y-65646773D01*
X104320900Y-65646773D02*
X104225661Y-65742011D01*
X104225661Y-65742011D02*
X104130423Y-65789630D01*
X104130423Y-65789630D02*
X103939947Y-65837249D01*
X103939947Y-65837249D02*
X103797090Y-65837249D01*
X103797090Y-65837249D02*
X103606614Y-65789630D01*
X103606614Y-65789630D02*
X103511376Y-65742011D01*
X103511376Y-65742011D02*
X103416138Y-65646773D01*
X103416138Y-65646773D02*
X103368519Y-65503916D01*
X103368519Y-65503916D02*
X103368519Y-65408678D01*
X103368519Y-65408678D02*
X103416138Y-65265821D01*
X103416138Y-65265821D02*
X103463757Y-65218202D01*
X109320900Y-67694392D02*
X109368519Y-67551535D01*
X109368519Y-67551535D02*
X109368519Y-67313440D01*
X109368519Y-67313440D02*
X109320900Y-67218202D01*
X109320900Y-67218202D02*
X109273280Y-67170583D01*
X109273280Y-67170583D02*
X109178042Y-67122964D01*
X109178042Y-67122964D02*
X109082804Y-67122964D01*
X109082804Y-67122964D02*
X108987566Y-67170583D01*
X108987566Y-67170583D02*
X108939947Y-67218202D01*
X108939947Y-67218202D02*
X108892328Y-67313440D01*
X108892328Y-67313440D02*
X108844709Y-67503916D01*
X108844709Y-67503916D02*
X108797090Y-67599154D01*
X108797090Y-67599154D02*
X108749471Y-67646773D01*
X108749471Y-67646773D02*
X108654233Y-67694392D01*
X108654233Y-67694392D02*
X108558995Y-67694392D01*
X108558995Y-67694392D02*
X108463757Y-67646773D01*
X108463757Y-67646773D02*
X108416138Y-67599154D01*
X108416138Y-67599154D02*
X108368519Y-67503916D01*
X108368519Y-67503916D02*
X108368519Y-67265821D01*
X108368519Y-67265821D02*
X108416138Y-67122964D01*
X109368519Y-66694392D02*
X108368519Y-66694392D01*
X108368519Y-66694392D02*
X108368519Y-66456297D01*
X108368519Y-66456297D02*
X108416138Y-66313440D01*
X108416138Y-66313440D02*
X108511376Y-66218202D01*
X108511376Y-66218202D02*
X108606614Y-66170583D01*
X108606614Y-66170583D02*
X108797090Y-66122964D01*
X108797090Y-66122964D02*
X108939947Y-66122964D01*
X108939947Y-66122964D02*
X109130423Y-66170583D01*
X109130423Y-66170583D02*
X109225661Y-66218202D01*
X109225661Y-66218202D02*
X109320900Y-66313440D01*
X109320900Y-66313440D02*
X109368519Y-66456297D01*
X109368519Y-66456297D02*
X109368519Y-66694392D01*
X109082804Y-65742011D02*
X109082804Y-65265821D01*
X109368519Y-65837249D02*
X108368519Y-65503916D01*
X108368519Y-65503916D02*
X109368519Y-65170583D01*
D13*
X155859580Y-76166666D02*
X155907200Y-76214285D01*
X155907200Y-76214285D02*
X155954819Y-76357142D01*
X155954819Y-76357142D02*
X155954819Y-76452380D01*
X155954819Y-76452380D02*
X155907200Y-76595237D01*
X155907200Y-76595237D02*
X155811961Y-76690475D01*
X155811961Y-76690475D02*
X155716723Y-76738094D01*
X155716723Y-76738094D02*
X155526247Y-76785713D01*
X155526247Y-76785713D02*
X155383390Y-76785713D01*
X155383390Y-76785713D02*
X155192914Y-76738094D01*
X155192914Y-76738094D02*
X155097676Y-76690475D01*
X155097676Y-76690475D02*
X155002438Y-76595237D01*
X155002438Y-76595237D02*
X154954819Y-76452380D01*
X154954819Y-76452380D02*
X154954819Y-76357142D01*
X154954819Y-76357142D02*
X155002438Y-76214285D01*
X155002438Y-76214285D02*
X155050057Y-76166666D01*
X154954819Y-75833332D02*
X154954819Y-75214285D01*
X154954819Y-75214285D02*
X155335771Y-75547618D01*
X155335771Y-75547618D02*
X155335771Y-75404761D01*
X155335771Y-75404761D02*
X155383390Y-75309523D01*
X155383390Y-75309523D02*
X155431009Y-75261904D01*
X155431009Y-75261904D02*
X155526247Y-75214285D01*
X155526247Y-75214285D02*
X155764342Y-75214285D01*
X155764342Y-75214285D02*
X155859580Y-75261904D01*
X155859580Y-75261904D02*
X155907200Y-75309523D01*
X155907200Y-75309523D02*
X155954819Y-75404761D01*
X155954819Y-75404761D02*
X155954819Y-75690475D01*
X155954819Y-75690475D02*
X155907200Y-75785713D01*
X155907200Y-75785713D02*
X155859580Y-75833332D01*
X161916667Y-72407200D02*
X162059524Y-72454819D01*
X162059524Y-72454819D02*
X162297619Y-72454819D01*
X162297619Y-72454819D02*
X162392857Y-72407200D01*
X162392857Y-72407200D02*
X162440476Y-72359580D01*
X162440476Y-72359580D02*
X162488095Y-72264342D01*
X162488095Y-72264342D02*
X162488095Y-72169104D01*
X162488095Y-72169104D02*
X162440476Y-72073866D01*
X162440476Y-72073866D02*
X162392857Y-72026247D01*
X162392857Y-72026247D02*
X162297619Y-71978628D01*
X162297619Y-71978628D02*
X162107143Y-71931009D01*
X162107143Y-71931009D02*
X162011905Y-71883390D01*
X162011905Y-71883390D02*
X161964286Y-71835771D01*
X161964286Y-71835771D02*
X161916667Y-71740533D01*
X161916667Y-71740533D02*
X161916667Y-71645295D01*
X161916667Y-71645295D02*
X161964286Y-71550057D01*
X161964286Y-71550057D02*
X162011905Y-71502438D01*
X162011905Y-71502438D02*
X162107143Y-71454819D01*
X162107143Y-71454819D02*
X162345238Y-71454819D01*
X162345238Y-71454819D02*
X162488095Y-71502438D01*
X162821429Y-71454819D02*
X163059524Y-72454819D01*
X163059524Y-72454819D02*
X163250000Y-71740533D01*
X163250000Y-71740533D02*
X163440476Y-72454819D01*
X163440476Y-72454819D02*
X163678572Y-71454819D01*
X163964286Y-71454819D02*
X164583333Y-71454819D01*
X164583333Y-71454819D02*
X164250000Y-71835771D01*
X164250000Y-71835771D02*
X164392857Y-71835771D01*
X164392857Y-71835771D02*
X164488095Y-71883390D01*
X164488095Y-71883390D02*
X164535714Y-71931009D01*
X164535714Y-71931009D02*
X164583333Y-72026247D01*
X164583333Y-72026247D02*
X164583333Y-72264342D01*
X164583333Y-72264342D02*
X164535714Y-72359580D01*
X164535714Y-72359580D02*
X164488095Y-72407200D01*
X164488095Y-72407200D02*
X164392857Y-72454819D01*
X164392857Y-72454819D02*
X164107143Y-72454819D01*
X164107143Y-72454819D02*
X164011905Y-72407200D01*
X164011905Y-72407200D02*
X163964286Y-72359580D01*
X161916667Y-83407200D02*
X162059524Y-83454819D01*
X162059524Y-83454819D02*
X162297619Y-83454819D01*
X162297619Y-83454819D02*
X162392857Y-83407200D01*
X162392857Y-83407200D02*
X162440476Y-83359580D01*
X162440476Y-83359580D02*
X162488095Y-83264342D01*
X162488095Y-83264342D02*
X162488095Y-83169104D01*
X162488095Y-83169104D02*
X162440476Y-83073866D01*
X162440476Y-83073866D02*
X162392857Y-83026247D01*
X162392857Y-83026247D02*
X162297619Y-82978628D01*
X162297619Y-82978628D02*
X162107143Y-82931009D01*
X162107143Y-82931009D02*
X162011905Y-82883390D01*
X162011905Y-82883390D02*
X161964286Y-82835771D01*
X161964286Y-82835771D02*
X161916667Y-82740533D01*
X161916667Y-82740533D02*
X161916667Y-82645295D01*
X161916667Y-82645295D02*
X161964286Y-82550057D01*
X161964286Y-82550057D02*
X162011905Y-82502438D01*
X162011905Y-82502438D02*
X162107143Y-82454819D01*
X162107143Y-82454819D02*
X162345238Y-82454819D01*
X162345238Y-82454819D02*
X162488095Y-82502438D01*
X162821429Y-82454819D02*
X163059524Y-83454819D01*
X163059524Y-83454819D02*
X163250000Y-82740533D01*
X163250000Y-82740533D02*
X163440476Y-83454819D01*
X163440476Y-83454819D02*
X163678572Y-82454819D01*
X164011905Y-82550057D02*
X164059524Y-82502438D01*
X164059524Y-82502438D02*
X164154762Y-82454819D01*
X164154762Y-82454819D02*
X164392857Y-82454819D01*
X164392857Y-82454819D02*
X164488095Y-82502438D01*
X164488095Y-82502438D02*
X164535714Y-82550057D01*
X164535714Y-82550057D02*
X164583333Y-82645295D01*
X164583333Y-82645295D02*
X164583333Y-82740533D01*
X164583333Y-82740533D02*
X164535714Y-82883390D01*
X164535714Y-82883390D02*
X163964286Y-83454819D01*
X163964286Y-83454819D02*
X164583333Y-83454819D01*
X161916667Y-95907200D02*
X162059524Y-95954819D01*
X162059524Y-95954819D02*
X162297619Y-95954819D01*
X162297619Y-95954819D02*
X162392857Y-95907200D01*
X162392857Y-95907200D02*
X162440476Y-95859580D01*
X162440476Y-95859580D02*
X162488095Y-95764342D01*
X162488095Y-95764342D02*
X162488095Y-95669104D01*
X162488095Y-95669104D02*
X162440476Y-95573866D01*
X162440476Y-95573866D02*
X162392857Y-95526247D01*
X162392857Y-95526247D02*
X162297619Y-95478628D01*
X162297619Y-95478628D02*
X162107143Y-95431009D01*
X162107143Y-95431009D02*
X162011905Y-95383390D01*
X162011905Y-95383390D02*
X161964286Y-95335771D01*
X161964286Y-95335771D02*
X161916667Y-95240533D01*
X161916667Y-95240533D02*
X161916667Y-95145295D01*
X161916667Y-95145295D02*
X161964286Y-95050057D01*
X161964286Y-95050057D02*
X162011905Y-95002438D01*
X162011905Y-95002438D02*
X162107143Y-94954819D01*
X162107143Y-94954819D02*
X162345238Y-94954819D01*
X162345238Y-94954819D02*
X162488095Y-95002438D01*
X162821429Y-94954819D02*
X163059524Y-95954819D01*
X163059524Y-95954819D02*
X163250000Y-95240533D01*
X163250000Y-95240533D02*
X163440476Y-95954819D01*
X163440476Y-95954819D02*
X163678572Y-94954819D01*
X164583333Y-95954819D02*
X164011905Y-95954819D01*
X164297619Y-95954819D02*
X164297619Y-94954819D01*
X164297619Y-94954819D02*
X164202381Y-95097676D01*
X164202381Y-95097676D02*
X164107143Y-95192914D01*
X164107143Y-95192914D02*
X164011905Y-95240533D01*
X149023333Y-63584819D02*
X148690000Y-63108628D01*
X148451905Y-63584819D02*
X148451905Y-62584819D01*
X148451905Y-62584819D02*
X148832857Y-62584819D01*
X148832857Y-62584819D02*
X148928095Y-62632438D01*
X148928095Y-62632438D02*
X148975714Y-62680057D01*
X148975714Y-62680057D02*
X149023333Y-62775295D01*
X149023333Y-62775295D02*
X149023333Y-62918152D01*
X149023333Y-62918152D02*
X148975714Y-63013390D01*
X148975714Y-63013390D02*
X148928095Y-63061009D01*
X148928095Y-63061009D02*
X148832857Y-63108628D01*
X148832857Y-63108628D02*
X148451905Y-63108628D01*
X149880476Y-62918152D02*
X149880476Y-63584819D01*
X149642381Y-62537200D02*
X149404286Y-63251485D01*
X149404286Y-63251485D02*
X150023333Y-63251485D01*
X146084819Y-77666666D02*
X145608628Y-77999999D01*
X146084819Y-78238094D02*
X145084819Y-78238094D01*
X145084819Y-78238094D02*
X145084819Y-77857142D01*
X145084819Y-77857142D02*
X145132438Y-77761904D01*
X145132438Y-77761904D02*
X145180057Y-77714285D01*
X145180057Y-77714285D02*
X145275295Y-77666666D01*
X145275295Y-77666666D02*
X145418152Y-77666666D01*
X145418152Y-77666666D02*
X145513390Y-77714285D01*
X145513390Y-77714285D02*
X145561009Y-77761904D01*
X145561009Y-77761904D02*
X145608628Y-77857142D01*
X145608628Y-77857142D02*
X145608628Y-78238094D01*
X145084819Y-77333332D02*
X145084819Y-76714285D01*
X145084819Y-76714285D02*
X145465771Y-77047618D01*
X145465771Y-77047618D02*
X145465771Y-76904761D01*
X145465771Y-76904761D02*
X145513390Y-76809523D01*
X145513390Y-76809523D02*
X145561009Y-76761904D01*
X145561009Y-76761904D02*
X145656247Y-76714285D01*
X145656247Y-76714285D02*
X145894342Y-76714285D01*
X145894342Y-76714285D02*
X145989580Y-76761904D01*
X145989580Y-76761904D02*
X146037200Y-76809523D01*
X146037200Y-76809523D02*
X146084819Y-76904761D01*
X146084819Y-76904761D02*
X146084819Y-77190475D01*
X146084819Y-77190475D02*
X146037200Y-77285713D01*
X146037200Y-77285713D02*
X145989580Y-77333332D01*
X146084819Y-89666666D02*
X145608628Y-89999999D01*
X146084819Y-90238094D02*
X145084819Y-90238094D01*
X145084819Y-90238094D02*
X145084819Y-89857142D01*
X145084819Y-89857142D02*
X145132438Y-89761904D01*
X145132438Y-89761904D02*
X145180057Y-89714285D01*
X145180057Y-89714285D02*
X145275295Y-89666666D01*
X145275295Y-89666666D02*
X145418152Y-89666666D01*
X145418152Y-89666666D02*
X145513390Y-89714285D01*
X145513390Y-89714285D02*
X145561009Y-89761904D01*
X145561009Y-89761904D02*
X145608628Y-89857142D01*
X145608628Y-89857142D02*
X145608628Y-90238094D01*
X145180057Y-89285713D02*
X145132438Y-89238094D01*
X145132438Y-89238094D02*
X145084819Y-89142856D01*
X145084819Y-89142856D02*
X145084819Y-88904761D01*
X145084819Y-88904761D02*
X145132438Y-88809523D01*
X145132438Y-88809523D02*
X145180057Y-88761904D01*
X145180057Y-88761904D02*
X145275295Y-88714285D01*
X145275295Y-88714285D02*
X145370533Y-88714285D01*
X145370533Y-88714285D02*
X145513390Y-88761904D01*
X145513390Y-88761904D02*
X146084819Y-89333332D01*
X146084819Y-89333332D02*
X146084819Y-88714285D01*
X146084819Y-101856666D02*
X145608628Y-102189999D01*
X146084819Y-102428094D02*
X145084819Y-102428094D01*
X145084819Y-102428094D02*
X145084819Y-102047142D01*
X145084819Y-102047142D02*
X145132438Y-101951904D01*
X145132438Y-101951904D02*
X145180057Y-101904285D01*
X145180057Y-101904285D02*
X145275295Y-101856666D01*
X145275295Y-101856666D02*
X145418152Y-101856666D01*
X145418152Y-101856666D02*
X145513390Y-101904285D01*
X145513390Y-101904285D02*
X145561009Y-101951904D01*
X145561009Y-101951904D02*
X145608628Y-102047142D01*
X145608628Y-102047142D02*
X145608628Y-102428094D01*
X146084819Y-100904285D02*
X146084819Y-101475713D01*
X146084819Y-101189999D02*
X145084819Y-101189999D01*
X145084819Y-101189999D02*
X145227676Y-101285237D01*
X145227676Y-101285237D02*
X145322914Y-101380475D01*
X145322914Y-101380475D02*
X145370533Y-101475713D01*
X160791905Y-71014819D02*
X160791905Y-70014819D01*
X160791905Y-70014819D02*
X161030000Y-70014819D01*
X161030000Y-70014819D02*
X161172857Y-70062438D01*
X161172857Y-70062438D02*
X161268095Y-70157676D01*
X161268095Y-70157676D02*
X161315714Y-70252914D01*
X161315714Y-70252914D02*
X161363333Y-70443390D01*
X161363333Y-70443390D02*
X161363333Y-70586247D01*
X161363333Y-70586247D02*
X161315714Y-70776723D01*
X161315714Y-70776723D02*
X161268095Y-70871961D01*
X161268095Y-70871961D02*
X161172857Y-70967200D01*
X161172857Y-70967200D02*
X161030000Y-71014819D01*
X161030000Y-71014819D02*
X160791905Y-71014819D01*
X162315714Y-71014819D02*
X161744286Y-71014819D01*
X162030000Y-71014819D02*
X162030000Y-70014819D01*
X162030000Y-70014819D02*
X161934762Y-70157676D01*
X161934762Y-70157676D02*
X161839524Y-70252914D01*
X161839524Y-70252914D02*
X161744286Y-70300533D01*
X155859580Y-88166666D02*
X155907200Y-88214285D01*
X155907200Y-88214285D02*
X155954819Y-88357142D01*
X155954819Y-88357142D02*
X155954819Y-88452380D01*
X155954819Y-88452380D02*
X155907200Y-88595237D01*
X155907200Y-88595237D02*
X155811961Y-88690475D01*
X155811961Y-88690475D02*
X155716723Y-88738094D01*
X155716723Y-88738094D02*
X155526247Y-88785713D01*
X155526247Y-88785713D02*
X155383390Y-88785713D01*
X155383390Y-88785713D02*
X155192914Y-88738094D01*
X155192914Y-88738094D02*
X155097676Y-88690475D01*
X155097676Y-88690475D02*
X155002438Y-88595237D01*
X155002438Y-88595237D02*
X154954819Y-88452380D01*
X154954819Y-88452380D02*
X154954819Y-88357142D01*
X154954819Y-88357142D02*
X155002438Y-88214285D01*
X155002438Y-88214285D02*
X155050057Y-88166666D01*
X155050057Y-87785713D02*
X155002438Y-87738094D01*
X155002438Y-87738094D02*
X154954819Y-87642856D01*
X154954819Y-87642856D02*
X154954819Y-87404761D01*
X154954819Y-87404761D02*
X155002438Y-87309523D01*
X155002438Y-87309523D02*
X155050057Y-87261904D01*
X155050057Y-87261904D02*
X155145295Y-87214285D01*
X155145295Y-87214285D02*
X155240533Y-87214285D01*
X155240533Y-87214285D02*
X155383390Y-87261904D01*
X155383390Y-87261904D02*
X155954819Y-87833332D01*
X155954819Y-87833332D02*
X155954819Y-87214285D01*
X155859580Y-100666666D02*
X155907200Y-100714285D01*
X155907200Y-100714285D02*
X155954819Y-100857142D01*
X155954819Y-100857142D02*
X155954819Y-100952380D01*
X155954819Y-100952380D02*
X155907200Y-101095237D01*
X155907200Y-101095237D02*
X155811961Y-101190475D01*
X155811961Y-101190475D02*
X155716723Y-101238094D01*
X155716723Y-101238094D02*
X155526247Y-101285713D01*
X155526247Y-101285713D02*
X155383390Y-101285713D01*
X155383390Y-101285713D02*
X155192914Y-101238094D01*
X155192914Y-101238094D02*
X155097676Y-101190475D01*
X155097676Y-101190475D02*
X155002438Y-101095237D01*
X155002438Y-101095237D02*
X154954819Y-100952380D01*
X154954819Y-100952380D02*
X154954819Y-100857142D01*
X154954819Y-100857142D02*
X155002438Y-100714285D01*
X155002438Y-100714285D02*
X155050057Y-100666666D01*
X155954819Y-99714285D02*
X155954819Y-100285713D01*
X155954819Y-99999999D02*
X154954819Y-99999999D01*
X154954819Y-99999999D02*
X155097676Y-100095237D01*
X155097676Y-100095237D02*
X155192914Y-100190475D01*
X155192914Y-100190475D02*
X155240533Y-100285713D01*
X130665714Y-108249104D02*
X131141904Y-108249104D01*
X130570476Y-108534819D02*
X130903809Y-107534819D01*
X130903809Y-107534819D02*
X131237142Y-108534819D01*
X132094285Y-108534819D02*
X131522857Y-108534819D01*
X131808571Y-108534819D02*
X131808571Y-107534819D01*
X131808571Y-107534819D02*
X131713333Y-107677676D01*
X131713333Y-107677676D02*
X131618095Y-107772914D01*
X131618095Y-107772914D02*
X131522857Y-107820533D01*
X132641904Y-67985180D02*
X132641904Y-67175657D01*
X132641904Y-67175657D02*
X132594285Y-67080419D01*
X132594285Y-67080419D02*
X132546666Y-67032800D01*
X132546666Y-67032800D02*
X132451428Y-66985180D01*
X132451428Y-66985180D02*
X132260952Y-66985180D01*
X132260952Y-66985180D02*
X132165714Y-67032800D01*
X132165714Y-67032800D02*
X132118095Y-67080419D01*
X132118095Y-67080419D02*
X132070476Y-67175657D01*
X132070476Y-67175657D02*
X132070476Y-67985180D01*
X131641904Y-67032800D02*
X131499047Y-66985180D01*
X131499047Y-66985180D02*
X131260952Y-66985180D01*
X131260952Y-66985180D02*
X131165714Y-67032800D01*
X131165714Y-67032800D02*
X131118095Y-67080419D01*
X131118095Y-67080419D02*
X131070476Y-67175657D01*
X131070476Y-67175657D02*
X131070476Y-67270895D01*
X131070476Y-67270895D02*
X131118095Y-67366133D01*
X131118095Y-67366133D02*
X131165714Y-67413752D01*
X131165714Y-67413752D02*
X131260952Y-67461371D01*
X131260952Y-67461371D02*
X131451428Y-67508990D01*
X131451428Y-67508990D02*
X131546666Y-67556609D01*
X131546666Y-67556609D02*
X131594285Y-67604228D01*
X131594285Y-67604228D02*
X131641904Y-67699466D01*
X131641904Y-67699466D02*
X131641904Y-67794704D01*
X131641904Y-67794704D02*
X131594285Y-67889942D01*
X131594285Y-67889942D02*
X131546666Y-67937561D01*
X131546666Y-67937561D02*
X131451428Y-67985180D01*
X131451428Y-67985180D02*
X131213333Y-67985180D01*
X131213333Y-67985180D02*
X131070476Y-67937561D01*
X130308571Y-67508990D02*
X130165714Y-67461371D01*
X130165714Y-67461371D02*
X130118095Y-67413752D01*
X130118095Y-67413752D02*
X130070476Y-67318514D01*
X130070476Y-67318514D02*
X130070476Y-67175657D01*
X130070476Y-67175657D02*
X130118095Y-67080419D01*
X130118095Y-67080419D02*
X130165714Y-67032800D01*
X130165714Y-67032800D02*
X130260952Y-66985180D01*
X130260952Y-66985180D02*
X130641904Y-66985180D01*
X130641904Y-66985180D02*
X130641904Y-67985180D01*
X130641904Y-67985180D02*
X130308571Y-67985180D01*
X130308571Y-67985180D02*
X130213333Y-67937561D01*
X130213333Y-67937561D02*
X130165714Y-67889942D01*
X130165714Y-67889942D02*
X130118095Y-67794704D01*
X130118095Y-67794704D02*
X130118095Y-67699466D01*
X130118095Y-67699466D02*
X130165714Y-67604228D01*
X130165714Y-67604228D02*
X130213333Y-67556609D01*
X130213333Y-67556609D02*
X130308571Y-67508990D01*
X130308571Y-67508990D02*
X130641904Y-67508990D01*
D11*
X92000000Y-93500000D02*
X106000000Y-93500000D01*
X92000000Y-107500000D02*
X92000000Y-93500000D01*
X106000000Y-93500000D02*
X106000000Y-107500000D01*
X106000000Y-107500000D02*
X92000000Y-107500000D01*
X91500000Y-61000000D02*
X119500000Y-61000000D01*
X91500000Y-89000000D02*
X91500000Y-61000000D01*
X119500000Y-61000000D02*
X119500000Y-89000000D01*
X119500000Y-89000000D02*
X91500000Y-89000000D01*
X91500000Y-61000000D02*
X119500000Y-61000000D01*
X119500000Y-89000000D01*
X91500000Y-89000000D01*
X91500000Y-61000000D01*
D14*
X151960000Y-78470000D02*
X151630000Y-78470000D01*
X154370000Y-78470000D02*
X154040000Y-78470000D01*
X151630000Y-73530000D02*
X151630000Y-78470000D01*
X151960000Y-73530000D02*
X151630000Y-73530000D01*
X154370000Y-73530000D02*
X154370000Y-78470000D01*
X154370000Y-73530000D02*
X154040000Y-73530000D01*
X159750000Y-75500000D02*
X159750000Y-77000000D01*
X161000000Y-79500000D02*
X165500000Y-79500000D01*
X165500000Y-73000000D02*
X161000000Y-73000000D01*
X166750000Y-77000000D02*
X166750000Y-75500000D01*
X159750000Y-86500000D02*
X159750000Y-88000000D01*
X161000000Y-90500000D02*
X165500000Y-90500000D01*
X165500000Y-84000000D02*
X161000000Y-84000000D01*
X166750000Y-88000000D02*
X166750000Y-86500000D01*
X159750000Y-99000000D02*
X159750000Y-100500000D01*
X161000000Y-103000000D02*
X165500000Y-103000000D01*
X165500000Y-96500000D02*
X161000000Y-96500000D01*
X166750000Y-100500000D02*
X166750000Y-99000000D01*
X145920000Y-64130000D02*
X152460000Y-64130000D01*
X145920000Y-64460000D02*
X145920000Y-64130000D01*
X145920000Y-66540000D02*
X145920000Y-66870000D01*
X145920000Y-66870000D02*
X152460000Y-66870000D01*
X152460000Y-64130000D02*
X152460000Y-64460000D01*
X152460000Y-66870000D02*
X152460000Y-66540000D01*
X146630000Y-80770000D02*
X146630000Y-74230000D01*
X146960000Y-80770000D02*
X146630000Y-80770000D01*
X149040000Y-80770000D02*
X149370000Y-80770000D01*
X149370000Y-80770000D02*
X149370000Y-74230000D01*
X146630000Y-74230000D02*
X146960000Y-74230000D01*
X149370000Y-74230000D02*
X149040000Y-74230000D01*
X146630000Y-92770000D02*
X146630000Y-86230000D01*
X146960000Y-92770000D02*
X146630000Y-92770000D01*
X149040000Y-92770000D02*
X149370000Y-92770000D01*
X149370000Y-92770000D02*
X149370000Y-86230000D01*
X146630000Y-86230000D02*
X146960000Y-86230000D01*
X149370000Y-86230000D02*
X149040000Y-86230000D01*
X146630000Y-104960000D02*
X146630000Y-98420000D01*
X146960000Y-104960000D02*
X146630000Y-104960000D01*
X149040000Y-104960000D02*
X149370000Y-104960000D01*
X149370000Y-104960000D02*
X149370000Y-98420000D01*
X146630000Y-98420000D02*
X146960000Y-98420000D01*
X149370000Y-98420000D02*
X149040000Y-98420000D01*
X164090000Y-68145000D02*
X164090000Y-65055000D01*
X164090000Y-68144830D02*
G75*
G02*
X158540000Y-66600000I-2560000J1544830D01*
G01*
X158540000Y-66600000D02*
G75*
G02*
X164090000Y-65055170I2990000J0D01*
G01*
X164030000Y-66600000D02*
G75*
G02*
X159030000Y-66600000I-2500000J0D01*
G01*
X159030000Y-66600000D02*
G75*
G02*
X164030000Y-66600000I2500000J0D01*
G01*
X154370000Y-85530000D02*
X154040000Y-85530000D01*
X154370000Y-85530000D02*
X154370000Y-90470000D01*
X151960000Y-85530000D02*
X151630000Y-85530000D01*
X151630000Y-85530000D02*
X151630000Y-90470000D01*
X154370000Y-90470000D02*
X154040000Y-90470000D01*
X151960000Y-90470000D02*
X151630000Y-90470000D01*
X154370000Y-98030000D02*
X154040000Y-98030000D01*
X154370000Y-98030000D02*
X154370000Y-102970000D01*
X151960000Y-98030000D02*
X151630000Y-98030000D01*
X151630000Y-98030000D02*
X151630000Y-102970000D01*
X154370000Y-102970000D02*
X154040000Y-102970000D01*
X151960000Y-102970000D02*
X151630000Y-102970000D01*
X140400000Y-106940000D02*
X140400000Y-104270000D01*
X140400000Y-101730000D02*
X140400000Y-63500000D01*
X140400000Y-63500000D02*
X135320000Y-63500000D01*
X137730000Y-104270000D02*
X140400000Y-104270000D01*
X137730000Y-101730000D02*
X140400000Y-101730000D01*
X137730000Y-101730000D02*
X137730000Y-104270000D01*
X137730000Y-101730000D02*
X137730000Y-66170000D01*
X137730000Y-66170000D02*
X140400000Y-66170000D01*
X135320000Y-71380000D02*
X127440000Y-71380000D01*
X135320000Y-60960000D02*
X135320000Y-71380000D01*
X127440000Y-71380000D02*
X127440000Y-60960000D01*
X127440000Y-60960000D02*
X135320000Y-60960000D01*
X125030000Y-104270000D02*
X125030000Y-66170000D01*
X125030000Y-104270000D02*
X122360000Y-104270000D01*
X125030000Y-66170000D02*
X122360000Y-66170000D01*
X122360000Y-106940000D02*
X140400000Y-106940000D01*
X122360000Y-63500000D02*
X127440000Y-63500000D01*
X122360000Y-63500000D02*
X122360000Y-106940000D01*
M02*
