G04 #@! TF.GenerationSoftware,KiCad,Pcbnew,9.0.2*
G04 #@! TF.CreationDate,2025-05-14T19:25:04+05:30*
G04 #@! TF.ProjectId,SpO2_project,53704f32-5f70-4726-9f6a-6563742e6b69,rev?*
G04 #@! TF.SameCoordinates,Original*
G04 #@! TF.FileFunction,Copper,L2,Bot*
G04 #@! TF.FilePolarity,Positive*
%FSLAX46Y46*%
G04 Gerber Fmt 4.6, Leading zero omitted, Abs format (unit mm)*
G04 Created by KiCad (PCBNEW 9.0.2) date 2025-05-14 19:25:04*
%MOMM*%
%LPD*%
G01*
G04 APERTURE LIST*
G04 Aperture macros list*
%AMRoundRect*
0 Rectangle with rounded corners*
0 $1 Rounding radius*
0 $2 $3 $4 $5 $6 $7 $8 $9 X,Y pos of 4 corners*
0 Add a 4 corners polygon primitive as box body*
4,1,4,$2,$3,$4,$5,$6,$7,$8,$9,$2,$3,0*
0 Add four circle primitives for the rounded corners*
1,1,$1+$1,$2,$3*
1,1,$1+$1,$4,$5*
1,1,$1+$1,$6,$7*
1,1,$1+$1,$8,$9*
0 Add four rect primitives between the rounded corners*
20,1,$1+$1,$2,$3,$4,$5,0*
20,1,$1+$1,$4,$5,$6,$7,0*
20,1,$1+$1,$6,$7,$8,$9,0*
20,1,$1+$1,$8,$9,$2,$3,0*%
G04 Aperture macros list end*
G04 #@! TA.AperFunction,ComponentPad*
%ADD10R,1.905000X1.905000*%
G04 #@! TD*
G04 #@! TA.AperFunction,ComponentPad*
%ADD11C,1.905000*%
G04 #@! TD*
G04 #@! TA.AperFunction,ComponentPad*
%ADD12RoundRect,0.190500X-0.762000X-0.444500X0.762000X-0.444500X0.762000X0.444500X-0.762000X0.444500X0*%
G04 #@! TD*
G04 #@! TA.AperFunction,ComponentPad*
%ADD13C,1.600000*%
G04 #@! TD*
G04 #@! TA.AperFunction,ComponentPad*
%ADD14C,2.000000*%
G04 #@! TD*
G04 #@! TA.AperFunction,ComponentPad*
%ADD15R,1.800000X1.800000*%
G04 #@! TD*
G04 #@! TA.AperFunction,ComponentPad*
%ADD16C,1.800000*%
G04 #@! TD*
G04 #@! TA.AperFunction,ComponentPad*
%ADD17R,1.600000X1.600000*%
G04 #@! TD*
G04 #@! TA.AperFunction,ComponentPad*
%ADD18O,1.600000X1.600000*%
G04 #@! TD*
G04 #@! TA.AperFunction,ViaPad*
%ADD19C,0.600000*%
G04 #@! TD*
G04 #@! TA.AperFunction,Conductor*
%ADD20C,0.200000*%
G04 #@! TD*
G04 APERTURE END LIST*
D10*
X93920000Y-95420000D03*
D11*
X96460000Y-95420000D03*
X99000000Y-95420000D03*
X101540000Y-95420000D03*
X104080000Y-95420000D03*
D12*
X101690000Y-63570000D03*
D11*
X104230000Y-63570000D03*
X106770000Y-63570000D03*
X109310000Y-63570000D03*
D13*
X153000000Y-78500000D03*
X153000000Y-73500000D03*
D14*
X160000000Y-74000000D03*
X166500000Y-74000000D03*
X160000000Y-78500000D03*
X166500000Y-78500000D03*
X160000000Y-85000000D03*
X166500000Y-85000000D03*
X160000000Y-89500000D03*
X166500000Y-89500000D03*
X160000000Y-97500000D03*
X166500000Y-97500000D03*
X160000000Y-102000000D03*
X166500000Y-102000000D03*
D13*
X145380000Y-65500000D03*
X153000000Y-65500000D03*
X148000000Y-81310000D03*
X148000000Y-73690000D03*
X148000000Y-93310000D03*
X148000000Y-85690000D03*
X148000000Y-105500000D03*
X148000000Y-97880000D03*
D15*
X162800000Y-66600000D03*
D16*
X160260000Y-66600000D03*
D13*
X153000000Y-85500000D03*
X153000000Y-90500000D03*
X153000000Y-98000000D03*
X153000000Y-103000000D03*
D17*
X139000000Y-103000000D03*
D18*
X139000000Y-100460000D03*
X139000000Y-97920000D03*
X139000000Y-95380000D03*
X139000000Y-92840000D03*
X139000000Y-90300000D03*
X139000000Y-87760000D03*
X139000000Y-85220000D03*
X139000000Y-82680000D03*
X139000000Y-80140000D03*
X139000000Y-77600000D03*
X139000000Y-75060000D03*
X139000000Y-72520000D03*
X139000000Y-69980000D03*
X139000000Y-67440000D03*
X123760000Y-67440000D03*
X123760000Y-69980000D03*
X123760000Y-72520000D03*
X123760000Y-75060000D03*
X123760000Y-77600000D03*
X123760000Y-80140000D03*
X123760000Y-82680000D03*
X123760000Y-85220000D03*
X123760000Y-87760000D03*
X123760000Y-90300000D03*
X123760000Y-92840000D03*
X123760000Y-95380000D03*
X123760000Y-97920000D03*
X123760000Y-100460000D03*
X123760000Y-103000000D03*
D19*
X106800000Y-74600000D03*
X109310000Y-70770000D03*
X96400000Y-71000000D03*
D20*
X99000000Y-74600000D02*
X106800000Y-74600000D01*
X99000000Y-95420000D02*
X99000000Y-74600000D01*
X109080000Y-71000000D02*
X109310000Y-70770000D01*
X96400000Y-71000000D02*
X109080000Y-71000000D01*
X149028000Y-94338000D02*
X149028000Y-104472000D01*
X149028000Y-104472000D02*
X148000000Y-105500000D01*
X148000000Y-93310000D02*
X149028000Y-94338000D01*
X149028000Y-82338000D02*
X149028000Y-92282000D01*
X148000000Y-81310000D02*
X149028000Y-82338000D01*
X149028000Y-92282000D02*
X148000000Y-93310000D01*
G04 #@! TA.AperFunction,Conductor*
G36*
X170442539Y-60520185D02*
G01*
X170488294Y-60572989D01*
X170499500Y-60624500D01*
X170499500Y-109375500D01*
X170479815Y-109442539D01*
X170427011Y-109488294D01*
X170375500Y-109499500D01*
X89624500Y-109499500D01*
X89557461Y-109479815D01*
X89511706Y-109427011D01*
X89500500Y-109375500D01*
X89500500Y-94419635D01*
X92467000Y-94419635D01*
X92467000Y-96420370D01*
X92467001Y-96420376D01*
X92473408Y-96479983D01*
X92523702Y-96614828D01*
X92523706Y-96614835D01*
X92609952Y-96730044D01*
X92609955Y-96730047D01*
X92725164Y-96816293D01*
X92725171Y-96816297D01*
X92860017Y-96866591D01*
X92860016Y-96866591D01*
X92866944Y-96867335D01*
X92919627Y-96873000D01*
X94920372Y-96872999D01*
X94979983Y-96866591D01*
X95114831Y-96816296D01*
X95230046Y-96730046D01*
X95316296Y-96614831D01*
X95326690Y-96586960D01*
X95368560Y-96531027D01*
X95434023Y-96506608D01*
X95502297Y-96521458D01*
X95515746Y-96529965D01*
X95698462Y-96662717D01*
X95830599Y-96730044D01*
X95902244Y-96766549D01*
X96119751Y-96837221D01*
X96119752Y-96837221D01*
X96119755Y-96837222D01*
X96345646Y-96873000D01*
X96345647Y-96873000D01*
X96574353Y-96873000D01*
X96574354Y-96873000D01*
X96800245Y-96837222D01*
X96800248Y-96837221D01*
X96800249Y-96837221D01*
X97017755Y-96766549D01*
X97017755Y-96766548D01*
X97017758Y-96766548D01*
X97221538Y-96662717D01*
X97406566Y-96528286D01*
X97568286Y-96366566D01*
X97629683Y-96282059D01*
X97685012Y-96239396D01*
X97754625Y-96233417D01*
X97816420Y-96266023D01*
X97830314Y-96282056D01*
X97891714Y-96366566D01*
X98053434Y-96528286D01*
X98238462Y-96662717D01*
X98370599Y-96730044D01*
X98442244Y-96766549D01*
X98659751Y-96837221D01*
X98659752Y-96837221D01*
X98659755Y-96837222D01*
X98885646Y-96873000D01*
X98885647Y-96873000D01*
X99114353Y-96873000D01*
X99114354Y-96873000D01*
X99340245Y-96837222D01*
X99340248Y-96837221D01*
X99340249Y-96837221D01*
X99557755Y-96766549D01*
X99557755Y-96766548D01*
X99557758Y-96766548D01*
X99761538Y-96662717D01*
X99946566Y-96528286D01*
X100108286Y-96366566D01*
X100169991Y-96281635D01*
X100225321Y-96238970D01*
X100294934Y-96232991D01*
X100334290Y-96253756D01*
X100351347Y-96255099D01*
X101140000Y-95466446D01*
X101140000Y-95472661D01*
X101167259Y-95574394D01*
X101219920Y-95665606D01*
X101294394Y-95740080D01*
X101385606Y-95792741D01*
X101487339Y-95820000D01*
X101493553Y-95820000D01*
X100704899Y-96608651D01*
X100778725Y-96662288D01*
X100778731Y-96662292D01*
X100982431Y-96766082D01*
X101199875Y-96836734D01*
X101425687Y-96872500D01*
X101654313Y-96872500D01*
X101880124Y-96836734D01*
X101880125Y-96836734D01*
X102097568Y-96766082D01*
X102301276Y-96662288D01*
X102375098Y-96608651D01*
X101586447Y-95820000D01*
X101592661Y-95820000D01*
X101694394Y-95792741D01*
X101785606Y-95740080D01*
X101860080Y-95665606D01*
X101912741Y-95574394D01*
X101940000Y-95472661D01*
X101940000Y-95466448D01*
X102728651Y-96255099D01*
X102745503Y-96253772D01*
X102764699Y-96238970D01*
X102834312Y-96232989D01*
X102896107Y-96265594D01*
X102910007Y-96281634D01*
X102910317Y-96282061D01*
X102971714Y-96366566D01*
X103133434Y-96528286D01*
X103318462Y-96662717D01*
X103450599Y-96730044D01*
X103522244Y-96766549D01*
X103739751Y-96837221D01*
X103739752Y-96837221D01*
X103739755Y-96837222D01*
X103965646Y-96873000D01*
X103965647Y-96873000D01*
X104194353Y-96873000D01*
X104194354Y-96873000D01*
X104420245Y-96837222D01*
X104420248Y-96837221D01*
X104420249Y-96837221D01*
X104637755Y-96766549D01*
X104637755Y-96766548D01*
X104637758Y-96766548D01*
X104841538Y-96662717D01*
X105026566Y-96528286D01*
X105188286Y-96366566D01*
X105322717Y-96181538D01*
X105426548Y-95977758D01*
X105426549Y-95977755D01*
X105497221Y-95760249D01*
X105497221Y-95760248D01*
X105497222Y-95760245D01*
X105533000Y-95534354D01*
X105533000Y-95305646D01*
X105497222Y-95079755D01*
X105497221Y-95079751D01*
X105497221Y-95079750D01*
X105426549Y-94862244D01*
X105426548Y-94862242D01*
X105322717Y-94658462D01*
X105188286Y-94473434D01*
X105026566Y-94311714D01*
X104841538Y-94177283D01*
X104802160Y-94157219D01*
X104637755Y-94073450D01*
X104420248Y-94002778D01*
X104208774Y-93969284D01*
X104194354Y-93967000D01*
X103965646Y-93967000D01*
X103951226Y-93969284D01*
X103739753Y-94002778D01*
X103739750Y-94002778D01*
X103522244Y-94073450D01*
X103318461Y-94177283D01*
X103252550Y-94225171D01*
X103133434Y-94311714D01*
X103133432Y-94311716D01*
X103133431Y-94311716D01*
X102971716Y-94473431D01*
X102971709Y-94473440D01*
X102910007Y-94558364D01*
X102854677Y-94601030D01*
X102785063Y-94607008D01*
X102745710Y-94586242D01*
X102728651Y-94584899D01*
X101940000Y-95373551D01*
X101940000Y-95367339D01*
X101912741Y-95265606D01*
X101860080Y-95174394D01*
X101785606Y-95099920D01*
X101694394Y-95047259D01*
X101592661Y-95020000D01*
X101586445Y-95020000D01*
X102375099Y-94231347D01*
X102301276Y-94177711D01*
X102097568Y-94073917D01*
X101880124Y-94003265D01*
X101654313Y-93967500D01*
X101425687Y-93967500D01*
X101199875Y-94003265D01*
X101199874Y-94003265D01*
X100982431Y-94073917D01*
X100778719Y-94177713D01*
X100704900Y-94231346D01*
X100704899Y-94231347D01*
X101493553Y-95020000D01*
X101487339Y-95020000D01*
X101385606Y-95047259D01*
X101294394Y-95099920D01*
X101219920Y-95174394D01*
X101167259Y-95265606D01*
X101140000Y-95367339D01*
X101140000Y-95373552D01*
X100351347Y-94584899D01*
X100334490Y-94586226D01*
X100315293Y-94601029D01*
X100245679Y-94607007D01*
X100183885Y-94574399D01*
X100169990Y-94558362D01*
X100108288Y-94473437D01*
X100108283Y-94473431D01*
X99946568Y-94311716D01*
X99946566Y-94311714D01*
X99761538Y-94177283D01*
X99752720Y-94172790D01*
X99668205Y-94129727D01*
X99617409Y-94081752D01*
X99600500Y-94019242D01*
X99600500Y-75324500D01*
X99620185Y-75257461D01*
X99672989Y-75211706D01*
X99724500Y-75200500D01*
X106220234Y-75200500D01*
X106287273Y-75220185D01*
X106289125Y-75221398D01*
X106420814Y-75309390D01*
X106420827Y-75309397D01*
X106566498Y-75369735D01*
X106566503Y-75369737D01*
X106721153Y-75400499D01*
X106721156Y-75400500D01*
X106721158Y-75400500D01*
X106878844Y-75400500D01*
X106878845Y-75400499D01*
X107033497Y-75369737D01*
X107179179Y-75309394D01*
X107310289Y-75221789D01*
X107421789Y-75110289D01*
X107509394Y-74979179D01*
X107569737Y-74833497D01*
X107600500Y-74678842D01*
X107600500Y-74521158D01*
X107600500Y-74521155D01*
X107600499Y-74521153D01*
X107572101Y-74378390D01*
X107569737Y-74366503D01*
X107557810Y-74337708D01*
X107509397Y-74220827D01*
X107509390Y-74220814D01*
X107421789Y-74089711D01*
X107421786Y-74089707D01*
X107310292Y-73978213D01*
X107310288Y-73978210D01*
X107179185Y-73890609D01*
X107179172Y-73890602D01*
X107033501Y-73830264D01*
X107033489Y-73830261D01*
X106878845Y-73799500D01*
X106878842Y-73799500D01*
X106721158Y-73799500D01*
X106721155Y-73799500D01*
X106566510Y-73830261D01*
X106566498Y-73830264D01*
X106420827Y-73890602D01*
X106420814Y-73890609D01*
X106289125Y-73978602D01*
X106222447Y-73999480D01*
X106220234Y-73999500D01*
X98920943Y-73999500D01*
X98768216Y-74040423D01*
X98768209Y-74040426D01*
X98631290Y-74119475D01*
X98631282Y-74119481D01*
X98519481Y-74231282D01*
X98519475Y-74231290D01*
X98440426Y-74368209D01*
X98440423Y-74368216D01*
X98399500Y-74520943D01*
X98399500Y-94019242D01*
X98379815Y-94086281D01*
X98331795Y-94129727D01*
X98238461Y-94177283D01*
X98172550Y-94225171D01*
X98053434Y-94311714D01*
X98053432Y-94311716D01*
X98053431Y-94311716D01*
X97891715Y-94473432D01*
X97830318Y-94557938D01*
X97774987Y-94600603D01*
X97705374Y-94606582D01*
X97643579Y-94573976D01*
X97629682Y-94557938D01*
X97568288Y-94473437D01*
X97568286Y-94473434D01*
X97406566Y-94311714D01*
X97221538Y-94177283D01*
X97182160Y-94157219D01*
X97017755Y-94073450D01*
X96800248Y-94002778D01*
X96588774Y-93969284D01*
X96574354Y-93967000D01*
X96345646Y-93967000D01*
X96331226Y-93969284D01*
X96119753Y-94002778D01*
X96119750Y-94002778D01*
X95902244Y-94073450D01*
X95698461Y-94177283D01*
X95515759Y-94310025D01*
X95449952Y-94333505D01*
X95381898Y-94317680D01*
X95333203Y-94267574D01*
X95326690Y-94253038D01*
X95316296Y-94225169D01*
X95316293Y-94225164D01*
X95230047Y-94109955D01*
X95230044Y-94109952D01*
X95114835Y-94023706D01*
X95114828Y-94023702D01*
X94979982Y-93973408D01*
X94979983Y-93973408D01*
X94920383Y-93967001D01*
X94920381Y-93967000D01*
X94920373Y-93967000D01*
X94920364Y-93967000D01*
X92919629Y-93967000D01*
X92919623Y-93967001D01*
X92860016Y-93973408D01*
X92725171Y-94023702D01*
X92725164Y-94023706D01*
X92609955Y-94109952D01*
X92609952Y-94109955D01*
X92523706Y-94225164D01*
X92523702Y-94225171D01*
X92473408Y-94360017D01*
X92467001Y-94419616D01*
X92467000Y-94419635D01*
X89500500Y-94419635D01*
X89500500Y-70921153D01*
X95599500Y-70921153D01*
X95599500Y-71078846D01*
X95630261Y-71233489D01*
X95630264Y-71233501D01*
X95690602Y-71379172D01*
X95690609Y-71379185D01*
X95778210Y-71510288D01*
X95778213Y-71510292D01*
X95889707Y-71621786D01*
X95889711Y-71621789D01*
X96020814Y-71709390D01*
X96020827Y-71709397D01*
X96166498Y-71769735D01*
X96166503Y-71769737D01*
X96321153Y-71800499D01*
X96321156Y-71800500D01*
X96321158Y-71800500D01*
X96478844Y-71800500D01*
X96478845Y-71800499D01*
X96633497Y-71769737D01*
X96779179Y-71709394D01*
X96833967Y-71672786D01*
X96910875Y-71621398D01*
X96977553Y-71600520D01*
X96979766Y-71600500D01*
X108993331Y-71600500D01*
X108993347Y-71600501D01*
X109000943Y-71600501D01*
X109159055Y-71600501D01*
X109159057Y-71600501D01*
X109255252Y-71574724D01*
X109287346Y-71570500D01*
X109388844Y-71570500D01*
X109388845Y-71570499D01*
X109543497Y-71539737D01*
X109689179Y-71479394D01*
X109820289Y-71391789D01*
X109931789Y-71280289D01*
X110019394Y-71149179D01*
X110079737Y-71003497D01*
X110110500Y-70848842D01*
X110110500Y-70691158D01*
X110110500Y-70691155D01*
X110110499Y-70691153D01*
X110096509Y-70620821D01*
X110079737Y-70536503D01*
X110056011Y-70479223D01*
X110019397Y-70390827D01*
X110019390Y-70390814D01*
X109931789Y-70259711D01*
X109931786Y-70259707D01*
X109820292Y-70148213D01*
X109820288Y-70148210D01*
X109689185Y-70060609D01*
X109689172Y-70060602D01*
X109543501Y-70000264D01*
X109543489Y-70000261D01*
X109388845Y-69969500D01*
X109388842Y-69969500D01*
X109231158Y-69969500D01*
X109231155Y-69969500D01*
X109076510Y-70000261D01*
X109076498Y-70000264D01*
X108930827Y-70060602D01*
X108930814Y-70060609D01*
X108799711Y-70148210D01*
X108799707Y-70148213D01*
X108688213Y-70259707D01*
X108688210Y-70259711D01*
X108631629Y-70344391D01*
X108578017Y-70389196D01*
X108528527Y-70399500D01*
X96979766Y-70399500D01*
X96912727Y-70379815D01*
X96910875Y-70378602D01*
X96779185Y-70290609D01*
X96779172Y-70290602D01*
X96633501Y-70230264D01*
X96633489Y-70230261D01*
X96478845Y-70199500D01*
X96478842Y-70199500D01*
X96321158Y-70199500D01*
X96321155Y-70199500D01*
X96166510Y-70230261D01*
X96166498Y-70230264D01*
X96020827Y-70290602D01*
X96020814Y-70290609D01*
X95889711Y-70378210D01*
X95889707Y-70378213D01*
X95778213Y-70489707D01*
X95778210Y-70489711D01*
X95690609Y-70620814D01*
X95690602Y-70620827D01*
X95630264Y-70766498D01*
X95630261Y-70766510D01*
X95599500Y-70921153D01*
X89500500Y-70921153D01*
X89500500Y-67337648D01*
X122459500Y-67337648D01*
X122459500Y-67542351D01*
X122491522Y-67744534D01*
X122554781Y-67939223D01*
X122647715Y-68121613D01*
X122768028Y-68287213D01*
X122912786Y-68431971D01*
X123067749Y-68544556D01*
X123078390Y-68552287D01*
X123169840Y-68598883D01*
X123171080Y-68599515D01*
X123221876Y-68647490D01*
X123238671Y-68715311D01*
X123216134Y-68781446D01*
X123171080Y-68820485D01*
X123078386Y-68867715D01*
X122912786Y-68988028D01*
X122768028Y-69132786D01*
X122647715Y-69298386D01*
X122554781Y-69480776D01*
X122491522Y-69675465D01*
X122459500Y-69877648D01*
X122459500Y-70082351D01*
X122491522Y-70284534D01*
X122554781Y-70479223D01*
X122583971Y-70536510D01*
X122626926Y-70620814D01*
X122647715Y-70661613D01*
X122768028Y-70827213D01*
X122912786Y-70971971D01*
X123059884Y-71078842D01*
X123078390Y-71092287D01*
X123169840Y-71138883D01*
X123171080Y-71139515D01*
X123221876Y-71187490D01*
X123238671Y-71255311D01*
X123216134Y-71321446D01*
X123171080Y-71360485D01*
X123078386Y-71407715D01*
X122912786Y-71528028D01*
X122768028Y-71672786D01*
X122647715Y-71838386D01*
X122554781Y-72020776D01*
X122491522Y-72215465D01*
X122459500Y-72417648D01*
X122459500Y-72622351D01*
X122491522Y-72824534D01*
X122554781Y-73019223D01*
X122611681Y-73130893D01*
X122644582Y-73195466D01*
X122647715Y-73201613D01*
X122768028Y-73367213D01*
X122912786Y-73511971D01*
X123067749Y-73624556D01*
X123078390Y-73632287D01*
X123169840Y-73678883D01*
X123171080Y-73679515D01*
X123221876Y-73727490D01*
X123238671Y-73795311D01*
X123216134Y-73861446D01*
X123171080Y-73900485D01*
X123078386Y-73947715D01*
X122912786Y-74068028D01*
X122768028Y-74212786D01*
X122647715Y-74378386D01*
X122554781Y-74560776D01*
X122491522Y-74755465D01*
X122459500Y-74957648D01*
X122459500Y-75162351D01*
X122491522Y-75364534D01*
X122554781Y-75559223D01*
X122647715Y-75741613D01*
X122768028Y-75907213D01*
X122912786Y-76051971D01*
X123067749Y-76164556D01*
X123078390Y-76172287D01*
X123169840Y-76218883D01*
X123171080Y-76219515D01*
X123221876Y-76267490D01*
X123238671Y-76335311D01*
X123216134Y-76401446D01*
X123171080Y-76440485D01*
X123078386Y-76487715D01*
X122912786Y-76608028D01*
X122768028Y-76752786D01*
X122647715Y-76918386D01*
X122554781Y-77100776D01*
X122491522Y-77295465D01*
X122459500Y-77497648D01*
X122459500Y-77702351D01*
X122491522Y-77904534D01*
X122554781Y-78099223D01*
X122647715Y-78281613D01*
X122768028Y-78447213D01*
X122912786Y-78591971D01*
X122998706Y-78654394D01*
X123078390Y-78712287D01*
X123169840Y-78758883D01*
X123171080Y-78759515D01*
X123221876Y-78807490D01*
X123238671Y-78875311D01*
X123216134Y-78941446D01*
X123171080Y-78980485D01*
X123078386Y-79027715D01*
X122912786Y-79148028D01*
X122768028Y-79292786D01*
X122647715Y-79458386D01*
X122554781Y-79640776D01*
X122491522Y-79835465D01*
X122459500Y-80037648D01*
X122459500Y-80242351D01*
X122491522Y-80444534D01*
X122554781Y-80639223D01*
X122618691Y-80764653D01*
X122642195Y-80810781D01*
X122647715Y-80821613D01*
X122768028Y-80987213D01*
X122912786Y-81131971D01*
X123016949Y-81207648D01*
X123078390Y-81252287D01*
X123169840Y-81298883D01*
X123171080Y-81299515D01*
X123221876Y-81347490D01*
X123238671Y-81415311D01*
X123216134Y-81481446D01*
X123171080Y-81520485D01*
X123078386Y-81567715D01*
X122912786Y-81688028D01*
X122768028Y-81832786D01*
X122647715Y-81998386D01*
X122554781Y-82180776D01*
X122491522Y-82375465D01*
X122459500Y-82577648D01*
X122459500Y-82782351D01*
X122491522Y-82984534D01*
X122554781Y-83179223D01*
X122647715Y-83361613D01*
X122768028Y-83527213D01*
X122912786Y-83671971D01*
X123057814Y-83777338D01*
X123078390Y-83792287D01*
X123169840Y-83838883D01*
X123171080Y-83839515D01*
X123221876Y-83887490D01*
X123238671Y-83955311D01*
X123216134Y-84021446D01*
X123171080Y-84060485D01*
X123078386Y-84107715D01*
X122912786Y-84228028D01*
X122768028Y-84372786D01*
X122647715Y-84538386D01*
X122554781Y-84720776D01*
X122491522Y-84915465D01*
X122459500Y-85117648D01*
X122459500Y-85322351D01*
X122491522Y-85524534D01*
X122554781Y-85719223D01*
X122592043Y-85792352D01*
X122631150Y-85869104D01*
X122647715Y-85901613D01*
X122768028Y-86067213D01*
X122912786Y-86211971D01*
X123067749Y-86324556D01*
X123078390Y-86332287D01*
X123155566Y-86371610D01*
X123171080Y-86379515D01*
X123221876Y-86427490D01*
X123238671Y-86495311D01*
X123216134Y-86561446D01*
X123171080Y-86600485D01*
X123078386Y-86647715D01*
X122912786Y-86768028D01*
X122768028Y-86912786D01*
X122647715Y-87078386D01*
X122554781Y-87260776D01*
X122491522Y-87455465D01*
X122459500Y-87657648D01*
X122459500Y-87862351D01*
X122491522Y-88064534D01*
X122554781Y-88259223D01*
X122647715Y-88441613D01*
X122768028Y-88607213D01*
X122912786Y-88751971D01*
X123067749Y-88864556D01*
X123078390Y-88872287D01*
X123169840Y-88918883D01*
X123171080Y-88919515D01*
X123221876Y-88967490D01*
X123238671Y-89035311D01*
X123216134Y-89101446D01*
X123171080Y-89140485D01*
X123078386Y-89187715D01*
X122912786Y-89308028D01*
X122768028Y-89452786D01*
X122647715Y-89618386D01*
X122554781Y-89800776D01*
X122491522Y-89995465D01*
X122459500Y-90197648D01*
X122459500Y-90402351D01*
X122491522Y-90604534D01*
X122554781Y-90799223D01*
X122618691Y-90924653D01*
X122638512Y-90963553D01*
X122647715Y-90981613D01*
X122768028Y-91147213D01*
X122912786Y-91291971D01*
X123067749Y-91404556D01*
X123078390Y-91412287D01*
X123169840Y-91458883D01*
X123171080Y-91459515D01*
X123221876Y-91507490D01*
X123238671Y-91575311D01*
X123216134Y-91641446D01*
X123171080Y-91680485D01*
X123078386Y-91727715D01*
X122912786Y-91848028D01*
X122768028Y-91992786D01*
X122647715Y-92158386D01*
X122554781Y-92340776D01*
X122491522Y-92535465D01*
X122459500Y-92737648D01*
X122459500Y-92942351D01*
X122491522Y-93144534D01*
X122554781Y-93339223D01*
X122647715Y-93521613D01*
X122768028Y-93687213D01*
X122912786Y-93831971D01*
X123067749Y-93944556D01*
X123078390Y-93952287D01*
X123155566Y-93991610D01*
X123171080Y-93999515D01*
X123221876Y-94047490D01*
X123238671Y-94115311D01*
X123216134Y-94181446D01*
X123171080Y-94220485D01*
X123078386Y-94267715D01*
X122912786Y-94388028D01*
X122768028Y-94532786D01*
X122647715Y-94698386D01*
X122554781Y-94880776D01*
X122491522Y-95075465D01*
X122459500Y-95277648D01*
X122459500Y-95482351D01*
X122491522Y-95684534D01*
X122554781Y-95879223D01*
X122647715Y-96061613D01*
X122768028Y-96227213D01*
X122912786Y-96371971D01*
X123052822Y-96473711D01*
X123078390Y-96492287D01*
X123169840Y-96538883D01*
X123171080Y-96539515D01*
X123221876Y-96587490D01*
X123238671Y-96655311D01*
X123216134Y-96721446D01*
X123171080Y-96760485D01*
X123078386Y-96807715D01*
X122912786Y-96928028D01*
X122768028Y-97072786D01*
X122647715Y-97238386D01*
X122554781Y-97420776D01*
X122491522Y-97615465D01*
X122459500Y-97817648D01*
X122459500Y-98022351D01*
X122491522Y-98224534D01*
X122554781Y-98419223D01*
X122595542Y-98499219D01*
X122627333Y-98561613D01*
X122647715Y-98601613D01*
X122768028Y-98767213D01*
X122912786Y-98911971D01*
X123022892Y-98991966D01*
X123078390Y-99032287D01*
X123150424Y-99068990D01*
X123171629Y-99079795D01*
X123222425Y-99127770D01*
X123239220Y-99195591D01*
X123216682Y-99261726D01*
X123171629Y-99300765D01*
X123078650Y-99348140D01*
X122913105Y-99468417D01*
X122913104Y-99468417D01*
X122768417Y-99613104D01*
X122768417Y-99613105D01*
X122648140Y-99778650D01*
X122555244Y-99960970D01*
X122492009Y-100155586D01*
X122483391Y-100210000D01*
X123326988Y-100210000D01*
X123294075Y-100267007D01*
X123260000Y-100394174D01*
X123260000Y-100525826D01*
X123294075Y-100652993D01*
X123326988Y-100710000D01*
X122483391Y-100710000D01*
X122492009Y-100764413D01*
X122555244Y-100959029D01*
X122648140Y-101141349D01*
X122768417Y-101306894D01*
X122768417Y-101306895D01*
X122913104Y-101451582D01*
X123078652Y-101571861D01*
X123171628Y-101619234D01*
X123222425Y-101667208D01*
X123239220Y-101735029D01*
X123216683Y-101801164D01*
X123171630Y-101840203D01*
X123078388Y-101887713D01*
X122912786Y-102008028D01*
X122768028Y-102152786D01*
X122647715Y-102318386D01*
X122554781Y-102500776D01*
X122491522Y-102695465D01*
X122459500Y-102897648D01*
X122459500Y-103102351D01*
X122491522Y-103304534D01*
X122554781Y-103499223D01*
X122618691Y-103624653D01*
X122647585Y-103681359D01*
X122647715Y-103681613D01*
X122768028Y-103847213D01*
X122912786Y-103991971D01*
X123033226Y-104079474D01*
X123078390Y-104112287D01*
X123167212Y-104157544D01*
X123260776Y-104205218D01*
X123260778Y-104205218D01*
X123260781Y-104205220D01*
X123365137Y-104239127D01*
X123455465Y-104268477D01*
X123556557Y-104284488D01*
X123657648Y-104300500D01*
X123657649Y-104300500D01*
X123862351Y-104300500D01*
X123862352Y-104300500D01*
X124064534Y-104268477D01*
X124259219Y-104205220D01*
X124441610Y-104112287D01*
X124537901Y-104042328D01*
X124607213Y-103991971D01*
X124607215Y-103991968D01*
X124607219Y-103991966D01*
X124751966Y-103847219D01*
X124751968Y-103847215D01*
X124751971Y-103847213D01*
X124804732Y-103774590D01*
X124872287Y-103681610D01*
X124965220Y-103499219D01*
X125028477Y-103304534D01*
X125060500Y-103102352D01*
X125060500Y-102897648D01*
X125042885Y-102786433D01*
X125028477Y-102695465D01*
X124989659Y-102575996D01*
X124965220Y-102500781D01*
X124965218Y-102500778D01*
X124965218Y-102500776D01*
X124931503Y-102434607D01*
X124872287Y-102318390D01*
X124840092Y-102274077D01*
X124751971Y-102152786D01*
X124607213Y-102008028D01*
X124441611Y-101887713D01*
X124348369Y-101840203D01*
X124297574Y-101792229D01*
X124280779Y-101724407D01*
X124303317Y-101658273D01*
X124348371Y-101619234D01*
X124441347Y-101571861D01*
X124606894Y-101451582D01*
X124606895Y-101451582D01*
X124751582Y-101306895D01*
X124751582Y-101306894D01*
X124871859Y-101141349D01*
X124964755Y-100959029D01*
X125027990Y-100764413D01*
X125036609Y-100710000D01*
X124193012Y-100710000D01*
X124225925Y-100652993D01*
X124260000Y-100525826D01*
X124260000Y-100394174D01*
X124225925Y-100267007D01*
X124193012Y-100210000D01*
X125036609Y-100210000D01*
X125027990Y-100155586D01*
X124964755Y-99960970D01*
X124871859Y-99778650D01*
X124751582Y-99613105D01*
X124751582Y-99613104D01*
X124606895Y-99468417D01*
X124441349Y-99348140D01*
X124348370Y-99300765D01*
X124297574Y-99252790D01*
X124280779Y-99184969D01*
X124303316Y-99118835D01*
X124348370Y-99079795D01*
X124348920Y-99079515D01*
X124441610Y-99032287D01*
X124536887Y-98963065D01*
X124607213Y-98911971D01*
X124607215Y-98911968D01*
X124607219Y-98911966D01*
X124751966Y-98767219D01*
X124751968Y-98767215D01*
X124751971Y-98767213D01*
X124859576Y-98619105D01*
X124872287Y-98601610D01*
X124965220Y-98419219D01*
X125028477Y-98224534D01*
X125060500Y-98022352D01*
X125060500Y-97817648D01*
X125028477Y-97615466D01*
X124965220Y-97420781D01*
X124965218Y-97420778D01*
X124965218Y-97420776D01*
X124913047Y-97318386D01*
X124872287Y-97238390D01*
X124843223Y-97198386D01*
X124751971Y-97072786D01*
X124607213Y-96928028D01*
X124441614Y-96807715D01*
X124435006Y-96804348D01*
X124348917Y-96760483D01*
X124298123Y-96712511D01*
X124281328Y-96644690D01*
X124303865Y-96578555D01*
X124348917Y-96539516D01*
X124441610Y-96492287D01*
X124540592Y-96420373D01*
X124607213Y-96371971D01*
X124607215Y-96371968D01*
X124607219Y-96371966D01*
X124751966Y-96227219D01*
X124751968Y-96227215D01*
X124751971Y-96227213D01*
X124824058Y-96127992D01*
X124872287Y-96061610D01*
X124965220Y-95879219D01*
X125028477Y-95684534D01*
X125060500Y-95482352D01*
X125060500Y-95277648D01*
X125044146Y-95174394D01*
X125028477Y-95075465D01*
X124965218Y-94880776D01*
X124931503Y-94814607D01*
X124872287Y-94698390D01*
X124843277Y-94658461D01*
X124751971Y-94532786D01*
X124607213Y-94388028D01*
X124441614Y-94267715D01*
X124424398Y-94258943D01*
X124348917Y-94220483D01*
X124298123Y-94172511D01*
X124281328Y-94104690D01*
X124303865Y-94038555D01*
X124348917Y-93999516D01*
X124441610Y-93952287D01*
X124462770Y-93936913D01*
X124607213Y-93831971D01*
X124607215Y-93831968D01*
X124607219Y-93831966D01*
X124751966Y-93687219D01*
X124751968Y-93687215D01*
X124751971Y-93687213D01*
X124804779Y-93614528D01*
X124872287Y-93521610D01*
X124965220Y-93339219D01*
X125028477Y-93144534D01*
X125060500Y-92942352D01*
X125060500Y-92737648D01*
X125046731Y-92650716D01*
X125028477Y-92535465D01*
X124965218Y-92340776D01*
X124894985Y-92202938D01*
X124872287Y-92158390D01*
X124833338Y-92104781D01*
X124751971Y-91992786D01*
X124607213Y-91848028D01*
X124441614Y-91727715D01*
X124396552Y-91704755D01*
X124348917Y-91680483D01*
X124298123Y-91632511D01*
X124281328Y-91564690D01*
X124303865Y-91498555D01*
X124348917Y-91459516D01*
X124441610Y-91412287D01*
X124462770Y-91396913D01*
X124607213Y-91291971D01*
X124607215Y-91291968D01*
X124607219Y-91291966D01*
X124751966Y-91147219D01*
X124751968Y-91147215D01*
X124751971Y-91147213D01*
X124804732Y-91074590D01*
X124872287Y-90981610D01*
X124965220Y-90799219D01*
X125028477Y-90604534D01*
X125060500Y-90402352D01*
X125060500Y-90197648D01*
X125041231Y-90075992D01*
X125028477Y-89995465D01*
X124965218Y-89800776D01*
X124931503Y-89734607D01*
X124872287Y-89618390D01*
X124864556Y-89607749D01*
X124751971Y-89452786D01*
X124607213Y-89308028D01*
X124441614Y-89187715D01*
X124364907Y-89148631D01*
X124348917Y-89140483D01*
X124298123Y-89092511D01*
X124281328Y-89024690D01*
X124303865Y-88958555D01*
X124348917Y-88919516D01*
X124441610Y-88872287D01*
X124462770Y-88856913D01*
X124607213Y-88751971D01*
X124607215Y-88751968D01*
X124607219Y-88751966D01*
X124751966Y-88607219D01*
X124751968Y-88607215D01*
X124751971Y-88607213D01*
X124813527Y-88522487D01*
X124872287Y-88441610D01*
X124965220Y-88259219D01*
X125028477Y-88064534D01*
X125060500Y-87862352D01*
X125060500Y-87657648D01*
X125028477Y-87455466D01*
X124965220Y-87260781D01*
X124965218Y-87260778D01*
X124965218Y-87260776D01*
X124931503Y-87194607D01*
X124872287Y-87078390D01*
X124864556Y-87067749D01*
X124751971Y-86912786D01*
X124607213Y-86768028D01*
X124441614Y-86647715D01*
X124435006Y-86644348D01*
X124348917Y-86600483D01*
X124298123Y-86552511D01*
X124281328Y-86484690D01*
X124303865Y-86418555D01*
X124348917Y-86379516D01*
X124441610Y-86332287D01*
X124592503Y-86222658D01*
X124607213Y-86211971D01*
X124607215Y-86211968D01*
X124607219Y-86211966D01*
X124751966Y-86067219D01*
X124751968Y-86067215D01*
X124751971Y-86067213D01*
X124804774Y-85994534D01*
X124872287Y-85901610D01*
X124965220Y-85719219D01*
X125028477Y-85524534D01*
X125060500Y-85322352D01*
X125060500Y-85117648D01*
X125031313Y-84933370D01*
X125028477Y-84915465D01*
X124965218Y-84720776D01*
X124927344Y-84646446D01*
X124872287Y-84538390D01*
X124850228Y-84508028D01*
X124751971Y-84372786D01*
X124607213Y-84228028D01*
X124441614Y-84107715D01*
X124435006Y-84104348D01*
X124348917Y-84060483D01*
X124298123Y-84012511D01*
X124281328Y-83944690D01*
X124303865Y-83878555D01*
X124348917Y-83839516D01*
X124441610Y-83792287D01*
X124545119Y-83717084D01*
X124607213Y-83671971D01*
X124607215Y-83671968D01*
X124607219Y-83671966D01*
X124751966Y-83527219D01*
X124751968Y-83527215D01*
X124751971Y-83527213D01*
X124804732Y-83454590D01*
X124872287Y-83361610D01*
X124965220Y-83179219D01*
X125028477Y-82984534D01*
X125060500Y-82782352D01*
X125060500Y-82577648D01*
X125028477Y-82375466D01*
X124965220Y-82180781D01*
X124965218Y-82180778D01*
X124965218Y-82180776D01*
X124927224Y-82106209D01*
X124872287Y-81998390D01*
X124851145Y-81969290D01*
X124751971Y-81832786D01*
X124607213Y-81688028D01*
X124441614Y-81567715D01*
X124435006Y-81564348D01*
X124348917Y-81520483D01*
X124298123Y-81472511D01*
X124281328Y-81404690D01*
X124303865Y-81338555D01*
X124348917Y-81299516D01*
X124441610Y-81252287D01*
X124503051Y-81207648D01*
X124607213Y-81131971D01*
X124607215Y-81131968D01*
X124607219Y-81131966D01*
X124751966Y-80987219D01*
X124751968Y-80987215D01*
X124751971Y-80987213D01*
X124804732Y-80914590D01*
X124872287Y-80821610D01*
X124965220Y-80639219D01*
X125028477Y-80444534D01*
X125060500Y-80242352D01*
X125060500Y-80037648D01*
X125048764Y-79963553D01*
X125028477Y-79835465D01*
X124965218Y-79640776D01*
X124931503Y-79574607D01*
X124872287Y-79458390D01*
X124864556Y-79447749D01*
X124751971Y-79292786D01*
X124607213Y-79148028D01*
X124441614Y-79027715D01*
X124385318Y-78999031D01*
X124348917Y-78980483D01*
X124298123Y-78932511D01*
X124281328Y-78864690D01*
X124303865Y-78798555D01*
X124348917Y-78759516D01*
X124441610Y-78712287D01*
X124521294Y-78654394D01*
X124607213Y-78591971D01*
X124607215Y-78591968D01*
X124607219Y-78591966D01*
X124751966Y-78447219D01*
X124751968Y-78447215D01*
X124751971Y-78447213D01*
X124804732Y-78374590D01*
X124872287Y-78281610D01*
X124965220Y-78099219D01*
X125028477Y-77904534D01*
X125060500Y-77702352D01*
X125060500Y-77497648D01*
X125048284Y-77420523D01*
X125028477Y-77295465D01*
X124965218Y-77100776D01*
X124931503Y-77034607D01*
X124872287Y-76918390D01*
X124864556Y-76907749D01*
X124751971Y-76752786D01*
X124607213Y-76608028D01*
X124441614Y-76487715D01*
X124435006Y-76484348D01*
X124348917Y-76440483D01*
X124298123Y-76392511D01*
X124281328Y-76324690D01*
X124303865Y-76258555D01*
X124348917Y-76219516D01*
X124441610Y-76172287D01*
X124462770Y-76156913D01*
X124607213Y-76051971D01*
X124607215Y-76051968D01*
X124607219Y-76051966D01*
X124751966Y-75907219D01*
X124751968Y-75907215D01*
X124751971Y-75907213D01*
X124804732Y-75834590D01*
X124872287Y-75741610D01*
X124965220Y-75559219D01*
X125028477Y-75364534D01*
X125060500Y-75162352D01*
X125060500Y-74957648D01*
X125028477Y-74755466D01*
X125012150Y-74705218D01*
X124981954Y-74612284D01*
X124965220Y-74560781D01*
X124965218Y-74560778D01*
X124965218Y-74560776D01*
X124903735Y-74440110D01*
X124872287Y-74378390D01*
X124842730Y-74337708D01*
X124751971Y-74212786D01*
X124607213Y-74068028D01*
X124441614Y-73947715D01*
X124402118Y-73927591D01*
X124348917Y-73900483D01*
X124298123Y-73852511D01*
X124281328Y-73784690D01*
X124303865Y-73718555D01*
X124348917Y-73679516D01*
X124441610Y-73632287D01*
X124482814Y-73602351D01*
X124607213Y-73511971D01*
X124607215Y-73511968D01*
X124607219Y-73511966D01*
X124751966Y-73367219D01*
X124751968Y-73367215D01*
X124751971Y-73367213D01*
X124804732Y-73294590D01*
X124872287Y-73201610D01*
X124965220Y-73019219D01*
X125028477Y-72824534D01*
X125060500Y-72622352D01*
X125060500Y-72417648D01*
X125055759Y-72387713D01*
X125028477Y-72215465D01*
X124965218Y-72020776D01*
X124931503Y-71954607D01*
X124872287Y-71838390D01*
X124822409Y-71769738D01*
X124751971Y-71672786D01*
X124607213Y-71528028D01*
X124441614Y-71407715D01*
X124410357Y-71391789D01*
X124348917Y-71360483D01*
X124298123Y-71312511D01*
X124281328Y-71244690D01*
X124303865Y-71178555D01*
X124348917Y-71139516D01*
X124441610Y-71092287D01*
X124462770Y-71076913D01*
X124607213Y-70971971D01*
X124607215Y-70971968D01*
X124607219Y-70971966D01*
X124751966Y-70827219D01*
X124751968Y-70827215D01*
X124751971Y-70827213D01*
X124850821Y-70691155D01*
X124872287Y-70661610D01*
X124965220Y-70479219D01*
X125028477Y-70284534D01*
X125060500Y-70082352D01*
X125060500Y-69877648D01*
X125028477Y-69675466D01*
X124965220Y-69480781D01*
X124965218Y-69480778D01*
X124965218Y-69480776D01*
X124931503Y-69414607D01*
X124872287Y-69298390D01*
X124864556Y-69287749D01*
X124751971Y-69132786D01*
X124607213Y-68988028D01*
X124441614Y-68867715D01*
X124435006Y-68864348D01*
X124348917Y-68820483D01*
X124298123Y-68772511D01*
X124281328Y-68704690D01*
X124303865Y-68638555D01*
X124348917Y-68599516D01*
X124441610Y-68552287D01*
X124462770Y-68536913D01*
X124607213Y-68431971D01*
X124607215Y-68431968D01*
X124607219Y-68431966D01*
X124751966Y-68287219D01*
X124751968Y-68287215D01*
X124751971Y-68287213D01*
X124804732Y-68214590D01*
X124872287Y-68121610D01*
X124965220Y-67939219D01*
X125028477Y-67744534D01*
X125060500Y-67542352D01*
X125060500Y-67337648D01*
X137699500Y-67337648D01*
X137699500Y-67542351D01*
X137731522Y-67744534D01*
X137794781Y-67939223D01*
X137887715Y-68121613D01*
X138008028Y-68287213D01*
X138152786Y-68431971D01*
X138307749Y-68544556D01*
X138318390Y-68552287D01*
X138409840Y-68598883D01*
X138411080Y-68599515D01*
X138461876Y-68647490D01*
X138478671Y-68715311D01*
X138456134Y-68781446D01*
X138411080Y-68820485D01*
X138318386Y-68867715D01*
X138152786Y-68988028D01*
X138008028Y-69132786D01*
X137887715Y-69298386D01*
X137794781Y-69480776D01*
X137731522Y-69675465D01*
X137699500Y-69877648D01*
X137699500Y-70082351D01*
X137731522Y-70284534D01*
X137794781Y-70479223D01*
X137823971Y-70536510D01*
X137866926Y-70620814D01*
X137887715Y-70661613D01*
X138008028Y-70827213D01*
X138152786Y-70971971D01*
X138299884Y-71078842D01*
X138318390Y-71092287D01*
X138409840Y-71138883D01*
X138411080Y-71139515D01*
X138461876Y-71187490D01*
X138478671Y-71255311D01*
X138456134Y-71321446D01*
X138411080Y-71360485D01*
X138318386Y-71407715D01*
X138152786Y-71528028D01*
X138008028Y-71672786D01*
X137887715Y-71838386D01*
X137794781Y-72020776D01*
X137731522Y-72215465D01*
X137699500Y-72417648D01*
X137699500Y-72622351D01*
X137731522Y-72824534D01*
X137794781Y-73019223D01*
X137851681Y-73130893D01*
X137884582Y-73195466D01*
X137887715Y-73201613D01*
X138008028Y-73367213D01*
X138152786Y-73511971D01*
X138307749Y-73624556D01*
X138318390Y-73632287D01*
X138409840Y-73678883D01*
X138411080Y-73679515D01*
X138461876Y-73727490D01*
X138478671Y-73795311D01*
X138456134Y-73861446D01*
X138411080Y-73900485D01*
X138318386Y-73947715D01*
X138152786Y-74068028D01*
X138008028Y-74212786D01*
X137887715Y-74378386D01*
X137794781Y-74560776D01*
X137731522Y-74755465D01*
X137699500Y-74957648D01*
X137699500Y-75162351D01*
X137731522Y-75364534D01*
X137794781Y-75559223D01*
X137887715Y-75741613D01*
X138008028Y-75907213D01*
X138152786Y-76051971D01*
X138307749Y-76164556D01*
X138318390Y-76172287D01*
X138409840Y-76218883D01*
X138411080Y-76219515D01*
X138461876Y-76267490D01*
X138478671Y-76335311D01*
X138456134Y-76401446D01*
X138411080Y-76440485D01*
X138318386Y-76487715D01*
X138152786Y-76608028D01*
X138008028Y-76752786D01*
X137887715Y-76918386D01*
X137794781Y-77100776D01*
X137731522Y-77295465D01*
X137699500Y-77497648D01*
X137699500Y-77702351D01*
X137731522Y-77904534D01*
X137794781Y-78099223D01*
X137887715Y-78281613D01*
X138008028Y-78447213D01*
X138152786Y-78591971D01*
X138238706Y-78654394D01*
X138318390Y-78712287D01*
X138409840Y-78758883D01*
X138411080Y-78759515D01*
X138461876Y-78807490D01*
X138478671Y-78875311D01*
X138456134Y-78941446D01*
X138411080Y-78980485D01*
X138318386Y-79027715D01*
X138152786Y-79148028D01*
X138008028Y-79292786D01*
X137887715Y-79458386D01*
X137794781Y-79640776D01*
X137731522Y-79835465D01*
X137699500Y-80037648D01*
X137699500Y-80242351D01*
X137731522Y-80444534D01*
X137794781Y-80639223D01*
X137858691Y-80764653D01*
X137882195Y-80810781D01*
X137887715Y-80821613D01*
X138008028Y-80987213D01*
X138152786Y-81131971D01*
X138256949Y-81207648D01*
X138318390Y-81252287D01*
X138409840Y-81298883D01*
X138411080Y-81299515D01*
X138461876Y-81347490D01*
X138478671Y-81415311D01*
X138456134Y-81481446D01*
X138411080Y-81520485D01*
X138318386Y-81567715D01*
X138152786Y-81688028D01*
X138008028Y-81832786D01*
X137887715Y-81998386D01*
X137794781Y-82180776D01*
X137731522Y-82375465D01*
X137699500Y-82577648D01*
X137699500Y-82782351D01*
X137731522Y-82984534D01*
X137794781Y-83179223D01*
X137887715Y-83361613D01*
X138008028Y-83527213D01*
X138152786Y-83671971D01*
X138297814Y-83777338D01*
X138318390Y-83792287D01*
X138409840Y-83838883D01*
X138411080Y-83839515D01*
X138461876Y-83887490D01*
X138478671Y-83955311D01*
X138456134Y-84021446D01*
X138411080Y-84060485D01*
X138318386Y-84107715D01*
X138152786Y-84228028D01*
X138008028Y-84372786D01*
X137887715Y-84538386D01*
X137794781Y-84720776D01*
X137731522Y-84915465D01*
X137699500Y-85117648D01*
X137699500Y-85322351D01*
X137731522Y-85524534D01*
X137794781Y-85719223D01*
X137832043Y-85792352D01*
X137871150Y-85869104D01*
X137887715Y-85901613D01*
X138008028Y-86067213D01*
X138152786Y-86211971D01*
X138307749Y-86324556D01*
X138318390Y-86332287D01*
X138395566Y-86371610D01*
X138411080Y-86379515D01*
X138461876Y-86427490D01*
X138478671Y-86495311D01*
X138456134Y-86561446D01*
X138411080Y-86600485D01*
X138318386Y-86647715D01*
X138152786Y-86768028D01*
X138008028Y-86912786D01*
X137887715Y-87078386D01*
X137794781Y-87260776D01*
X137731522Y-87455465D01*
X137699500Y-87657648D01*
X137699500Y-87862351D01*
X137731522Y-88064534D01*
X137794781Y-88259223D01*
X137887715Y-88441613D01*
X138008028Y-88607213D01*
X138152786Y-88751971D01*
X138307749Y-88864556D01*
X138318390Y-88872287D01*
X138409840Y-88918883D01*
X138411080Y-88919515D01*
X138461876Y-88967490D01*
X138478671Y-89035311D01*
X138456134Y-89101446D01*
X138411080Y-89140485D01*
X138318386Y-89187715D01*
X138152786Y-89308028D01*
X138008028Y-89452786D01*
X137887715Y-89618386D01*
X137794781Y-89800776D01*
X137731522Y-89995465D01*
X137699500Y-90197648D01*
X137699500Y-90402351D01*
X137731522Y-90604534D01*
X137794781Y-90799223D01*
X137858691Y-90924653D01*
X137878512Y-90963553D01*
X137887715Y-90981613D01*
X138008028Y-91147213D01*
X138152786Y-91291971D01*
X138307749Y-91404556D01*
X138318390Y-91412287D01*
X138409840Y-91458883D01*
X138411080Y-91459515D01*
X138461876Y-91507490D01*
X138478671Y-91575311D01*
X138456134Y-91641446D01*
X138411080Y-91680485D01*
X138318386Y-91727715D01*
X138152786Y-91848028D01*
X138008028Y-91992786D01*
X137887715Y-92158386D01*
X137794781Y-92340776D01*
X137731522Y-92535465D01*
X137699500Y-92737648D01*
X137699500Y-92942351D01*
X137731522Y-93144534D01*
X137794781Y-93339223D01*
X137887715Y-93521613D01*
X138008028Y-93687213D01*
X138152786Y-93831971D01*
X138307749Y-93944556D01*
X138318390Y-93952287D01*
X138390424Y-93988990D01*
X138411629Y-93999795D01*
X138462425Y-94047770D01*
X138479220Y-94115591D01*
X138456682Y-94181726D01*
X138411629Y-94220765D01*
X138318650Y-94268140D01*
X138153105Y-94388417D01*
X138153104Y-94388417D01*
X138008417Y-94533104D01*
X138008417Y-94533105D01*
X137888140Y-94698650D01*
X137795244Y-94880970D01*
X137732009Y-95075586D01*
X137723391Y-95130000D01*
X138566988Y-95130000D01*
X138534075Y-95187007D01*
X138500000Y-95314174D01*
X138500000Y-95445826D01*
X138534075Y-95572993D01*
X138566988Y-95630000D01*
X137723391Y-95630000D01*
X137732009Y-95684413D01*
X137795244Y-95879029D01*
X137888140Y-96061349D01*
X138008417Y-96226894D01*
X138008417Y-96226895D01*
X138153104Y-96371582D01*
X138318652Y-96491861D01*
X138411628Y-96539234D01*
X138462425Y-96587208D01*
X138479220Y-96655029D01*
X138456683Y-96721164D01*
X138411630Y-96760203D01*
X138318388Y-96807713D01*
X138152786Y-96928028D01*
X138008028Y-97072786D01*
X137887715Y-97238386D01*
X137794781Y-97420776D01*
X137731522Y-97615465D01*
X137699500Y-97817648D01*
X137699500Y-98022351D01*
X137731522Y-98224534D01*
X137794781Y-98419223D01*
X137835542Y-98499219D01*
X137867333Y-98561613D01*
X137887715Y-98601613D01*
X138008028Y-98767213D01*
X138152786Y-98911971D01*
X138262892Y-98991966D01*
X138318390Y-99032287D01*
X138409840Y-99078883D01*
X138411080Y-99079515D01*
X138461876Y-99127490D01*
X138478671Y-99195311D01*
X138456134Y-99261446D01*
X138411080Y-99300485D01*
X138318386Y-99347715D01*
X138152786Y-99468028D01*
X138008028Y-99612786D01*
X137887715Y-99778386D01*
X137794781Y-99960776D01*
X137731522Y-100155465D01*
X137699500Y-100357648D01*
X137699500Y-100562351D01*
X137731522Y-100764534D01*
X137794781Y-100959223D01*
X137887715Y-101141613D01*
X138008028Y-101307213D01*
X138152784Y-101451969D01*
X138189068Y-101478330D01*
X138231735Y-101533659D01*
X138237715Y-101603273D01*
X138205109Y-101665068D01*
X138144271Y-101699426D01*
X138129440Y-101701938D01*
X138092519Y-101705907D01*
X137957671Y-101756202D01*
X137957664Y-101756206D01*
X137842455Y-101842452D01*
X137842452Y-101842455D01*
X137756206Y-101957664D01*
X137756202Y-101957671D01*
X137705908Y-102092517D01*
X137699501Y-102152116D01*
X137699501Y-102152123D01*
X137699500Y-102152135D01*
X137699500Y-103847870D01*
X137699501Y-103847876D01*
X137705908Y-103907483D01*
X137756202Y-104042328D01*
X137756206Y-104042335D01*
X137842452Y-104157544D01*
X137842455Y-104157547D01*
X137957664Y-104243793D01*
X137957671Y-104243797D01*
X138092517Y-104294091D01*
X138092516Y-104294091D01*
X138098925Y-104294780D01*
X138152127Y-104300500D01*
X139847872Y-104300499D01*
X139907483Y-104294091D01*
X140042331Y-104243796D01*
X140157546Y-104157546D01*
X140243796Y-104042331D01*
X140294091Y-103907483D01*
X140300500Y-103847873D01*
X140300499Y-102152128D01*
X140294091Y-102092517D01*
X140243796Y-101957669D01*
X140243795Y-101957668D01*
X140243793Y-101957664D01*
X140157547Y-101842455D01*
X140157544Y-101842452D01*
X140042335Y-101756206D01*
X140042328Y-101756202D01*
X139907482Y-101705908D01*
X139907483Y-101705908D01*
X139870560Y-101701939D01*
X139806009Y-101675201D01*
X139766160Y-101617809D01*
X139763667Y-101547984D01*
X139799319Y-101487895D01*
X139810930Y-101478331D01*
X139847219Y-101451966D01*
X139991966Y-101307219D01*
X139991968Y-101307215D01*
X139991971Y-101307213D01*
X140044732Y-101234590D01*
X140112287Y-101141610D01*
X140205220Y-100959219D01*
X140268477Y-100764534D01*
X140300500Y-100562352D01*
X140300500Y-100357648D01*
X140286144Y-100267007D01*
X140268477Y-100155465D01*
X140205218Y-99960776D01*
X140112419Y-99778650D01*
X140112287Y-99778390D01*
X140104556Y-99767749D01*
X139991971Y-99612786D01*
X139847213Y-99468028D01*
X139681614Y-99347715D01*
X139675006Y-99344348D01*
X139588917Y-99300483D01*
X139538123Y-99252511D01*
X139521328Y-99184690D01*
X139543865Y-99118555D01*
X139588917Y-99079516D01*
X139681610Y-99032287D01*
X139776887Y-98963065D01*
X139847213Y-98911971D01*
X139847215Y-98911968D01*
X139847219Y-98911966D01*
X139991966Y-98767219D01*
X139991968Y-98767215D01*
X139991971Y-98767213D01*
X140099576Y-98619105D01*
X140112287Y-98601610D01*
X140205220Y-98419219D01*
X140268477Y-98224534D01*
X140300500Y-98022352D01*
X140300500Y-97817648D01*
X140268477Y-97615466D01*
X140205220Y-97420781D01*
X140205218Y-97420778D01*
X140205218Y-97420776D01*
X140153047Y-97318386D01*
X140112287Y-97238390D01*
X140083223Y-97198386D01*
X139991971Y-97072786D01*
X139847213Y-96928028D01*
X139681611Y-96807713D01*
X139588369Y-96760203D01*
X139537574Y-96712229D01*
X139520779Y-96644407D01*
X139543317Y-96578273D01*
X139588371Y-96539234D01*
X139681347Y-96491861D01*
X139846894Y-96371582D01*
X139846895Y-96371582D01*
X139991582Y-96226895D01*
X139991582Y-96226894D01*
X140111859Y-96061349D01*
X140204755Y-95879029D01*
X140267990Y-95684413D01*
X140276609Y-95630000D01*
X139433012Y-95630000D01*
X139465925Y-95572993D01*
X139500000Y-95445826D01*
X139500000Y-95314174D01*
X139465925Y-95187007D01*
X139433012Y-95130000D01*
X140276609Y-95130000D01*
X140267990Y-95075586D01*
X140204755Y-94880970D01*
X140111859Y-94698650D01*
X139991582Y-94533105D01*
X139991582Y-94533104D01*
X139846895Y-94388417D01*
X139681349Y-94268140D01*
X139588370Y-94220765D01*
X139537574Y-94172790D01*
X139520779Y-94104969D01*
X139543316Y-94038835D01*
X139588370Y-93999795D01*
X139604434Y-93991610D01*
X139681610Y-93952287D01*
X139702770Y-93936913D01*
X139847213Y-93831971D01*
X139847215Y-93831968D01*
X139847219Y-93831966D01*
X139991966Y-93687219D01*
X139991968Y-93687215D01*
X139991971Y-93687213D01*
X140044779Y-93614528D01*
X140112287Y-93521610D01*
X140205220Y-93339219D01*
X140268477Y-93144534D01*
X140300500Y-92942352D01*
X140300500Y-92737648D01*
X140286731Y-92650716D01*
X140268477Y-92535465D01*
X140205218Y-92340776D01*
X140134985Y-92202938D01*
X140112287Y-92158390D01*
X140073338Y-92104781D01*
X139991971Y-91992786D01*
X139847213Y-91848028D01*
X139681614Y-91727715D01*
X139636552Y-91704755D01*
X139588917Y-91680483D01*
X139538123Y-91632511D01*
X139521328Y-91564690D01*
X139543865Y-91498555D01*
X139588917Y-91459516D01*
X139681610Y-91412287D01*
X139702770Y-91396913D01*
X139847213Y-91291971D01*
X139847215Y-91291968D01*
X139847219Y-91291966D01*
X139991966Y-91147219D01*
X139991968Y-91147215D01*
X139991971Y-91147213D01*
X140044732Y-91074590D01*
X140112287Y-90981610D01*
X140205220Y-90799219D01*
X140268477Y-90604534D01*
X140300500Y-90402352D01*
X140300500Y-90197648D01*
X140281231Y-90075992D01*
X140268477Y-89995465D01*
X140205218Y-89800776D01*
X140171503Y-89734607D01*
X140112287Y-89618390D01*
X140104556Y-89607749D01*
X139991971Y-89452786D01*
X139847213Y-89308028D01*
X139681614Y-89187715D01*
X139604907Y-89148631D01*
X139588917Y-89140483D01*
X139538123Y-89092511D01*
X139521328Y-89024690D01*
X139543865Y-88958555D01*
X139588917Y-88919516D01*
X139681610Y-88872287D01*
X139702770Y-88856913D01*
X139847213Y-88751971D01*
X139847215Y-88751968D01*
X139847219Y-88751966D01*
X139991966Y-88607219D01*
X139991968Y-88607215D01*
X139991971Y-88607213D01*
X140053527Y-88522487D01*
X140112287Y-88441610D01*
X140205220Y-88259219D01*
X140268477Y-88064534D01*
X140300500Y-87862352D01*
X140300500Y-87657648D01*
X140268477Y-87455466D01*
X140205220Y-87260781D01*
X140205218Y-87260778D01*
X140205218Y-87260776D01*
X140171503Y-87194607D01*
X140112287Y-87078390D01*
X140104556Y-87067749D01*
X139991971Y-86912786D01*
X139847213Y-86768028D01*
X139681614Y-86647715D01*
X139675006Y-86644348D01*
X139588917Y-86600483D01*
X139538123Y-86552511D01*
X139521328Y-86484690D01*
X139543865Y-86418555D01*
X139588917Y-86379516D01*
X139681610Y-86332287D01*
X139832503Y-86222658D01*
X139847213Y-86211971D01*
X139847215Y-86211968D01*
X139847219Y-86211966D01*
X139991966Y-86067219D01*
X139991968Y-86067215D01*
X139991971Y-86067213D01*
X140044774Y-85994534D01*
X140112287Y-85901610D01*
X140205220Y-85719219D01*
X140268477Y-85524534D01*
X140300500Y-85322352D01*
X140300500Y-85117648D01*
X140271313Y-84933370D01*
X140268477Y-84915465D01*
X140205218Y-84720776D01*
X140167344Y-84646446D01*
X140112287Y-84538390D01*
X140090228Y-84508028D01*
X139991971Y-84372786D01*
X139847213Y-84228028D01*
X139681614Y-84107715D01*
X139675006Y-84104348D01*
X139588917Y-84060483D01*
X139538123Y-84012511D01*
X139521328Y-83944690D01*
X139543865Y-83878555D01*
X139588917Y-83839516D01*
X139681610Y-83792287D01*
X139785119Y-83717084D01*
X139847213Y-83671971D01*
X139847215Y-83671968D01*
X139847219Y-83671966D01*
X139991966Y-83527219D01*
X139991968Y-83527215D01*
X139991971Y-83527213D01*
X140044732Y-83454590D01*
X140112287Y-83361610D01*
X140205220Y-83179219D01*
X140268477Y-82984534D01*
X140300500Y-82782352D01*
X140300500Y-82577648D01*
X140268477Y-82375466D01*
X140205220Y-82180781D01*
X140205218Y-82180778D01*
X140205218Y-82180776D01*
X140167224Y-82106209D01*
X140112287Y-81998390D01*
X140091145Y-81969290D01*
X139991971Y-81832786D01*
X139847213Y-81688028D01*
X139681614Y-81567715D01*
X139675006Y-81564348D01*
X139588917Y-81520483D01*
X139538123Y-81472511D01*
X139521328Y-81404690D01*
X139543865Y-81338555D01*
X139588917Y-81299516D01*
X139681610Y-81252287D01*
X139743051Y-81207648D01*
X146699500Y-81207648D01*
X146699500Y-81412351D01*
X146731522Y-81614534D01*
X146794781Y-81809223D01*
X146858691Y-81934653D01*
X146876340Y-81969290D01*
X146887715Y-81991613D01*
X147008028Y-82157213D01*
X147152786Y-82301971D01*
X147307749Y-82414556D01*
X147318390Y-82422287D01*
X147434607Y-82481503D01*
X147500776Y-82515218D01*
X147500778Y-82515218D01*
X147500781Y-82515220D01*
X147605137Y-82549127D01*
X147695465Y-82578477D01*
X147747604Y-82586735D01*
X147897648Y-82610500D01*
X147897649Y-82610500D01*
X148102351Y-82610500D01*
X148102352Y-82610500D01*
X148284102Y-82581713D01*
X148353395Y-82590667D01*
X148406847Y-82635664D01*
X148427487Y-82702415D01*
X148427500Y-82704186D01*
X148427500Y-84295813D01*
X148407815Y-84362852D01*
X148355011Y-84408607D01*
X148285853Y-84418551D01*
X148284102Y-84418286D01*
X148131275Y-84394081D01*
X148102352Y-84389500D01*
X147897648Y-84389500D01*
X147873329Y-84393351D01*
X147695465Y-84421522D01*
X147500776Y-84484781D01*
X147318386Y-84577715D01*
X147152786Y-84698028D01*
X147008028Y-84842786D01*
X146887715Y-85008386D01*
X146794781Y-85190776D01*
X146731522Y-85385465D01*
X146709496Y-85524534D01*
X146699500Y-85587648D01*
X146699500Y-85792352D01*
X146703878Y-85819995D01*
X146731522Y-85994534D01*
X146794781Y-86189223D01*
X146842520Y-86282914D01*
X146867675Y-86332284D01*
X146887715Y-86371613D01*
X147008028Y-86537213D01*
X147152786Y-86681971D01*
X147271236Y-86768028D01*
X147318390Y-86802287D01*
X147434607Y-86861503D01*
X147500776Y-86895218D01*
X147500778Y-86895218D01*
X147500781Y-86895220D01*
X147605137Y-86929127D01*
X147695465Y-86958477D01*
X147772429Y-86970667D01*
X147897648Y-86990500D01*
X147897649Y-86990500D01*
X148102351Y-86990500D01*
X148102352Y-86990500D01*
X148284102Y-86961713D01*
X148353395Y-86970667D01*
X148406847Y-87015664D01*
X148427487Y-87082415D01*
X148427500Y-87084186D01*
X148427500Y-91915813D01*
X148407815Y-91982852D01*
X148355011Y-92028607D01*
X148285853Y-92038551D01*
X148284102Y-92038286D01*
X148131275Y-92014081D01*
X148102352Y-92009500D01*
X147897648Y-92009500D01*
X147873329Y-92013351D01*
X147695465Y-92041522D01*
X147500776Y-92104781D01*
X147318386Y-92197715D01*
X147152786Y-92318028D01*
X147008028Y-92462786D01*
X146887715Y-92628386D01*
X146794781Y-92810776D01*
X146731522Y-93005465D01*
X146699500Y-93207648D01*
X146699500Y-93412351D01*
X146731522Y-93614534D01*
X146794781Y-93809223D01*
X146858691Y-93934653D01*
X146876340Y-93969290D01*
X146887715Y-93991613D01*
X147008028Y-94157213D01*
X147152786Y-94301971D01*
X147307749Y-94414556D01*
X147318390Y-94422287D01*
X147434607Y-94481503D01*
X147500776Y-94515218D01*
X147500778Y-94515218D01*
X147500781Y-94515220D01*
X147605137Y-94549127D01*
X147695465Y-94578477D01*
X147736012Y-94584899D01*
X147897648Y-94610500D01*
X147897649Y-94610500D01*
X148102351Y-94610500D01*
X148102352Y-94610500D01*
X148284102Y-94581713D01*
X148353395Y-94590667D01*
X148406847Y-94635664D01*
X148427487Y-94702415D01*
X148427500Y-94704186D01*
X148427500Y-96485813D01*
X148407815Y-96552852D01*
X148355011Y-96598607D01*
X148285853Y-96608551D01*
X148284102Y-96608286D01*
X148131275Y-96584081D01*
X148102352Y-96579500D01*
X147897648Y-96579500D01*
X147873329Y-96583351D01*
X147695465Y-96611522D01*
X147500776Y-96674781D01*
X147318386Y-96767715D01*
X147152786Y-96888028D01*
X147008028Y-97032786D01*
X146887715Y-97198386D01*
X146794781Y-97380776D01*
X146731522Y-97575465D01*
X146699500Y-97777648D01*
X146699500Y-97982351D01*
X146731522Y-98184534D01*
X146794781Y-98379223D01*
X146887715Y-98561613D01*
X147008028Y-98727213D01*
X147152786Y-98871971D01*
X147278169Y-98963065D01*
X147318390Y-98992287D01*
X147434607Y-99051503D01*
X147500776Y-99085218D01*
X147500778Y-99085218D01*
X147500781Y-99085220D01*
X147584085Y-99112287D01*
X147695465Y-99148477D01*
X147772429Y-99160667D01*
X147897648Y-99180500D01*
X147897649Y-99180500D01*
X148102351Y-99180500D01*
X148102352Y-99180500D01*
X148284102Y-99151713D01*
X148353395Y-99160667D01*
X148406847Y-99205664D01*
X148427487Y-99272415D01*
X148427500Y-99274186D01*
X148427500Y-104105813D01*
X148407815Y-104172852D01*
X148355011Y-104218607D01*
X148285853Y-104228551D01*
X148284102Y-104228286D01*
X148131275Y-104204081D01*
X148102352Y-104199500D01*
X147897648Y-104199500D01*
X147873329Y-104203351D01*
X147695465Y-104231522D01*
X147500776Y-104294781D01*
X147318386Y-104387715D01*
X147152786Y-104508028D01*
X147008028Y-104652786D01*
X146887715Y-104818386D01*
X146794781Y-105000776D01*
X146731522Y-105195465D01*
X146699500Y-105397648D01*
X146699500Y-105602351D01*
X146731522Y-105804534D01*
X146794781Y-105999223D01*
X146887715Y-106181613D01*
X147008028Y-106347213D01*
X147152786Y-106491971D01*
X147307749Y-106604556D01*
X147318390Y-106612287D01*
X147434607Y-106671503D01*
X147500776Y-106705218D01*
X147500778Y-106705218D01*
X147500781Y-106705220D01*
X147605137Y-106739127D01*
X147695465Y-106768477D01*
X147796557Y-106784488D01*
X147897648Y-106800500D01*
X147897649Y-106800500D01*
X148102351Y-106800500D01*
X148102352Y-106800500D01*
X148304534Y-106768477D01*
X148499219Y-106705220D01*
X148681610Y-106612287D01*
X148774590Y-106544732D01*
X148847213Y-106491971D01*
X148847215Y-106491968D01*
X148847219Y-106491966D01*
X148991966Y-106347219D01*
X148991968Y-106347215D01*
X148991971Y-106347213D01*
X149044732Y-106274590D01*
X149112287Y-106181610D01*
X149205220Y-105999219D01*
X149268477Y-105804534D01*
X149300500Y-105602352D01*
X149300500Y-105397648D01*
X149268477Y-105195466D01*
X149263826Y-105181154D01*
X149261832Y-105111315D01*
X149294074Y-105055161D01*
X149508520Y-104840716D01*
X149587577Y-104703784D01*
X149628501Y-104551057D01*
X149628501Y-104392942D01*
X149628501Y-104385347D01*
X149628500Y-104385329D01*
X149628500Y-102897682D01*
X151700000Y-102897682D01*
X151700000Y-103102317D01*
X151732009Y-103304417D01*
X151795244Y-103499031D01*
X151888141Y-103681350D01*
X151888147Y-103681359D01*
X151920523Y-103725921D01*
X151920524Y-103725922D01*
X152600000Y-103046446D01*
X152600000Y-103052661D01*
X152627259Y-103154394D01*
X152679920Y-103245606D01*
X152754394Y-103320080D01*
X152845606Y-103372741D01*
X152947339Y-103400000D01*
X152953553Y-103400000D01*
X152274076Y-104079474D01*
X152318650Y-104111859D01*
X152500968Y-104204755D01*
X152695582Y-104267990D01*
X152897683Y-104300000D01*
X153102317Y-104300000D01*
X153304417Y-104267990D01*
X153499031Y-104204755D01*
X153681349Y-104111859D01*
X153725921Y-104079474D01*
X153046447Y-103400000D01*
X153052661Y-103400000D01*
X153154394Y-103372741D01*
X153245606Y-103320080D01*
X153320080Y-103245606D01*
X153372741Y-103154394D01*
X153400000Y-103052661D01*
X153400000Y-103046447D01*
X154079474Y-103725921D01*
X154111859Y-103681349D01*
X154204755Y-103499031D01*
X154267990Y-103304417D01*
X154300000Y-103102317D01*
X154300000Y-102897682D01*
X154267990Y-102695582D01*
X154204755Y-102500968D01*
X154111859Y-102318650D01*
X154079474Y-102274077D01*
X154079474Y-102274076D01*
X153400000Y-102953551D01*
X153400000Y-102947339D01*
X153372741Y-102845606D01*
X153320080Y-102754394D01*
X153245606Y-102679920D01*
X153154394Y-102627259D01*
X153052661Y-102600000D01*
X153046446Y-102600000D01*
X153725921Y-101920524D01*
X153725921Y-101920523D01*
X153681359Y-101888147D01*
X153681350Y-101888141D01*
X153669105Y-101881902D01*
X158499500Y-101881902D01*
X158499500Y-102118097D01*
X158536446Y-102351368D01*
X158609433Y-102575996D01*
X158670307Y-102695466D01*
X158716657Y-102786433D01*
X158855483Y-102977510D01*
X159022490Y-103144517D01*
X159213567Y-103283343D01*
X159312991Y-103334002D01*
X159424003Y-103390566D01*
X159424005Y-103390566D01*
X159424008Y-103390568D01*
X159453037Y-103400000D01*
X159648631Y-103463553D01*
X159881903Y-103500500D01*
X159881908Y-103500500D01*
X160118097Y-103500500D01*
X160351368Y-103463553D01*
X160575992Y-103390568D01*
X160786433Y-103283343D01*
X160977510Y-103144517D01*
X161144517Y-102977510D01*
X161283343Y-102786433D01*
X161390568Y-102575992D01*
X161463553Y-102351368D01*
X161475795Y-102274076D01*
X161500500Y-102118097D01*
X161500500Y-101881902D01*
X164999500Y-101881902D01*
X164999500Y-102118097D01*
X165036446Y-102351368D01*
X165109433Y-102575996D01*
X165170307Y-102695466D01*
X165216657Y-102786433D01*
X165355483Y-102977510D01*
X165522490Y-103144517D01*
X165713567Y-103283343D01*
X165812991Y-103334002D01*
X165924003Y-103390566D01*
X165924005Y-103390566D01*
X165924008Y-103390568D01*
X165953037Y-103400000D01*
X166148631Y-103463553D01*
X166381903Y-103500500D01*
X166381908Y-103500500D01*
X166618097Y-103500500D01*
X166851368Y-103463553D01*
X167075992Y-103390568D01*
X167286433Y-103283343D01*
X167477510Y-103144517D01*
X167644517Y-102977510D01*
X167783343Y-102786433D01*
X167890568Y-102575992D01*
X167963553Y-102351368D01*
X167975795Y-102274076D01*
X168000500Y-102118097D01*
X168000500Y-101881902D01*
X167963553Y-101648631D01*
X167911326Y-101487895D01*
X167890568Y-101424008D01*
X167890566Y-101424005D01*
X167890566Y-101424003D01*
X167783342Y-101213566D01*
X167644517Y-101022490D01*
X167477510Y-100855483D01*
X167286433Y-100716657D01*
X167273368Y-100710000D01*
X167075996Y-100609433D01*
X166851368Y-100536446D01*
X166618097Y-100499500D01*
X166618092Y-100499500D01*
X166381908Y-100499500D01*
X166381903Y-100499500D01*
X166148631Y-100536446D01*
X165924003Y-100609433D01*
X165713566Y-100716657D01*
X165647670Y-100764534D01*
X165522490Y-100855483D01*
X165522488Y-100855485D01*
X165522487Y-100855485D01*
X165355485Y-101022487D01*
X165355485Y-101022488D01*
X165355483Y-101022490D01*
X165295862Y-101104550D01*
X165216657Y-101213566D01*
X165109433Y-101424003D01*
X165036446Y-101648631D01*
X164999500Y-101881902D01*
X161500500Y-101881902D01*
X161463553Y-101648631D01*
X161411326Y-101487895D01*
X161390568Y-101424008D01*
X161390566Y-101424005D01*
X161390566Y-101424003D01*
X161283342Y-101213566D01*
X161144517Y-101022490D01*
X160977510Y-100855483D01*
X160786433Y-100716657D01*
X160773368Y-100710000D01*
X160575996Y-100609433D01*
X160351368Y-100536446D01*
X160118097Y-100499500D01*
X160118092Y-100499500D01*
X159881908Y-100499500D01*
X159881903Y-100499500D01*
X159648631Y-100536446D01*
X159424003Y-100609433D01*
X159213566Y-100716657D01*
X159147670Y-100764534D01*
X159022490Y-100855483D01*
X159022488Y-100855485D01*
X159022487Y-100855485D01*
X158855485Y-101022487D01*
X158855485Y-101022488D01*
X158855483Y-101022490D01*
X158795862Y-101104550D01*
X158716657Y-101213566D01*
X158609433Y-101424003D01*
X158536446Y-101648631D01*
X158499500Y-101881902D01*
X153669105Y-101881902D01*
X153499031Y-101795244D01*
X153304417Y-101732009D01*
X153102317Y-101700000D01*
X152897683Y-101700000D01*
X152695582Y-101732009D01*
X152500968Y-101795244D01*
X152318644Y-101888143D01*
X152274077Y-101920523D01*
X152274077Y-101920524D01*
X152953554Y-102600000D01*
X152947339Y-102600000D01*
X152845606Y-102627259D01*
X152754394Y-102679920D01*
X152679920Y-102754394D01*
X152627259Y-102845606D01*
X152600000Y-102947339D01*
X152600000Y-102953553D01*
X151920524Y-102274077D01*
X151920523Y-102274077D01*
X151888143Y-102318644D01*
X151795244Y-102500968D01*
X151732009Y-102695582D01*
X151700000Y-102897682D01*
X149628500Y-102897682D01*
X149628500Y-97897648D01*
X151699500Y-97897648D01*
X151699500Y-98102351D01*
X151731522Y-98304534D01*
X151794781Y-98499223D01*
X151887715Y-98681613D01*
X152008028Y-98847213D01*
X152152786Y-98991971D01*
X152273668Y-99079795D01*
X152318390Y-99112287D01*
X152389417Y-99148477D01*
X152500776Y-99205218D01*
X152500778Y-99205218D01*
X152500781Y-99205220D01*
X152605137Y-99239127D01*
X152695465Y-99268477D01*
X152796557Y-99284488D01*
X152897648Y-99300500D01*
X152897649Y-99300500D01*
X153102351Y-99300500D01*
X153102352Y-99300500D01*
X153304534Y-99268477D01*
X153499219Y-99205220D01*
X153681610Y-99112287D01*
X153774590Y-99044732D01*
X153847213Y-98991971D01*
X153847215Y-98991968D01*
X153847219Y-98991966D01*
X153991966Y-98847219D01*
X153991968Y-98847215D01*
X153991971Y-98847213D01*
X154112286Y-98681611D01*
X154144135Y-98619105D01*
X154144135Y-98619104D01*
X154153048Y-98601613D01*
X154205220Y-98499219D01*
X154268477Y-98304534D01*
X154300500Y-98102352D01*
X154300500Y-97897648D01*
X154268477Y-97695466D01*
X154205220Y-97500781D01*
X154205217Y-97500776D01*
X154205216Y-97500771D01*
X154170874Y-97433372D01*
X154170872Y-97433370D01*
X154144671Y-97381947D01*
X158500000Y-97381947D01*
X158500000Y-97618052D01*
X158536934Y-97851247D01*
X158609897Y-98075802D01*
X158717087Y-98286174D01*
X158777338Y-98369104D01*
X158777340Y-98369105D01*
X159476212Y-97670233D01*
X159487482Y-97712292D01*
X159559890Y-97837708D01*
X159662292Y-97940110D01*
X159787708Y-98012518D01*
X159829765Y-98023787D01*
X159130893Y-98722658D01*
X159213828Y-98782914D01*
X159424197Y-98890102D01*
X159648752Y-98963065D01*
X159648751Y-98963065D01*
X159881948Y-99000000D01*
X160118052Y-99000000D01*
X160351247Y-98963065D01*
X160575802Y-98890102D01*
X160786163Y-98782918D01*
X160786169Y-98782914D01*
X160869104Y-98722658D01*
X160869105Y-98722658D01*
X160170233Y-98023787D01*
X160212292Y-98012518D01*
X160337708Y-97940110D01*
X160440110Y-97837708D01*
X160512518Y-97712292D01*
X160523787Y-97670234D01*
X161222658Y-98369105D01*
X161222658Y-98369104D01*
X161282914Y-98286169D01*
X161282918Y-98286163D01*
X161390102Y-98075802D01*
X161463065Y-97851247D01*
X161500000Y-97618052D01*
X161500000Y-97381947D01*
X165000000Y-97381947D01*
X165000000Y-97618052D01*
X165036934Y-97851247D01*
X165109897Y-98075802D01*
X165217087Y-98286174D01*
X165277338Y-98369104D01*
X165277340Y-98369105D01*
X165976212Y-97670233D01*
X165987482Y-97712292D01*
X166059890Y-97837708D01*
X166162292Y-97940110D01*
X166287708Y-98012518D01*
X166329765Y-98023787D01*
X165630893Y-98722658D01*
X165713828Y-98782914D01*
X165924197Y-98890102D01*
X166148752Y-98963065D01*
X166148751Y-98963065D01*
X166381948Y-99000000D01*
X166618052Y-99000000D01*
X166851247Y-98963065D01*
X167075802Y-98890102D01*
X167286163Y-98782918D01*
X167286169Y-98782914D01*
X167369104Y-98722658D01*
X167369105Y-98722658D01*
X166670233Y-98023787D01*
X166712292Y-98012518D01*
X166837708Y-97940110D01*
X166940110Y-97837708D01*
X167012518Y-97712292D01*
X167023787Y-97670234D01*
X167722658Y-98369105D01*
X167722658Y-98369104D01*
X167782914Y-98286169D01*
X167782918Y-98286163D01*
X167890102Y-98075802D01*
X167963065Y-97851247D01*
X168000000Y-97618052D01*
X168000000Y-97381947D01*
X167963065Y-97148752D01*
X167890102Y-96924197D01*
X167782914Y-96713828D01*
X167722658Y-96630894D01*
X167722658Y-96630893D01*
X167023787Y-97329765D01*
X167012518Y-97287708D01*
X166940110Y-97162292D01*
X166837708Y-97059890D01*
X166712292Y-96987482D01*
X166670234Y-96976212D01*
X167369105Y-96277340D01*
X167369104Y-96277338D01*
X167286174Y-96217087D01*
X167075802Y-96109897D01*
X166851247Y-96036934D01*
X166851248Y-96036934D01*
X166618052Y-96000000D01*
X166381948Y-96000000D01*
X166148752Y-96036934D01*
X165924197Y-96109897D01*
X165713830Y-96217084D01*
X165630894Y-96277340D01*
X166329766Y-96976212D01*
X166287708Y-96987482D01*
X166162292Y-97059890D01*
X166059890Y-97162292D01*
X165987482Y-97287708D01*
X165976212Y-97329765D01*
X165277340Y-96630894D01*
X165217084Y-96713830D01*
X165109897Y-96924197D01*
X165036934Y-97148752D01*
X165000000Y-97381947D01*
X161500000Y-97381947D01*
X161463065Y-97148752D01*
X161390102Y-96924197D01*
X161282914Y-96713828D01*
X161222658Y-96630894D01*
X161222658Y-96630893D01*
X160523787Y-97329765D01*
X160512518Y-97287708D01*
X160440110Y-97162292D01*
X160337708Y-97059890D01*
X160212292Y-96987482D01*
X160170234Y-96976212D01*
X160869105Y-96277340D01*
X160869104Y-96277339D01*
X160786174Y-96217087D01*
X160575802Y-96109897D01*
X160351247Y-96036934D01*
X160351248Y-96036934D01*
X160118052Y-96000000D01*
X159881948Y-96000000D01*
X159648752Y-96036934D01*
X159424197Y-96109897D01*
X159213830Y-96217084D01*
X159130894Y-96277340D01*
X159829766Y-96976212D01*
X159787708Y-96987482D01*
X159662292Y-97059890D01*
X159559890Y-97162292D01*
X159487482Y-97287708D01*
X159476212Y-97329766D01*
X158777340Y-96630894D01*
X158717084Y-96713830D01*
X158609897Y-96924197D01*
X158536934Y-97148752D01*
X158500000Y-97381947D01*
X154144671Y-97381947D01*
X154112287Y-97318390D01*
X154112285Y-97318387D01*
X154112284Y-97318385D01*
X153991971Y-97152786D01*
X153847213Y-97008028D01*
X153681613Y-96887715D01*
X153681612Y-96887714D01*
X153681610Y-96887713D01*
X153624653Y-96858691D01*
X153499223Y-96794781D01*
X153304534Y-96731522D01*
X153129995Y-96703878D01*
X153102352Y-96699500D01*
X152897648Y-96699500D01*
X152873329Y-96703351D01*
X152695465Y-96731522D01*
X152500776Y-96794781D01*
X152318386Y-96887715D01*
X152152786Y-97008028D01*
X152008028Y-97152786D01*
X151887715Y-97318386D01*
X151794781Y-97500776D01*
X151731522Y-97695465D01*
X151699500Y-97897648D01*
X149628500Y-97897648D01*
X149628500Y-94427060D01*
X149628501Y-94427047D01*
X149628501Y-94258944D01*
X149628501Y-94258943D01*
X149587577Y-94106216D01*
X149568660Y-94073450D01*
X149508524Y-93969290D01*
X149508518Y-93969282D01*
X149294077Y-93754841D01*
X149260592Y-93693518D01*
X149263827Y-93628842D01*
X149268477Y-93614534D01*
X149300500Y-93412352D01*
X149300500Y-93207648D01*
X149268477Y-93005466D01*
X149263826Y-92991154D01*
X149261832Y-92921315D01*
X149294074Y-92865161D01*
X149508520Y-92650716D01*
X149587577Y-92513784D01*
X149628501Y-92361057D01*
X149628501Y-92202942D01*
X149628501Y-92195347D01*
X149628500Y-92195329D01*
X149628500Y-90397682D01*
X151700000Y-90397682D01*
X151700000Y-90602317D01*
X151732009Y-90804417D01*
X151795244Y-90999031D01*
X151888141Y-91181350D01*
X151888147Y-91181359D01*
X151920523Y-91225921D01*
X151920524Y-91225922D01*
X152600000Y-90546446D01*
X152600000Y-90552661D01*
X152627259Y-90654394D01*
X152679920Y-90745606D01*
X152754394Y-90820080D01*
X152845606Y-90872741D01*
X152947339Y-90900000D01*
X152953553Y-90900000D01*
X152274076Y-91579474D01*
X152318650Y-91611859D01*
X152500968Y-91704755D01*
X152695582Y-91767990D01*
X152897683Y-91800000D01*
X153102317Y-91800000D01*
X153304417Y-91767990D01*
X153499031Y-91704755D01*
X153681349Y-91611859D01*
X153725921Y-91579474D01*
X153046447Y-90900000D01*
X153052661Y-90900000D01*
X153154394Y-90872741D01*
X153245606Y-90820080D01*
X153320080Y-90745606D01*
X153372741Y-90654394D01*
X153400000Y-90552661D01*
X153400000Y-90546447D01*
X154079474Y-91225921D01*
X154111859Y-91181349D01*
X154204755Y-90999031D01*
X154267990Y-90804417D01*
X154300000Y-90602317D01*
X154300000Y-90397682D01*
X154267990Y-90195582D01*
X154204755Y-90000968D01*
X154111859Y-89818650D01*
X154079474Y-89774077D01*
X154079474Y-89774076D01*
X153400000Y-90453551D01*
X153400000Y-90447339D01*
X153372741Y-90345606D01*
X153320080Y-90254394D01*
X153245606Y-90179920D01*
X153154394Y-90127259D01*
X153052661Y-90100000D01*
X153046446Y-90100000D01*
X153725921Y-89420524D01*
X153725921Y-89420523D01*
X153681359Y-89388147D01*
X153681350Y-89388141D01*
X153669105Y-89381902D01*
X158499500Y-89381902D01*
X158499500Y-89618097D01*
X158536446Y-89851368D01*
X158609433Y-90075996D01*
X158700332Y-90254394D01*
X158716657Y-90286433D01*
X158855483Y-90477510D01*
X159022490Y-90644517D01*
X159213567Y-90783343D01*
X159312991Y-90834002D01*
X159424003Y-90890566D01*
X159424005Y-90890566D01*
X159424008Y-90890568D01*
X159453037Y-90900000D01*
X159648631Y-90963553D01*
X159881903Y-91000500D01*
X159881908Y-91000500D01*
X160118097Y-91000500D01*
X160351368Y-90963553D01*
X160575992Y-90890568D01*
X160786433Y-90783343D01*
X160977510Y-90644517D01*
X161144517Y-90477510D01*
X161283343Y-90286433D01*
X161390568Y-90075992D01*
X161463553Y-89851368D01*
X161475795Y-89774076D01*
X161500500Y-89618097D01*
X161500500Y-89381902D01*
X164999500Y-89381902D01*
X164999500Y-89618097D01*
X165036446Y-89851368D01*
X165109433Y-90075996D01*
X165200332Y-90254394D01*
X165216657Y-90286433D01*
X165355483Y-90477510D01*
X165522490Y-90644517D01*
X165713567Y-90783343D01*
X165812991Y-90834002D01*
X165924003Y-90890566D01*
X165924005Y-90890566D01*
X165924008Y-90890568D01*
X165953037Y-90900000D01*
X166148631Y-90963553D01*
X166381903Y-91000500D01*
X166381908Y-91000500D01*
X166618097Y-91000500D01*
X166851368Y-90963553D01*
X167075992Y-90890568D01*
X167286433Y-90783343D01*
X167477510Y-90644517D01*
X167644517Y-90477510D01*
X167783343Y-90286433D01*
X167890568Y-90075992D01*
X167963553Y-89851368D01*
X167975795Y-89774076D01*
X168000500Y-89618097D01*
X168000500Y-89381902D01*
X167963553Y-89148631D01*
X167904696Y-88967490D01*
X167890568Y-88924008D01*
X167890566Y-88924005D01*
X167890566Y-88924003D01*
X167783342Y-88713566D01*
X167644517Y-88522490D01*
X167477510Y-88355483D01*
X167286433Y-88216657D01*
X167075996Y-88109433D01*
X166851368Y-88036446D01*
X166618097Y-87999500D01*
X166618092Y-87999500D01*
X166381908Y-87999500D01*
X166381903Y-87999500D01*
X166148631Y-88036446D01*
X165924003Y-88109433D01*
X165713566Y-88216657D01*
X165654980Y-88259223D01*
X165522490Y-88355483D01*
X165522488Y-88355485D01*
X165522487Y-88355485D01*
X165355485Y-88522487D01*
X165355485Y-88522488D01*
X165355483Y-88522490D01*
X165295862Y-88604550D01*
X165216657Y-88713566D01*
X165109433Y-88924003D01*
X165036446Y-89148631D01*
X164999500Y-89381902D01*
X161500500Y-89381902D01*
X161463553Y-89148631D01*
X161404696Y-88967490D01*
X161390568Y-88924008D01*
X161390566Y-88924005D01*
X161390566Y-88924003D01*
X161283342Y-88713566D01*
X161144517Y-88522490D01*
X160977510Y-88355483D01*
X160786433Y-88216657D01*
X160575996Y-88109433D01*
X160351368Y-88036446D01*
X160118097Y-87999500D01*
X160118092Y-87999500D01*
X159881908Y-87999500D01*
X159881903Y-87999500D01*
X159648631Y-88036446D01*
X159424003Y-88109433D01*
X159213566Y-88216657D01*
X159154980Y-88259223D01*
X159022490Y-88355483D01*
X159022488Y-88355485D01*
X159022487Y-88355485D01*
X158855485Y-88522487D01*
X158855485Y-88522488D01*
X158855483Y-88522490D01*
X158795862Y-88604550D01*
X158716657Y-88713566D01*
X158609433Y-88924003D01*
X158536446Y-89148631D01*
X158499500Y-89381902D01*
X153669105Y-89381902D01*
X153499031Y-89295244D01*
X153304417Y-89232009D01*
X153102317Y-89200000D01*
X152897683Y-89200000D01*
X152695582Y-89232009D01*
X152500968Y-89295244D01*
X152318644Y-89388143D01*
X152274077Y-89420523D01*
X152274077Y-89420524D01*
X152953554Y-90100000D01*
X152947339Y-90100000D01*
X152845606Y-90127259D01*
X152754394Y-90179920D01*
X152679920Y-90254394D01*
X152627259Y-90345606D01*
X152600000Y-90447339D01*
X152600000Y-90453553D01*
X151920524Y-89774077D01*
X151920523Y-89774077D01*
X151888143Y-89818644D01*
X151795244Y-90000968D01*
X151732009Y-90195582D01*
X151700000Y-90397682D01*
X149628500Y-90397682D01*
X149628500Y-85397648D01*
X151699500Y-85397648D01*
X151699500Y-85602351D01*
X151731522Y-85804534D01*
X151794781Y-85999223D01*
X151887715Y-86181613D01*
X152008028Y-86347213D01*
X152152786Y-86491971D01*
X152302146Y-86600485D01*
X152318390Y-86612287D01*
X152434607Y-86671503D01*
X152500776Y-86705218D01*
X152500778Y-86705218D01*
X152500781Y-86705220D01*
X152605137Y-86739127D01*
X152695465Y-86768477D01*
X152796557Y-86784488D01*
X152897648Y-86800500D01*
X152897649Y-86800500D01*
X153102351Y-86800500D01*
X153102352Y-86800500D01*
X153304534Y-86768477D01*
X153499219Y-86705220D01*
X153681610Y-86612287D01*
X153784941Y-86537213D01*
X153847213Y-86491971D01*
X153847215Y-86491968D01*
X153847219Y-86491966D01*
X153991966Y-86347219D01*
X153991968Y-86347215D01*
X153991971Y-86347213D01*
X154112286Y-86181611D01*
X154144135Y-86119105D01*
X154144135Y-86119104D01*
X154205218Y-85999223D01*
X154205218Y-85999222D01*
X154205220Y-85999219D01*
X154268477Y-85804534D01*
X154300500Y-85602352D01*
X154300500Y-85397648D01*
X154268477Y-85195466D01*
X154205220Y-85000781D01*
X154205217Y-85000776D01*
X154205216Y-85000771D01*
X154170874Y-84933372D01*
X154170872Y-84933370D01*
X154144671Y-84881947D01*
X158500000Y-84881947D01*
X158500000Y-85118052D01*
X158536934Y-85351247D01*
X158609897Y-85575802D01*
X158717087Y-85786174D01*
X158777338Y-85869104D01*
X158777340Y-85869105D01*
X159476212Y-85170233D01*
X159487482Y-85212292D01*
X159559890Y-85337708D01*
X159662292Y-85440110D01*
X159787708Y-85512518D01*
X159829765Y-85523787D01*
X159130893Y-86222658D01*
X159213828Y-86282914D01*
X159424197Y-86390102D01*
X159648752Y-86463065D01*
X159648751Y-86463065D01*
X159881948Y-86500000D01*
X160118052Y-86500000D01*
X160351247Y-86463065D01*
X160575802Y-86390102D01*
X160786163Y-86282918D01*
X160786169Y-86282914D01*
X160869104Y-86222658D01*
X160869105Y-86222658D01*
X160170233Y-85523787D01*
X160212292Y-85512518D01*
X160337708Y-85440110D01*
X160440110Y-85337708D01*
X160512518Y-85212292D01*
X160523787Y-85170234D01*
X161222658Y-85869105D01*
X161222658Y-85869104D01*
X161282914Y-85786169D01*
X161282918Y-85786163D01*
X161390102Y-85575802D01*
X161463065Y-85351247D01*
X161500000Y-85118052D01*
X161500000Y-84881947D01*
X165000000Y-84881947D01*
X165000000Y-85118052D01*
X165036934Y-85351247D01*
X165109897Y-85575802D01*
X165217087Y-85786174D01*
X165277338Y-85869104D01*
X165277340Y-85869105D01*
X165976212Y-85170233D01*
X165987482Y-85212292D01*
X166059890Y-85337708D01*
X166162292Y-85440110D01*
X166287708Y-85512518D01*
X166329765Y-85523787D01*
X165630893Y-86222658D01*
X165713828Y-86282914D01*
X165924197Y-86390102D01*
X166148752Y-86463065D01*
X166148751Y-86463065D01*
X166381948Y-86500000D01*
X166618052Y-86500000D01*
X166851247Y-86463065D01*
X167075802Y-86390102D01*
X167286163Y-86282918D01*
X167286169Y-86282914D01*
X167369104Y-86222658D01*
X167369105Y-86222658D01*
X166670233Y-85523787D01*
X166712292Y-85512518D01*
X166837708Y-85440110D01*
X166940110Y-85337708D01*
X167012518Y-85212292D01*
X167023787Y-85170234D01*
X167722658Y-85869105D01*
X167722658Y-85869104D01*
X167782914Y-85786169D01*
X167782918Y-85786163D01*
X167890102Y-85575802D01*
X167963065Y-85351247D01*
X168000000Y-85118052D01*
X168000000Y-84881947D01*
X167963065Y-84648752D01*
X167890102Y-84424197D01*
X167782914Y-84213828D01*
X167722658Y-84130894D01*
X167722658Y-84130893D01*
X167023787Y-84829765D01*
X167012518Y-84787708D01*
X166940110Y-84662292D01*
X166837708Y-84559890D01*
X166712292Y-84487482D01*
X166670234Y-84476212D01*
X167369105Y-83777340D01*
X167369104Y-83777338D01*
X167286174Y-83717087D01*
X167075802Y-83609897D01*
X166851247Y-83536934D01*
X166851248Y-83536934D01*
X166618052Y-83500000D01*
X166381948Y-83500000D01*
X166148752Y-83536934D01*
X165924197Y-83609897D01*
X165713830Y-83717084D01*
X165630894Y-83777340D01*
X166329766Y-84476212D01*
X166287708Y-84487482D01*
X166162292Y-84559890D01*
X166059890Y-84662292D01*
X165987482Y-84787708D01*
X165976212Y-84829765D01*
X165277340Y-84130894D01*
X165217084Y-84213830D01*
X165109897Y-84424197D01*
X165036934Y-84648752D01*
X165000000Y-84881947D01*
X161500000Y-84881947D01*
X161463065Y-84648752D01*
X161390102Y-84424197D01*
X161282914Y-84213828D01*
X161222658Y-84130894D01*
X161222658Y-84130893D01*
X160523787Y-84829765D01*
X160512518Y-84787708D01*
X160440110Y-84662292D01*
X160337708Y-84559890D01*
X160212292Y-84487482D01*
X160170234Y-84476212D01*
X160869105Y-83777340D01*
X160869104Y-83777339D01*
X160786174Y-83717087D01*
X160575802Y-83609897D01*
X160351247Y-83536934D01*
X160351248Y-83536934D01*
X160118052Y-83500000D01*
X159881948Y-83500000D01*
X159648752Y-83536934D01*
X159424197Y-83609897D01*
X159213830Y-83717084D01*
X159130894Y-83777340D01*
X159829766Y-84476212D01*
X159787708Y-84487482D01*
X159662292Y-84559890D01*
X159559890Y-84662292D01*
X159487482Y-84787708D01*
X159476212Y-84829766D01*
X158777340Y-84130894D01*
X158717084Y-84213830D01*
X158609897Y-84424197D01*
X158536934Y-84648752D01*
X158500000Y-84881947D01*
X154144671Y-84881947D01*
X154112287Y-84818390D01*
X154112285Y-84818387D01*
X154112284Y-84818385D01*
X153991971Y-84652786D01*
X153847213Y-84508028D01*
X153681613Y-84387715D01*
X153681612Y-84387714D01*
X153681610Y-84387713D01*
X153624653Y-84358691D01*
X153499223Y-84294781D01*
X153304534Y-84231522D01*
X153129995Y-84203878D01*
X153102352Y-84199500D01*
X152897648Y-84199500D01*
X152873329Y-84203351D01*
X152695465Y-84231522D01*
X152500776Y-84294781D01*
X152318386Y-84387715D01*
X152152786Y-84508028D01*
X152008028Y-84652786D01*
X151887715Y-84818386D01*
X151794781Y-85000776D01*
X151731522Y-85195465D01*
X151699500Y-85397648D01*
X149628500Y-85397648D01*
X149628500Y-82427060D01*
X149628501Y-82427047D01*
X149628501Y-82258944D01*
X149607557Y-82180781D01*
X149587577Y-82106216D01*
X149587573Y-82106209D01*
X149508524Y-81969290D01*
X149508518Y-81969282D01*
X149294077Y-81754841D01*
X149260592Y-81693518D01*
X149263827Y-81628842D01*
X149268477Y-81614534D01*
X149300500Y-81412352D01*
X149300500Y-81207648D01*
X149268477Y-81005466D01*
X149205220Y-80810781D01*
X149205218Y-80810778D01*
X149205218Y-80810776D01*
X149171503Y-80744607D01*
X149112287Y-80628390D01*
X149104556Y-80617749D01*
X148991971Y-80462786D01*
X148847213Y-80318028D01*
X148681613Y-80197715D01*
X148681612Y-80197714D01*
X148681610Y-80197713D01*
X148624653Y-80168691D01*
X148499223Y-80104781D01*
X148304534Y-80041522D01*
X148129995Y-80013878D01*
X148102352Y-80009500D01*
X147897648Y-80009500D01*
X147873329Y-80013351D01*
X147695465Y-80041522D01*
X147500776Y-80104781D01*
X147318386Y-80197715D01*
X147152786Y-80318028D01*
X147008028Y-80462786D01*
X146887715Y-80628386D01*
X146794781Y-80810776D01*
X146731522Y-81005465D01*
X146699500Y-81207648D01*
X139743051Y-81207648D01*
X139847213Y-81131971D01*
X139847215Y-81131968D01*
X139847219Y-81131966D01*
X139991966Y-80987219D01*
X139991968Y-80987215D01*
X139991971Y-80987213D01*
X140044732Y-80914590D01*
X140112287Y-80821610D01*
X140205220Y-80639219D01*
X140268477Y-80444534D01*
X140300500Y-80242352D01*
X140300500Y-80037648D01*
X140288764Y-79963553D01*
X140268477Y-79835465D01*
X140205217Y-79640773D01*
X140178588Y-79588511D01*
X140178587Y-79588510D01*
X140157584Y-79547290D01*
X140112287Y-79458390D01*
X140104556Y-79447749D01*
X139991971Y-79292786D01*
X139847213Y-79148028D01*
X139681614Y-79027715D01*
X139625318Y-78999031D01*
X139588917Y-78980483D01*
X139538123Y-78932511D01*
X139521328Y-78864690D01*
X139543865Y-78798555D01*
X139588917Y-78759516D01*
X139681610Y-78712287D01*
X139761294Y-78654394D01*
X139847213Y-78591971D01*
X139847215Y-78591968D01*
X139847219Y-78591966D01*
X139991966Y-78447219D01*
X140027956Y-78397682D01*
X151700000Y-78397682D01*
X151700000Y-78602317D01*
X151732009Y-78804417D01*
X151795244Y-78999031D01*
X151888141Y-79181350D01*
X151888147Y-79181359D01*
X151920523Y-79225921D01*
X151920524Y-79225922D01*
X152600000Y-78546446D01*
X152600000Y-78552661D01*
X152627259Y-78654394D01*
X152679920Y-78745606D01*
X152754394Y-78820080D01*
X152845606Y-78872741D01*
X152947339Y-78900000D01*
X152953553Y-78900000D01*
X152274076Y-79579474D01*
X152318650Y-79611859D01*
X152500968Y-79704755D01*
X152695582Y-79767990D01*
X152897683Y-79800000D01*
X153102317Y-79800000D01*
X153304417Y-79767990D01*
X153499031Y-79704755D01*
X153681349Y-79611859D01*
X153725921Y-79579474D01*
X153046447Y-78900000D01*
X153052661Y-78900000D01*
X153154394Y-78872741D01*
X153245606Y-78820080D01*
X153320080Y-78745606D01*
X153372741Y-78654394D01*
X153400000Y-78552661D01*
X153400000Y-78546447D01*
X154079474Y-79225921D01*
X154111859Y-79181349D01*
X154204755Y-78999031D01*
X154267990Y-78804417D01*
X154300000Y-78602317D01*
X154300000Y-78397688D01*
X154299802Y-78396439D01*
X154299802Y-78396434D01*
X154297500Y-78381902D01*
X158499500Y-78381902D01*
X158499500Y-78618097D01*
X158536446Y-78851368D01*
X158609433Y-79075996D01*
X158685825Y-79225922D01*
X158716657Y-79286433D01*
X158855483Y-79477510D01*
X159022490Y-79644517D01*
X159213567Y-79783343D01*
X159312991Y-79834002D01*
X159424003Y-79890566D01*
X159424005Y-79890566D01*
X159424008Y-79890568D01*
X159544412Y-79929689D01*
X159648631Y-79963553D01*
X159881903Y-80000500D01*
X159881908Y-80000500D01*
X160118097Y-80000500D01*
X160351368Y-79963553D01*
X160575992Y-79890568D01*
X160786433Y-79783343D01*
X160977510Y-79644517D01*
X161144517Y-79477510D01*
X161283343Y-79286433D01*
X161390568Y-79075992D01*
X161463553Y-78851368D01*
X161500500Y-78618097D01*
X161500500Y-78381902D01*
X164999500Y-78381902D01*
X164999500Y-78618097D01*
X165036446Y-78851368D01*
X165109433Y-79075996D01*
X165185825Y-79225922D01*
X165216657Y-79286433D01*
X165355483Y-79477510D01*
X165522490Y-79644517D01*
X165713567Y-79783343D01*
X165812991Y-79834002D01*
X165924003Y-79890566D01*
X165924005Y-79890566D01*
X165924008Y-79890568D01*
X166044412Y-79929689D01*
X166148631Y-79963553D01*
X166381903Y-80000500D01*
X166381908Y-80000500D01*
X166618097Y-80000500D01*
X166851368Y-79963553D01*
X167075992Y-79890568D01*
X167286433Y-79783343D01*
X167477510Y-79644517D01*
X167644517Y-79477510D01*
X167783343Y-79286433D01*
X167890568Y-79075992D01*
X167963553Y-78851368D01*
X168000500Y-78618097D01*
X168000500Y-78381902D01*
X167963553Y-78148631D01*
X167890566Y-77924003D01*
X167783342Y-77713566D01*
X167644517Y-77522490D01*
X167477510Y-77355483D01*
X167286433Y-77216657D01*
X167253742Y-77200000D01*
X167075996Y-77109433D01*
X166851368Y-77036446D01*
X166618097Y-76999500D01*
X166618092Y-76999500D01*
X166381908Y-76999500D01*
X166381903Y-76999500D01*
X166148631Y-77036446D01*
X165924003Y-77109433D01*
X165713566Y-77216657D01*
X165605402Y-77295244D01*
X165522490Y-77355483D01*
X165522488Y-77355485D01*
X165522487Y-77355485D01*
X165355485Y-77522487D01*
X165355485Y-77522488D01*
X165355483Y-77522490D01*
X165295862Y-77604550D01*
X165216657Y-77713566D01*
X165109433Y-77924003D01*
X165036446Y-78148631D01*
X164999500Y-78381902D01*
X161500500Y-78381902D01*
X161463553Y-78148631D01*
X161390566Y-77924003D01*
X161283342Y-77713566D01*
X161144517Y-77522490D01*
X160977510Y-77355483D01*
X160786433Y-77216657D01*
X160753742Y-77200000D01*
X160575996Y-77109433D01*
X160351368Y-77036446D01*
X160118097Y-76999500D01*
X160118092Y-76999500D01*
X159881908Y-76999500D01*
X159881903Y-76999500D01*
X159648631Y-77036446D01*
X159424003Y-77109433D01*
X159213566Y-77216657D01*
X159105402Y-77295244D01*
X159022490Y-77355483D01*
X159022488Y-77355485D01*
X159022487Y-77355485D01*
X158855485Y-77522487D01*
X158855485Y-77522488D01*
X158855483Y-77522490D01*
X158795862Y-77604550D01*
X158716657Y-77713566D01*
X158609433Y-77924003D01*
X158536446Y-78148631D01*
X158499500Y-78381902D01*
X154297500Y-78381902D01*
X154267990Y-78195582D01*
X154204755Y-78000968D01*
X154111859Y-77818650D01*
X154079474Y-77774077D01*
X154079474Y-77774076D01*
X153400000Y-78453551D01*
X153400000Y-78447339D01*
X153372741Y-78345606D01*
X153320080Y-78254394D01*
X153245606Y-78179920D01*
X153154394Y-78127259D01*
X153052661Y-78100000D01*
X153046446Y-78100000D01*
X153725922Y-77420524D01*
X153725921Y-77420523D01*
X153681359Y-77388147D01*
X153681350Y-77388141D01*
X153499031Y-77295244D01*
X153304417Y-77232009D01*
X153102317Y-77200000D01*
X152897683Y-77200000D01*
X152695582Y-77232009D01*
X152500968Y-77295244D01*
X152318644Y-77388143D01*
X152274077Y-77420523D01*
X152274077Y-77420524D01*
X152953554Y-78100000D01*
X152947339Y-78100000D01*
X152845606Y-78127259D01*
X152754394Y-78179920D01*
X152679920Y-78254394D01*
X152627259Y-78345606D01*
X152600000Y-78447339D01*
X152600000Y-78453553D01*
X151920524Y-77774077D01*
X151920523Y-77774077D01*
X151888143Y-77818644D01*
X151795244Y-78000968D01*
X151732009Y-78195582D01*
X151700000Y-78397682D01*
X140027956Y-78397682D01*
X140112287Y-78281610D01*
X140205220Y-78099219D01*
X140268477Y-77904534D01*
X140300500Y-77702352D01*
X140300500Y-77497648D01*
X140268477Y-77295466D01*
X140205220Y-77100781D01*
X140205218Y-77100778D01*
X140205218Y-77100776D01*
X140171503Y-77034607D01*
X140112287Y-76918390D01*
X140104556Y-76907749D01*
X139991971Y-76752786D01*
X139847213Y-76608028D01*
X139681614Y-76487715D01*
X139675006Y-76484348D01*
X139588917Y-76440483D01*
X139538123Y-76392511D01*
X139521328Y-76324690D01*
X139543865Y-76258555D01*
X139588917Y-76219516D01*
X139681610Y-76172287D01*
X139702770Y-76156913D01*
X139847213Y-76051971D01*
X139847215Y-76051968D01*
X139847219Y-76051966D01*
X139991966Y-75907219D01*
X139991968Y-75907215D01*
X139991971Y-75907213D01*
X140044732Y-75834590D01*
X140112287Y-75741610D01*
X140205220Y-75559219D01*
X140268477Y-75364534D01*
X140300500Y-75162352D01*
X140300500Y-74957648D01*
X140268477Y-74755466D01*
X140252150Y-74705218D01*
X140221954Y-74612284D01*
X140205220Y-74560781D01*
X140205218Y-74560778D01*
X140205218Y-74560776D01*
X140143735Y-74440110D01*
X140112287Y-74378390D01*
X140082730Y-74337708D01*
X139991971Y-74212786D01*
X139847213Y-74068028D01*
X139681614Y-73947715D01*
X139642118Y-73927591D01*
X139588917Y-73900483D01*
X139538123Y-73852511D01*
X139521328Y-73784690D01*
X139543865Y-73718555D01*
X139588917Y-73679516D01*
X139681610Y-73632287D01*
X139722814Y-73602351D01*
X139743051Y-73587648D01*
X146699500Y-73587648D01*
X146699500Y-73792352D01*
X146701430Y-73804535D01*
X146731522Y-73994534D01*
X146794781Y-74189223D01*
X146816212Y-74231282D01*
X146885980Y-74368209D01*
X146887715Y-74371613D01*
X147008028Y-74537213D01*
X147152786Y-74681971D01*
X147271854Y-74768477D01*
X147318390Y-74802287D01*
X147434607Y-74861503D01*
X147500776Y-74895218D01*
X147500778Y-74895218D01*
X147500781Y-74895220D01*
X147605137Y-74929127D01*
X147695465Y-74958477D01*
X147796557Y-74974488D01*
X147897648Y-74990500D01*
X147897649Y-74990500D01*
X148102351Y-74990500D01*
X148102352Y-74990500D01*
X148304534Y-74958477D01*
X148499219Y-74895220D01*
X148681610Y-74802287D01*
X148774590Y-74734732D01*
X148847213Y-74681971D01*
X148847215Y-74681968D01*
X148847219Y-74681966D01*
X148991966Y-74537219D01*
X148991968Y-74537215D01*
X148991971Y-74537213D01*
X149062519Y-74440110D01*
X149112287Y-74371610D01*
X149205220Y-74189219D01*
X149268477Y-73994534D01*
X149300500Y-73792352D01*
X149300500Y-73587648D01*
X149270406Y-73397648D01*
X151699500Y-73397648D01*
X151699500Y-73602351D01*
X151731522Y-73804534D01*
X151794781Y-73999223D01*
X151887715Y-74181613D01*
X152008028Y-74347213D01*
X152152786Y-74491971D01*
X152247497Y-74560781D01*
X152318390Y-74612287D01*
X152434607Y-74671503D01*
X152500776Y-74705218D01*
X152500778Y-74705218D01*
X152500781Y-74705220D01*
X152605137Y-74739127D01*
X152695465Y-74768477D01*
X152796557Y-74784488D01*
X152897648Y-74800500D01*
X152897649Y-74800500D01*
X153102351Y-74800500D01*
X153102352Y-74800500D01*
X153304534Y-74768477D01*
X153499219Y-74705220D01*
X153681610Y-74612287D01*
X153784941Y-74537213D01*
X153847213Y-74491971D01*
X153847215Y-74491968D01*
X153847219Y-74491966D01*
X153991966Y-74347219D01*
X153991968Y-74347215D01*
X153991971Y-74347213D01*
X154044732Y-74274590D01*
X154112287Y-74181610D01*
X154205220Y-73999219D01*
X154243324Y-73881947D01*
X158500000Y-73881947D01*
X158500000Y-74118052D01*
X158536934Y-74351247D01*
X158609897Y-74575802D01*
X158717087Y-74786174D01*
X158777338Y-74869104D01*
X158777340Y-74869105D01*
X159476212Y-74170233D01*
X159487482Y-74212292D01*
X159559890Y-74337708D01*
X159662292Y-74440110D01*
X159787708Y-74512518D01*
X159829765Y-74523787D01*
X159130893Y-75222658D01*
X159213828Y-75282914D01*
X159424197Y-75390102D01*
X159648752Y-75463065D01*
X159648751Y-75463065D01*
X159881948Y-75500000D01*
X160118052Y-75500000D01*
X160351247Y-75463065D01*
X160575802Y-75390102D01*
X160786163Y-75282918D01*
X160786169Y-75282914D01*
X160869104Y-75222658D01*
X160869105Y-75222658D01*
X160170233Y-74523787D01*
X160212292Y-74512518D01*
X160337708Y-74440110D01*
X160440110Y-74337708D01*
X160512518Y-74212292D01*
X160523787Y-74170234D01*
X161222658Y-74869105D01*
X161222658Y-74869104D01*
X161282914Y-74786169D01*
X161282918Y-74786163D01*
X161390102Y-74575802D01*
X161463065Y-74351247D01*
X161500000Y-74118052D01*
X161500000Y-73881947D01*
X165000000Y-73881947D01*
X165000000Y-74118052D01*
X165036934Y-74351247D01*
X165109897Y-74575802D01*
X165217087Y-74786174D01*
X165277338Y-74869104D01*
X165277340Y-74869105D01*
X165976212Y-74170233D01*
X165987482Y-74212292D01*
X166059890Y-74337708D01*
X166162292Y-74440110D01*
X166287708Y-74512518D01*
X166329765Y-74523787D01*
X165630893Y-75222658D01*
X165713828Y-75282914D01*
X165924197Y-75390102D01*
X166148752Y-75463065D01*
X166148751Y-75463065D01*
X166381948Y-75500000D01*
X166618052Y-75500000D01*
X166851247Y-75463065D01*
X167075802Y-75390102D01*
X167286163Y-75282918D01*
X167286169Y-75282914D01*
X167369104Y-75222658D01*
X167369105Y-75222658D01*
X166670233Y-74523787D01*
X166712292Y-74512518D01*
X166837708Y-74440110D01*
X166940110Y-74337708D01*
X167012518Y-74212292D01*
X167023787Y-74170234D01*
X167722658Y-74869105D01*
X167722658Y-74869104D01*
X167782914Y-74786169D01*
X167782918Y-74786163D01*
X167890102Y-74575802D01*
X167963065Y-74351247D01*
X168000000Y-74118052D01*
X168000000Y-73881947D01*
X167963065Y-73648752D01*
X167890102Y-73424197D01*
X167782914Y-73213828D01*
X167722658Y-73130894D01*
X167722658Y-73130893D01*
X167023787Y-73829765D01*
X167012518Y-73787708D01*
X166940110Y-73662292D01*
X166837708Y-73559890D01*
X166712292Y-73487482D01*
X166670234Y-73476212D01*
X167369105Y-72777340D01*
X167369104Y-72777338D01*
X167286174Y-72717087D01*
X167075802Y-72609897D01*
X166851247Y-72536934D01*
X166851248Y-72536934D01*
X166618052Y-72500000D01*
X166381948Y-72500000D01*
X166148752Y-72536934D01*
X165924197Y-72609897D01*
X165713830Y-72717084D01*
X165630894Y-72777340D01*
X166329766Y-73476212D01*
X166287708Y-73487482D01*
X166162292Y-73559890D01*
X166059890Y-73662292D01*
X165987482Y-73787708D01*
X165976212Y-73829765D01*
X165277340Y-73130894D01*
X165217084Y-73213830D01*
X165109897Y-73424197D01*
X165036934Y-73648752D01*
X165000000Y-73881947D01*
X161500000Y-73881947D01*
X161463065Y-73648752D01*
X161390102Y-73424197D01*
X161282914Y-73213828D01*
X161222658Y-73130894D01*
X161222658Y-73130893D01*
X160523787Y-73829765D01*
X160512518Y-73787708D01*
X160440110Y-73662292D01*
X160337708Y-73559890D01*
X160212292Y-73487482D01*
X160170234Y-73476212D01*
X160869105Y-72777340D01*
X160869104Y-72777339D01*
X160786174Y-72717087D01*
X160575802Y-72609897D01*
X160351247Y-72536934D01*
X160351248Y-72536934D01*
X160118052Y-72500000D01*
X159881948Y-72500000D01*
X159648752Y-72536934D01*
X159424197Y-72609897D01*
X159213830Y-72717084D01*
X159130894Y-72777340D01*
X159829766Y-73476212D01*
X159787708Y-73487482D01*
X159662292Y-73559890D01*
X159559890Y-73662292D01*
X159487482Y-73787708D01*
X159476212Y-73829766D01*
X158777340Y-73130894D01*
X158717084Y-73213830D01*
X158609897Y-73424197D01*
X158536934Y-73648752D01*
X158500000Y-73881947D01*
X154243324Y-73881947D01*
X154252151Y-73854780D01*
X154257358Y-73838756D01*
X154257358Y-73838755D01*
X154268476Y-73804538D01*
X154268476Y-73804537D01*
X154268477Y-73804534D01*
X154300500Y-73602352D01*
X154300500Y-73397648D01*
X154295680Y-73367217D01*
X154268477Y-73195465D01*
X154205218Y-73000776D01*
X154144134Y-72880894D01*
X154124717Y-72842786D01*
X154112287Y-72818390D01*
X154112285Y-72818387D01*
X154112284Y-72818385D01*
X153991971Y-72652786D01*
X153847213Y-72508028D01*
X153681613Y-72387715D01*
X153681612Y-72387714D01*
X153681610Y-72387713D01*
X153624653Y-72358691D01*
X153499223Y-72294781D01*
X153304534Y-72231522D01*
X153129995Y-72203878D01*
X153102352Y-72199500D01*
X152897648Y-72199500D01*
X152873329Y-72203351D01*
X152695465Y-72231522D01*
X152500776Y-72294781D01*
X152318386Y-72387715D01*
X152152786Y-72508028D01*
X152008028Y-72652786D01*
X151887715Y-72818386D01*
X151794781Y-73000776D01*
X151731522Y-73195465D01*
X151699500Y-73397648D01*
X149270406Y-73397648D01*
X149268477Y-73385466D01*
X149205220Y-73190781D01*
X149205218Y-73190778D01*
X149205218Y-73190776D01*
X149171503Y-73124607D01*
X149112287Y-73008390D01*
X149104556Y-72997749D01*
X148991971Y-72842786D01*
X148847213Y-72698028D01*
X148681613Y-72577715D01*
X148681612Y-72577714D01*
X148681610Y-72577713D01*
X148601577Y-72536934D01*
X148499223Y-72484781D01*
X148304534Y-72421522D01*
X148129995Y-72393878D01*
X148102352Y-72389500D01*
X147897648Y-72389500D01*
X147873329Y-72393351D01*
X147695465Y-72421522D01*
X147500776Y-72484781D01*
X147318386Y-72577715D01*
X147152786Y-72698028D01*
X147008028Y-72842786D01*
X146887715Y-73008386D01*
X146794781Y-73190776D01*
X146731522Y-73385465D01*
X146699500Y-73587648D01*
X139743051Y-73587648D01*
X139847213Y-73511971D01*
X139847215Y-73511968D01*
X139847219Y-73511966D01*
X139991966Y-73367219D01*
X139991968Y-73367215D01*
X139991971Y-73367213D01*
X140044732Y-73294590D01*
X140112287Y-73201610D01*
X140205220Y-73019219D01*
X140268477Y-72824534D01*
X140300500Y-72622352D01*
X140300500Y-72417648D01*
X140295759Y-72387713D01*
X140268477Y-72215465D01*
X140205218Y-72020776D01*
X140171503Y-71954607D01*
X140112287Y-71838390D01*
X140062409Y-71769738D01*
X139991971Y-71672786D01*
X139847213Y-71528028D01*
X139681614Y-71407715D01*
X139650357Y-71391789D01*
X139588917Y-71360483D01*
X139538123Y-71312511D01*
X139521328Y-71244690D01*
X139543865Y-71178555D01*
X139588917Y-71139516D01*
X139681610Y-71092287D01*
X139702770Y-71076913D01*
X139847213Y-70971971D01*
X139847215Y-70971968D01*
X139847219Y-70971966D01*
X139991966Y-70827219D01*
X139991968Y-70827215D01*
X139991971Y-70827213D01*
X140090821Y-70691155D01*
X140112287Y-70661610D01*
X140205220Y-70479219D01*
X140268477Y-70284534D01*
X140300500Y-70082352D01*
X140300500Y-69877648D01*
X140268477Y-69675466D01*
X140205220Y-69480781D01*
X140205218Y-69480778D01*
X140205218Y-69480776D01*
X140171503Y-69414607D01*
X140112287Y-69298390D01*
X140104556Y-69287749D01*
X139991971Y-69132786D01*
X139847213Y-68988028D01*
X139681614Y-68867715D01*
X139675006Y-68864348D01*
X139588917Y-68820483D01*
X139538123Y-68772511D01*
X139521328Y-68704690D01*
X139543865Y-68638555D01*
X139588917Y-68599516D01*
X139681610Y-68552287D01*
X139702770Y-68536913D01*
X139847213Y-68431971D01*
X139847215Y-68431968D01*
X139847219Y-68431966D01*
X139991966Y-68287219D01*
X139991968Y-68287215D01*
X139991971Y-68287213D01*
X140044732Y-68214590D01*
X140112287Y-68121610D01*
X140205220Y-67939219D01*
X140268477Y-67744534D01*
X140300500Y-67542352D01*
X140300500Y-67337648D01*
X140268816Y-67137606D01*
X140268477Y-67135465D01*
X140205218Y-66940776D01*
X140171503Y-66874607D01*
X140112287Y-66758390D01*
X140104556Y-66747749D01*
X139991971Y-66592786D01*
X139847213Y-66448028D01*
X139681613Y-66327715D01*
X139681612Y-66327714D01*
X139681610Y-66327713D01*
X139624653Y-66298691D01*
X139499223Y-66234781D01*
X139304534Y-66171522D01*
X139129995Y-66143878D01*
X139102352Y-66139500D01*
X138897648Y-66139500D01*
X138873329Y-66143351D01*
X138695465Y-66171522D01*
X138500776Y-66234781D01*
X138318386Y-66327715D01*
X138152786Y-66448028D01*
X138008028Y-66592786D01*
X137887715Y-66758386D01*
X137794781Y-66940776D01*
X137731522Y-67135465D01*
X137699500Y-67337648D01*
X125060500Y-67337648D01*
X125028816Y-67137606D01*
X125028477Y-67135465D01*
X124965218Y-66940776D01*
X124931503Y-66874607D01*
X124872287Y-66758390D01*
X124864556Y-66747749D01*
X124751971Y-66592786D01*
X124607213Y-66448028D01*
X124441613Y-66327715D01*
X124441612Y-66327714D01*
X124441610Y-66327713D01*
X124384653Y-66298691D01*
X124259223Y-66234781D01*
X124064534Y-66171522D01*
X123889995Y-66143878D01*
X123862352Y-66139500D01*
X123657648Y-66139500D01*
X123633329Y-66143351D01*
X123455465Y-66171522D01*
X123260776Y-66234781D01*
X123078386Y-66327715D01*
X122912786Y-66448028D01*
X122768028Y-66592786D01*
X122647715Y-66758386D01*
X122554781Y-66940776D01*
X122491522Y-67135465D01*
X122459500Y-67337648D01*
X89500500Y-67337648D01*
X89500500Y-65397648D01*
X144079500Y-65397648D01*
X144079500Y-65602351D01*
X144111522Y-65804534D01*
X144174781Y-65999223D01*
X144206969Y-66062394D01*
X144262573Y-66171523D01*
X144267715Y-66181613D01*
X144388028Y-66347213D01*
X144532786Y-66491971D01*
X144671542Y-66592781D01*
X144698390Y-66612287D01*
X144814607Y-66671503D01*
X144880776Y-66705218D01*
X144880778Y-66705218D01*
X144880781Y-66705220D01*
X144985137Y-66739127D01*
X145075465Y-66768477D01*
X145108404Y-66773694D01*
X145277648Y-66800500D01*
X145277649Y-66800500D01*
X145482351Y-66800500D01*
X145482352Y-66800500D01*
X145684534Y-66768477D01*
X145879219Y-66705220D01*
X146061610Y-66612287D01*
X146160065Y-66540756D01*
X146227213Y-66491971D01*
X146227215Y-66491968D01*
X146227219Y-66491966D01*
X146371966Y-66347219D01*
X146371968Y-66347215D01*
X146371971Y-66347213D01*
X146453657Y-66234780D01*
X146492287Y-66181610D01*
X146585220Y-65999219D01*
X146648477Y-65804534D01*
X146680500Y-65602352D01*
X146680500Y-65397648D01*
X151699500Y-65397648D01*
X151699500Y-65602351D01*
X151731522Y-65804534D01*
X151794781Y-65999223D01*
X151826969Y-66062394D01*
X151882573Y-66171523D01*
X151887715Y-66181613D01*
X152008028Y-66347213D01*
X152152786Y-66491971D01*
X152291542Y-66592781D01*
X152318390Y-66612287D01*
X152434607Y-66671503D01*
X152500776Y-66705218D01*
X152500778Y-66705218D01*
X152500781Y-66705220D01*
X152605137Y-66739127D01*
X152695465Y-66768477D01*
X152728404Y-66773694D01*
X152897648Y-66800500D01*
X152897649Y-66800500D01*
X153102351Y-66800500D01*
X153102352Y-66800500D01*
X153304534Y-66768477D01*
X153499219Y-66705220D01*
X153681610Y-66612287D01*
X153780065Y-66540756D01*
X153847213Y-66491971D01*
X153847215Y-66491968D01*
X153847219Y-66491966D01*
X153849407Y-66489778D01*
X158859500Y-66489778D01*
X158859500Y-66710222D01*
X158867129Y-66758390D01*
X158893985Y-66927952D01*
X158962103Y-67137603D01*
X158962104Y-67137606D01*
X159062187Y-67334025D01*
X159191752Y-67512358D01*
X159191756Y-67512363D01*
X159347636Y-67668243D01*
X159347641Y-67668247D01*
X159503192Y-67781260D01*
X159525978Y-67797815D01*
X159642501Y-67857187D01*
X159722393Y-67897895D01*
X159722396Y-67897896D01*
X159827221Y-67931955D01*
X159932049Y-67966015D01*
X160149778Y-68000500D01*
X160149779Y-68000500D01*
X160370221Y-68000500D01*
X160370222Y-68000500D01*
X160587951Y-67966015D01*
X160797606Y-67897895D01*
X160994022Y-67797815D01*
X161172365Y-67668242D01*
X161222924Y-67617682D01*
X161284245Y-67584198D01*
X161353936Y-67589182D01*
X161409870Y-67631053D01*
X161426786Y-67662030D01*
X161456646Y-67742087D01*
X161456649Y-67742093D01*
X161542809Y-67857187D01*
X161542812Y-67857190D01*
X161657906Y-67943350D01*
X161657913Y-67943354D01*
X161792620Y-67993596D01*
X161792627Y-67993598D01*
X161852155Y-67999999D01*
X161852172Y-68000000D01*
X162550000Y-68000000D01*
X162550000Y-66975277D01*
X162626306Y-67019333D01*
X162740756Y-67050000D01*
X162859244Y-67050000D01*
X162973694Y-67019333D01*
X163050000Y-66975277D01*
X163050000Y-68000000D01*
X163747828Y-68000000D01*
X163747844Y-67999999D01*
X163807372Y-67993598D01*
X163807379Y-67993596D01*
X163942086Y-67943354D01*
X163942093Y-67943350D01*
X164057187Y-67857190D01*
X164057190Y-67857187D01*
X164143350Y-67742093D01*
X164143354Y-67742086D01*
X164193596Y-67607379D01*
X164193598Y-67607372D01*
X164199999Y-67547844D01*
X164200000Y-67547827D01*
X164200000Y-66850000D01*
X163175278Y-66850000D01*
X163219333Y-66773694D01*
X163250000Y-66659244D01*
X163250000Y-66540756D01*
X163219333Y-66426306D01*
X163175278Y-66350000D01*
X164200000Y-66350000D01*
X164200000Y-65652172D01*
X164199999Y-65652155D01*
X164193598Y-65592627D01*
X164193596Y-65592620D01*
X164143354Y-65457913D01*
X164143350Y-65457906D01*
X164057190Y-65342812D01*
X164057187Y-65342809D01*
X163942093Y-65256649D01*
X163942086Y-65256645D01*
X163807379Y-65206403D01*
X163807372Y-65206401D01*
X163747844Y-65200000D01*
X163050000Y-65200000D01*
X163050000Y-66224722D01*
X162973694Y-66180667D01*
X162859244Y-66150000D01*
X162740756Y-66150000D01*
X162626306Y-66180667D01*
X162550000Y-66224722D01*
X162550000Y-65200000D01*
X161852155Y-65200000D01*
X161792627Y-65206401D01*
X161792620Y-65206403D01*
X161657913Y-65256645D01*
X161657906Y-65256649D01*
X161542812Y-65342809D01*
X161542809Y-65342812D01*
X161456649Y-65457906D01*
X161456643Y-65457918D01*
X161426785Y-65537969D01*
X161384914Y-65593903D01*
X161319449Y-65618319D01*
X161251176Y-65603467D01*
X161222923Y-65582316D01*
X161172363Y-65531756D01*
X161172358Y-65531752D01*
X160994025Y-65402187D01*
X160994024Y-65402186D01*
X160994022Y-65402185D01*
X160931096Y-65370122D01*
X160797606Y-65302104D01*
X160797603Y-65302103D01*
X160587952Y-65233985D01*
X160479086Y-65216742D01*
X160370222Y-65199500D01*
X160149778Y-65199500D01*
X160077201Y-65210995D01*
X159932047Y-65233985D01*
X159722396Y-65302103D01*
X159722393Y-65302104D01*
X159525974Y-65402187D01*
X159347641Y-65531752D01*
X159347636Y-65531756D01*
X159191756Y-65687636D01*
X159191752Y-65687641D01*
X159062187Y-65865974D01*
X158962104Y-66062393D01*
X158962103Y-66062396D01*
X158893985Y-66272047D01*
X158882079Y-66347219D01*
X158859500Y-66489778D01*
X153849407Y-66489778D01*
X153991966Y-66347219D01*
X153991968Y-66347215D01*
X153991971Y-66347213D01*
X154073657Y-66234780D01*
X154112287Y-66181610D01*
X154205220Y-65999219D01*
X154268477Y-65804534D01*
X154300500Y-65602352D01*
X154300500Y-65397648D01*
X154268477Y-65195466D01*
X154205220Y-65000781D01*
X154205218Y-65000778D01*
X154205218Y-65000776D01*
X154171503Y-64934607D01*
X154112287Y-64818390D01*
X154104556Y-64807749D01*
X153991971Y-64652786D01*
X153847213Y-64508028D01*
X153681613Y-64387715D01*
X153681612Y-64387714D01*
X153681610Y-64387713D01*
X153571361Y-64331538D01*
X153499223Y-64294781D01*
X153304534Y-64231522D01*
X153129995Y-64203878D01*
X153102352Y-64199500D01*
X152897648Y-64199500D01*
X152873329Y-64203351D01*
X152695465Y-64231522D01*
X152500776Y-64294781D01*
X152318386Y-64387715D01*
X152152786Y-64508028D01*
X152008028Y-64652786D01*
X151887715Y-64818386D01*
X151794781Y-65000776D01*
X151731522Y-65195465D01*
X151699500Y-65397648D01*
X146680500Y-65397648D01*
X146648477Y-65195466D01*
X146585220Y-65000781D01*
X146585218Y-65000778D01*
X146585218Y-65000776D01*
X146551503Y-64934607D01*
X146492287Y-64818390D01*
X146484556Y-64807749D01*
X146371971Y-64652786D01*
X146227213Y-64508028D01*
X146061613Y-64387715D01*
X146061612Y-64387714D01*
X146061610Y-64387713D01*
X145951361Y-64331538D01*
X145879223Y-64294781D01*
X145684534Y-64231522D01*
X145509995Y-64203878D01*
X145482352Y-64199500D01*
X145277648Y-64199500D01*
X145253329Y-64203351D01*
X145075465Y-64231522D01*
X144880776Y-64294781D01*
X144698386Y-64387715D01*
X144532786Y-64508028D01*
X144388028Y-64652786D01*
X144267715Y-64818386D01*
X144174781Y-65000776D01*
X144111522Y-65195465D01*
X144079500Y-65397648D01*
X89500500Y-65397648D01*
X89500500Y-63069701D01*
X100237500Y-63069701D01*
X100237500Y-64070308D01*
X100243821Y-64139875D01*
X100243823Y-64139883D01*
X100293708Y-64299970D01*
X100293709Y-64299972D01*
X100380454Y-64443467D01*
X100380457Y-64443471D01*
X100421717Y-64484731D01*
X101290000Y-63616448D01*
X101290000Y-63622661D01*
X101317259Y-63724394D01*
X101369920Y-63815606D01*
X101444394Y-63890080D01*
X101535606Y-63942741D01*
X101637339Y-63970000D01*
X101643552Y-63970000D01*
X100908551Y-64704998D01*
X100908552Y-64704999D01*
X102471447Y-64704999D01*
X102471447Y-64704998D01*
X101736448Y-63970000D01*
X101742661Y-63970000D01*
X101844394Y-63942741D01*
X101935606Y-63890080D01*
X102010080Y-63815606D01*
X102062741Y-63724394D01*
X102090000Y-63622661D01*
X102090000Y-63616448D01*
X102958283Y-64484731D01*
X102976048Y-64484731D01*
X102998231Y-64472617D01*
X103067923Y-64477599D01*
X103118888Y-64513255D01*
X103121705Y-64516554D01*
X103121714Y-64516566D01*
X103283434Y-64678286D01*
X103468462Y-64812717D01*
X103672242Y-64916548D01*
X103672244Y-64916549D01*
X103889751Y-64987221D01*
X103889752Y-64987221D01*
X103889755Y-64987222D01*
X104115646Y-65023000D01*
X104115647Y-65023000D01*
X104344353Y-65023000D01*
X104344354Y-65023000D01*
X104570245Y-64987222D01*
X104570248Y-64987221D01*
X104570249Y-64987221D01*
X104787755Y-64916549D01*
X104787755Y-64916548D01*
X104787758Y-64916548D01*
X104991538Y-64812717D01*
X105176566Y-64678286D01*
X105338286Y-64516566D01*
X105399683Y-64432059D01*
X105455012Y-64389396D01*
X105524625Y-64383417D01*
X105586420Y-64416023D01*
X105600314Y-64432056D01*
X105661714Y-64516566D01*
X105823434Y-64678286D01*
X106008462Y-64812717D01*
X106212242Y-64916548D01*
X106212244Y-64916549D01*
X106429751Y-64987221D01*
X106429752Y-64987221D01*
X106429755Y-64987222D01*
X106655646Y-65023000D01*
X106655647Y-65023000D01*
X106884353Y-65023000D01*
X106884354Y-65023000D01*
X107110245Y-64987222D01*
X107110248Y-64987221D01*
X107110249Y-64987221D01*
X107327755Y-64916549D01*
X107327755Y-64916548D01*
X107327758Y-64916548D01*
X107531538Y-64812717D01*
X107716566Y-64678286D01*
X107878286Y-64516566D01*
X107939683Y-64432059D01*
X107995012Y-64389396D01*
X108064625Y-64383417D01*
X108126420Y-64416023D01*
X108140314Y-64432056D01*
X108201714Y-64516566D01*
X108363434Y-64678286D01*
X108548462Y-64812717D01*
X108752242Y-64916548D01*
X108752244Y-64916549D01*
X108969751Y-64987221D01*
X108969752Y-64987221D01*
X108969755Y-64987222D01*
X109195646Y-65023000D01*
X109195647Y-65023000D01*
X109424353Y-65023000D01*
X109424354Y-65023000D01*
X109650245Y-64987222D01*
X109650248Y-64987221D01*
X109650249Y-64987221D01*
X109867755Y-64916549D01*
X109867755Y-64916548D01*
X109867758Y-64916548D01*
X110071538Y-64812717D01*
X110256566Y-64678286D01*
X110418286Y-64516566D01*
X110552717Y-64331538D01*
X110656548Y-64127758D01*
X110675215Y-64070308D01*
X110727221Y-63910249D01*
X110727221Y-63910248D01*
X110727222Y-63910245D01*
X110763000Y-63684354D01*
X110763000Y-63455646D01*
X110727222Y-63229755D01*
X110727221Y-63229751D01*
X110727221Y-63229750D01*
X110656549Y-63012244D01*
X110650373Y-63000123D01*
X110552717Y-62808462D01*
X110418286Y-62623434D01*
X110256566Y-62461714D01*
X110071538Y-62327283D01*
X109867755Y-62223450D01*
X109650248Y-62152778D01*
X109480826Y-62125944D01*
X109424354Y-62117000D01*
X109195646Y-62117000D01*
X109120349Y-62128926D01*
X108969753Y-62152778D01*
X108969750Y-62152778D01*
X108752244Y-62223450D01*
X108548461Y-62327283D01*
X108442896Y-62403980D01*
X108363434Y-62461714D01*
X108363432Y-62461716D01*
X108363431Y-62461716D01*
X108201715Y-62623432D01*
X108140318Y-62707938D01*
X108084987Y-62750603D01*
X108015374Y-62756582D01*
X107953579Y-62723976D01*
X107939682Y-62707938D01*
X107908445Y-62664944D01*
X107878286Y-62623434D01*
X107716566Y-62461714D01*
X107531538Y-62327283D01*
X107327755Y-62223450D01*
X107110248Y-62152778D01*
X106940826Y-62125944D01*
X106884354Y-62117000D01*
X106655646Y-62117000D01*
X106580349Y-62128926D01*
X106429753Y-62152778D01*
X106429750Y-62152778D01*
X106212244Y-62223450D01*
X106008461Y-62327283D01*
X105902896Y-62403980D01*
X105823434Y-62461714D01*
X105823432Y-62461716D01*
X105823431Y-62461716D01*
X105661715Y-62623432D01*
X105600318Y-62707938D01*
X105544987Y-62750603D01*
X105475374Y-62756582D01*
X105413579Y-62723976D01*
X105399682Y-62707938D01*
X105368445Y-62664944D01*
X105338286Y-62623434D01*
X105176566Y-62461714D01*
X104991538Y-62327283D01*
X104787755Y-62223450D01*
X104570248Y-62152778D01*
X104400826Y-62125944D01*
X104344354Y-62117000D01*
X104115646Y-62117000D01*
X104040349Y-62128926D01*
X103889753Y-62152778D01*
X103889750Y-62152778D01*
X103672244Y-62223450D01*
X103468461Y-62327283D01*
X103362896Y-62403980D01*
X103283434Y-62461714D01*
X103283432Y-62461716D01*
X103283431Y-62461716D01*
X103121712Y-62623435D01*
X103118876Y-62626756D01*
X103060366Y-62664944D01*
X102990498Y-62665437D01*
X102973222Y-62655269D01*
X102958283Y-62655269D01*
X102090000Y-63523552D01*
X102090000Y-63517339D01*
X102062741Y-63415606D01*
X102010080Y-63324394D01*
X101935606Y-63249920D01*
X101844394Y-63197259D01*
X101742661Y-63170000D01*
X101736449Y-63170000D01*
X102471447Y-62435000D01*
X100908551Y-62435000D01*
X101643552Y-63170000D01*
X101637339Y-63170000D01*
X101535606Y-63197259D01*
X101444394Y-63249920D01*
X101369920Y-63324394D01*
X101317259Y-63415606D01*
X101290000Y-63517339D01*
X101290000Y-63523552D01*
X100421717Y-62655269D01*
X100380457Y-62696528D01*
X100380454Y-62696532D01*
X100293710Y-62840026D01*
X100243822Y-63000123D01*
X100237500Y-63069701D01*
X89500500Y-63069701D01*
X89500500Y-60624500D01*
X89520185Y-60557461D01*
X89572989Y-60511706D01*
X89624500Y-60500500D01*
X170375500Y-60500500D01*
X170442539Y-60520185D01*
G37*
G04 #@! TD.AperFunction*
M02*
