%TF.GenerationSoftware,KiCad,Pcbnew,9.0.2*%
%TF.CreationDate,2025-05-14T19:23:24+05:30*%
%TF.ProjectId,SpO2_project,53704f32-5f70-4726-9f6a-6563742e6b69,rev?*%
%TF.SameCoordinates,Original*%
%TF.FileFunction,Drillmap*%
%TF.FilePolarity,Positive*%
%FSLAX45Y45*%
G04 Gerber Fmt 4.5, Leading zero omitted, Abs format (unit mm)*
G04 Created by KiCad (PCBNEW 9.0.2) date 2025-05-14 19:23:24*
%MOMM*%
%LPD*%
G01*
G04 APERTURE LIST*
%ADD10C,0.038100*%
%ADD11C,0.200000*%
G04 APERTURE END LIST*
D10*
X8900000Y-11000000D02*
X17100000Y-11000000D01*
X8900000Y-6000000D02*
X8900000Y-11000000D01*
X17100000Y-11000000D02*
X17100000Y-6000000D01*
X17100000Y-6000000D02*
X8900000Y-6000000D01*
D11*
X9158872Y-11313389D02*
X9158872Y-11113389D01*
X9158872Y-11113389D02*
X9206491Y-11113389D01*
X9206491Y-11113389D02*
X9235062Y-11122913D01*
X9235062Y-11122913D02*
X9254110Y-11141960D01*
X9254110Y-11141960D02*
X9263634Y-11161008D01*
X9263634Y-11161008D02*
X9273158Y-11199103D01*
X9273158Y-11199103D02*
X9273158Y-11227674D01*
X9273158Y-11227674D02*
X9263634Y-11265770D01*
X9263634Y-11265770D02*
X9254110Y-11284817D01*
X9254110Y-11284817D02*
X9235062Y-11303865D01*
X9235062Y-11303865D02*
X9206491Y-11313389D01*
X9206491Y-11313389D02*
X9158872Y-11313389D01*
X9358872Y-11313389D02*
X9358872Y-11180055D01*
X9358872Y-11218151D02*
X9368396Y-11199103D01*
X9368396Y-11199103D02*
X9377919Y-11189579D01*
X9377919Y-11189579D02*
X9396967Y-11180055D01*
X9396967Y-11180055D02*
X9416015Y-11180055D01*
X9482681Y-11313389D02*
X9482681Y-11180055D01*
X9482681Y-11113389D02*
X9473158Y-11122913D01*
X9473158Y-11122913D02*
X9482681Y-11132436D01*
X9482681Y-11132436D02*
X9492205Y-11122913D01*
X9492205Y-11122913D02*
X9482681Y-11113389D01*
X9482681Y-11113389D02*
X9482681Y-11132436D01*
X9606491Y-11313389D02*
X9587443Y-11303865D01*
X9587443Y-11303865D02*
X9577919Y-11284817D01*
X9577919Y-11284817D02*
X9577919Y-11113389D01*
X9711253Y-11313389D02*
X9692205Y-11303865D01*
X9692205Y-11303865D02*
X9682681Y-11284817D01*
X9682681Y-11284817D02*
X9682681Y-11113389D01*
X9939824Y-11313389D02*
X9939824Y-11113389D01*
X9939824Y-11113389D02*
X10006491Y-11256246D01*
X10006491Y-11256246D02*
X10073158Y-11113389D01*
X10073158Y-11113389D02*
X10073158Y-11313389D01*
X10254110Y-11313389D02*
X10254110Y-11208627D01*
X10254110Y-11208627D02*
X10244586Y-11189579D01*
X10244586Y-11189579D02*
X10225539Y-11180055D01*
X10225539Y-11180055D02*
X10187443Y-11180055D01*
X10187443Y-11180055D02*
X10168396Y-11189579D01*
X10254110Y-11303865D02*
X10235062Y-11313389D01*
X10235062Y-11313389D02*
X10187443Y-11313389D01*
X10187443Y-11313389D02*
X10168396Y-11303865D01*
X10168396Y-11303865D02*
X10158872Y-11284817D01*
X10158872Y-11284817D02*
X10158872Y-11265770D01*
X10158872Y-11265770D02*
X10168396Y-11246722D01*
X10168396Y-11246722D02*
X10187443Y-11237198D01*
X10187443Y-11237198D02*
X10235062Y-11237198D01*
X10235062Y-11237198D02*
X10254110Y-11227674D01*
X10349348Y-11180055D02*
X10349348Y-11380055D01*
X10349348Y-11189579D02*
X10368396Y-11180055D01*
X10368396Y-11180055D02*
X10406491Y-11180055D01*
X10406491Y-11180055D02*
X10425539Y-11189579D01*
X10425539Y-11189579D02*
X10435062Y-11199103D01*
X10435062Y-11199103D02*
X10444586Y-11218151D01*
X10444586Y-11218151D02*
X10444586Y-11275293D01*
X10444586Y-11275293D02*
X10435062Y-11294341D01*
X10435062Y-11294341D02*
X10425539Y-11303865D01*
X10425539Y-11303865D02*
X10406491Y-11313389D01*
X10406491Y-11313389D02*
X10368396Y-11313389D01*
X10368396Y-11313389D02*
X10349348Y-11303865D01*
X10530300Y-11294341D02*
X10539824Y-11303865D01*
X10539824Y-11303865D02*
X10530300Y-11313389D01*
X10530300Y-11313389D02*
X10520777Y-11303865D01*
X10520777Y-11303865D02*
X10530300Y-11294341D01*
X10530300Y-11294341D02*
X10530300Y-11313389D01*
X10530300Y-11189579D02*
X10539824Y-11199103D01*
X10539824Y-11199103D02*
X10530300Y-11208627D01*
X10530300Y-11208627D02*
X10520777Y-11199103D01*
X10520777Y-11199103D02*
X10530300Y-11189579D01*
X10530300Y-11189579D02*
X10530300Y-11208627D01*
M02*
