%TF.GenerationSoftware,KiCad,Pcbnew,9.0.2*%
%TF.CreationDate,2025-05-14T19:23:24+05:30*%
%TF.ProjectId,SpO2_project,53704f32-5f70-4726-9f6a-6563742e6b69,rev?*%
%TF.SameCoordinates,Original*%
%TF.FileFunction,Drillmap*%
%TF.FilePolarity,Positive*%
%FSLAX45Y45*%
G04 Gerber Fmt 4.5, Leading zero omitted, Abs format (unit mm)*
G04 Created by KiCad (PCBNEW 9.0.2) date 2025-05-14 19:23:24*
%MOMM*%
%LPD*%
G01*
G04 APERTURE LIST*
%ADD10C,0.038100*%
%ADD11C,0.200000*%
%ADD12C,0.100000*%
%ADD13C,0.110000*%
G04 APERTURE END LIST*
D10*
X8900000Y-11000000D02*
X17100000Y-11000000D01*
X8900000Y-6000000D02*
X8900000Y-11000000D01*
X17100000Y-11000000D02*
X17100000Y-6000000D01*
X17100000Y-6000000D02*
X8900000Y-6000000D01*
D11*
D12*
X9625000Y-7085000D02*
X9655000Y-7115000D01*
X9655000Y-7085000D02*
X9625000Y-7115000D01*
X10665000Y-7445000D02*
X10695000Y-7475000D01*
X10695000Y-7445000D02*
X10665000Y-7475000D01*
X10916000Y-7062000D02*
X10946000Y-7092000D01*
X10946000Y-7062000D02*
X10916000Y-7092000D01*
X9432000Y-9542000D02*
G75*
G02*
X9352000Y-9542000I-40000J0D01*
G01*
X9352000Y-9542000D02*
G75*
G02*
X9432000Y-9542000I40000J0D01*
G01*
X9686000Y-9542000D02*
G75*
G02*
X9606000Y-9542000I-40000J0D01*
G01*
X9606000Y-9542000D02*
G75*
G02*
X9686000Y-9542000I40000J0D01*
G01*
X9940000Y-9542000D02*
G75*
G02*
X9860000Y-9542000I-40000J0D01*
G01*
X9860000Y-9542000D02*
G75*
G02*
X9940000Y-9542000I40000J0D01*
G01*
X10194000Y-9542000D02*
G75*
G02*
X10114000Y-9542000I-40000J0D01*
G01*
X10114000Y-9542000D02*
G75*
G02*
X10194000Y-9542000I40000J0D01*
G01*
X10209000Y-6357000D02*
G75*
G02*
X10129000Y-6357000I-40000J0D01*
G01*
X10129000Y-6357000D02*
G75*
G02*
X10209000Y-6357000I40000J0D01*
G01*
X10448000Y-9542000D02*
G75*
G02*
X10368000Y-9542000I-40000J0D01*
G01*
X10368000Y-9542000D02*
G75*
G02*
X10448000Y-9542000I40000J0D01*
G01*
X10463000Y-6357000D02*
G75*
G02*
X10383000Y-6357000I-40000J0D01*
G01*
X10383000Y-6357000D02*
G75*
G02*
X10463000Y-6357000I40000J0D01*
G01*
X10717000Y-6357000D02*
G75*
G02*
X10637000Y-6357000I-40000J0D01*
G01*
X10637000Y-6357000D02*
G75*
G02*
X10717000Y-6357000I40000J0D01*
G01*
X10971000Y-6357000D02*
G75*
G02*
X10891000Y-6357000I-40000J0D01*
G01*
X10891000Y-6357000D02*
G75*
G02*
X10971000Y-6357000I40000J0D01*
G01*
X14578000Y-6550000D02*
G75*
G02*
X14498000Y-6550000I-40000J0D01*
G01*
X14498000Y-6550000D02*
G75*
G02*
X14578000Y-6550000I40000J0D01*
G01*
X14840000Y-7369000D02*
G75*
G02*
X14760000Y-7369000I-40000J0D01*
G01*
X14760000Y-7369000D02*
G75*
G02*
X14840000Y-7369000I40000J0D01*
G01*
X14840000Y-8131000D02*
G75*
G02*
X14760000Y-8131000I-40000J0D01*
G01*
X14760000Y-8131000D02*
G75*
G02*
X14840000Y-8131000I40000J0D01*
G01*
X14840000Y-8569000D02*
G75*
G02*
X14760000Y-8569000I-40000J0D01*
G01*
X14760000Y-8569000D02*
G75*
G02*
X14840000Y-8569000I40000J0D01*
G01*
X14840000Y-9331000D02*
G75*
G02*
X14760000Y-9331000I-40000J0D01*
G01*
X14760000Y-9331000D02*
G75*
G02*
X14840000Y-9331000I40000J0D01*
G01*
X14840000Y-9788000D02*
G75*
G02*
X14760000Y-9788000I-40000J0D01*
G01*
X14760000Y-9788000D02*
G75*
G02*
X14840000Y-9788000I40000J0D01*
G01*
X14840000Y-10550000D02*
G75*
G02*
X14760000Y-10550000I-40000J0D01*
G01*
X14760000Y-10550000D02*
G75*
G02*
X14840000Y-10550000I40000J0D01*
G01*
X15340000Y-6550000D02*
G75*
G02*
X15260000Y-6550000I-40000J0D01*
G01*
X15260000Y-6550000D02*
G75*
G02*
X15340000Y-6550000I40000J0D01*
G01*
X15340000Y-7350000D02*
G75*
G02*
X15260000Y-7350000I-40000J0D01*
G01*
X15260000Y-7350000D02*
G75*
G02*
X15340000Y-7350000I40000J0D01*
G01*
X15340000Y-7850000D02*
G75*
G02*
X15260000Y-7850000I-40000J0D01*
G01*
X15260000Y-7850000D02*
G75*
G02*
X15340000Y-7850000I40000J0D01*
G01*
X15340000Y-8550000D02*
G75*
G02*
X15260000Y-8550000I-40000J0D01*
G01*
X15260000Y-8550000D02*
G75*
G02*
X15340000Y-8550000I40000J0D01*
G01*
X15340000Y-9050000D02*
G75*
G02*
X15260000Y-9050000I-40000J0D01*
G01*
X15260000Y-9050000D02*
G75*
G02*
X15340000Y-9050000I40000J0D01*
G01*
X15340000Y-9800000D02*
G75*
G02*
X15260000Y-9800000I-40000J0D01*
G01*
X15260000Y-9800000D02*
G75*
G02*
X15340000Y-9800000I40000J0D01*
G01*
X15340000Y-10300000D02*
G75*
G02*
X15260000Y-10300000I-40000J0D01*
G01*
X15260000Y-10300000D02*
G75*
G02*
X15340000Y-10300000I40000J0D01*
G01*
X16026000Y-6615000D02*
X16026000Y-6705000D01*
X15981000Y-6660000D02*
X16071000Y-6660000D01*
X16280000Y-6615000D02*
X16280000Y-6705000D01*
X16235000Y-6660000D02*
X16325000Y-6660000D01*
X12411356Y-6779356D02*
X12411356Y-6708644D01*
X12340644Y-6708644D01*
X12340644Y-6779356D01*
X12411356Y-6779356D01*
X12411356Y-7033356D02*
X12411356Y-6962644D01*
X12340644Y-6962644D01*
X12340644Y-7033356D01*
X12411356Y-7033356D01*
X12411356Y-7287356D02*
X12411356Y-7216644D01*
X12340644Y-7216644D01*
X12340644Y-7287356D01*
X12411356Y-7287356D01*
X12411356Y-7541356D02*
X12411356Y-7470644D01*
X12340644Y-7470644D01*
X12340644Y-7541356D01*
X12411356Y-7541356D01*
X12411356Y-7795356D02*
X12411356Y-7724644D01*
X12340644Y-7724644D01*
X12340644Y-7795356D01*
X12411356Y-7795356D01*
X12411356Y-8049356D02*
X12411356Y-7978644D01*
X12340644Y-7978644D01*
X12340644Y-8049356D01*
X12411356Y-8049356D01*
X12411356Y-8303356D02*
X12411356Y-8232644D01*
X12340644Y-8232644D01*
X12340644Y-8303356D01*
X12411356Y-8303356D01*
X12411356Y-8557356D02*
X12411356Y-8486644D01*
X12340644Y-8486644D01*
X12340644Y-8557356D01*
X12411356Y-8557356D01*
X12411356Y-8811356D02*
X12411356Y-8740644D01*
X12340644Y-8740644D01*
X12340644Y-8811356D01*
X12411356Y-8811356D01*
X12411356Y-9065356D02*
X12411356Y-8994644D01*
X12340644Y-8994644D01*
X12340644Y-9065356D01*
X12411356Y-9065356D01*
X12411356Y-9319356D02*
X12411356Y-9248644D01*
X12340644Y-9248644D01*
X12340644Y-9319356D01*
X12411356Y-9319356D01*
X12411356Y-9573356D02*
X12411356Y-9502644D01*
X12340644Y-9502644D01*
X12340644Y-9573356D01*
X12411356Y-9573356D01*
X12411356Y-9827356D02*
X12411356Y-9756644D01*
X12340644Y-9756644D01*
X12340644Y-9827356D01*
X12411356Y-9827356D01*
X12411356Y-10081356D02*
X12411356Y-10010644D01*
X12340644Y-10010644D01*
X12340644Y-10081356D01*
X12411356Y-10081356D01*
X12411356Y-10335356D02*
X12411356Y-10264644D01*
X12340644Y-10264644D01*
X12340644Y-10335356D01*
X12411356Y-10335356D01*
X13935356Y-6779356D02*
X13935356Y-6708644D01*
X13864644Y-6708644D01*
X13864644Y-6779356D01*
X13935356Y-6779356D01*
X13935356Y-7033356D02*
X13935356Y-6962644D01*
X13864644Y-6962644D01*
X13864644Y-7033356D01*
X13935356Y-7033356D01*
X13935356Y-7287356D02*
X13935356Y-7216644D01*
X13864644Y-7216644D01*
X13864644Y-7287356D01*
X13935356Y-7287356D01*
X13935356Y-7541356D02*
X13935356Y-7470644D01*
X13864644Y-7470644D01*
X13864644Y-7541356D01*
X13935356Y-7541356D01*
X13935356Y-7795356D02*
X13935356Y-7724644D01*
X13864644Y-7724644D01*
X13864644Y-7795356D01*
X13935356Y-7795356D01*
X13935356Y-8049356D02*
X13935356Y-7978644D01*
X13864644Y-7978644D01*
X13864644Y-8049356D01*
X13935356Y-8049356D01*
X13935356Y-8303356D02*
X13935356Y-8232644D01*
X13864644Y-8232644D01*
X13864644Y-8303356D01*
X13935356Y-8303356D01*
X13935356Y-8557356D02*
X13935356Y-8486644D01*
X13864644Y-8486644D01*
X13864644Y-8557356D01*
X13935356Y-8557356D01*
X13935356Y-8811356D02*
X13935356Y-8740644D01*
X13864644Y-8740644D01*
X13864644Y-8811356D01*
X13935356Y-8811356D01*
X13935356Y-9065356D02*
X13935356Y-8994644D01*
X13864644Y-8994644D01*
X13864644Y-9065356D01*
X13935356Y-9065356D01*
X13935356Y-9319356D02*
X13935356Y-9248644D01*
X13864644Y-9248644D01*
X13864644Y-9319356D01*
X13935356Y-9319356D01*
X13935356Y-9573356D02*
X13935356Y-9502644D01*
X13864644Y-9502644D01*
X13864644Y-9573356D01*
X13935356Y-9573356D01*
X13935356Y-9827356D02*
X13935356Y-9756644D01*
X13864644Y-9756644D01*
X13864644Y-9827356D01*
X13935356Y-9827356D01*
X13935356Y-10081356D02*
X13935356Y-10010644D01*
X13864644Y-10010644D01*
X13864644Y-10081356D01*
X13935356Y-10081356D01*
X13935356Y-10335356D02*
X13935356Y-10264644D01*
X13864644Y-10264644D01*
X13864644Y-10335356D01*
X13935356Y-10335356D01*
D13*
X16000000Y-7455000D02*
X16055000Y-7400000D01*
X16000000Y-7345000D01*
X15945000Y-7400000D01*
X16000000Y-7455000D01*
X16000000Y-7905000D02*
X16055000Y-7850000D01*
X16000000Y-7795000D01*
X15945000Y-7850000D01*
X16000000Y-7905000D01*
X16000000Y-8555000D02*
X16055000Y-8500000D01*
X16000000Y-8445000D01*
X15945000Y-8500000D01*
X16000000Y-8555000D01*
X16000000Y-9005000D02*
X16055000Y-8950000D01*
X16000000Y-8895000D01*
X15945000Y-8950000D01*
X16000000Y-9005000D01*
X16000000Y-9805000D02*
X16055000Y-9750000D01*
X16000000Y-9695000D01*
X15945000Y-9750000D01*
X16000000Y-9805000D01*
X16000000Y-10255000D02*
X16055000Y-10200000D01*
X16000000Y-10145000D01*
X15945000Y-10200000D01*
X16000000Y-10255000D01*
X16650000Y-7455000D02*
X16705000Y-7400000D01*
X16650000Y-7345000D01*
X16595000Y-7400000D01*
X16650000Y-7455000D01*
X16650000Y-7905000D02*
X16705000Y-7850000D01*
X16650000Y-7795000D01*
X16595000Y-7850000D01*
X16650000Y-7905000D01*
X16650000Y-8555000D02*
X16705000Y-8500000D01*
X16650000Y-8445000D01*
X16595000Y-8500000D01*
X16650000Y-8555000D01*
X16650000Y-9005000D02*
X16705000Y-8950000D01*
X16650000Y-8895000D01*
X16595000Y-8950000D01*
X16650000Y-9005000D01*
X16650000Y-9805000D02*
X16705000Y-9750000D01*
X16650000Y-9695000D01*
X16595000Y-9750000D01*
X16650000Y-9805000D01*
X16650000Y-10255000D02*
X16705000Y-10200000D01*
X16650000Y-10145000D01*
X16595000Y-10200000D01*
X16650000Y-10255000D01*
D11*
X9158872Y-11313389D02*
X9158872Y-11113389D01*
X9158872Y-11113389D02*
X9206491Y-11113389D01*
X9206491Y-11113389D02*
X9235062Y-11122913D01*
X9235062Y-11122913D02*
X9254110Y-11141960D01*
X9254110Y-11141960D02*
X9263634Y-11161008D01*
X9263634Y-11161008D02*
X9273158Y-11199103D01*
X9273158Y-11199103D02*
X9273158Y-11227674D01*
X9273158Y-11227674D02*
X9263634Y-11265770D01*
X9263634Y-11265770D02*
X9254110Y-11284817D01*
X9254110Y-11284817D02*
X9235062Y-11303865D01*
X9235062Y-11303865D02*
X9206491Y-11313389D01*
X9206491Y-11313389D02*
X9158872Y-11313389D01*
X9358872Y-11313389D02*
X9358872Y-11180055D01*
X9358872Y-11218151D02*
X9368396Y-11199103D01*
X9368396Y-11199103D02*
X9377919Y-11189579D01*
X9377919Y-11189579D02*
X9396967Y-11180055D01*
X9396967Y-11180055D02*
X9416015Y-11180055D01*
X9482681Y-11313389D02*
X9482681Y-11180055D01*
X9482681Y-11113389D02*
X9473158Y-11122913D01*
X9473158Y-11122913D02*
X9482681Y-11132436D01*
X9482681Y-11132436D02*
X9492205Y-11122913D01*
X9492205Y-11122913D02*
X9482681Y-11113389D01*
X9482681Y-11113389D02*
X9482681Y-11132436D01*
X9606491Y-11313389D02*
X9587443Y-11303865D01*
X9587443Y-11303865D02*
X9577919Y-11284817D01*
X9577919Y-11284817D02*
X9577919Y-11113389D01*
X9711253Y-11313389D02*
X9692205Y-11303865D01*
X9692205Y-11303865D02*
X9682681Y-11284817D01*
X9682681Y-11284817D02*
X9682681Y-11113389D01*
X9939824Y-11313389D02*
X9939824Y-11113389D01*
X9939824Y-11113389D02*
X10006491Y-11256246D01*
X10006491Y-11256246D02*
X10073158Y-11113389D01*
X10073158Y-11113389D02*
X10073158Y-11313389D01*
X10254110Y-11313389D02*
X10254110Y-11208627D01*
X10254110Y-11208627D02*
X10244586Y-11189579D01*
X10244586Y-11189579D02*
X10225539Y-11180055D01*
X10225539Y-11180055D02*
X10187443Y-11180055D01*
X10187443Y-11180055D02*
X10168396Y-11189579D01*
X10254110Y-11303865D02*
X10235062Y-11313389D01*
X10235062Y-11313389D02*
X10187443Y-11313389D01*
X10187443Y-11313389D02*
X10168396Y-11303865D01*
X10168396Y-11303865D02*
X10158872Y-11284817D01*
X10158872Y-11284817D02*
X10158872Y-11265770D01*
X10158872Y-11265770D02*
X10168396Y-11246722D01*
X10168396Y-11246722D02*
X10187443Y-11237198D01*
X10187443Y-11237198D02*
X10235062Y-11237198D01*
X10235062Y-11237198D02*
X10254110Y-11227674D01*
X10349348Y-11180055D02*
X10349348Y-11380055D01*
X10349348Y-11189579D02*
X10368396Y-11180055D01*
X10368396Y-11180055D02*
X10406491Y-11180055D01*
X10406491Y-11180055D02*
X10425539Y-11189579D01*
X10425539Y-11189579D02*
X10435062Y-11199103D01*
X10435062Y-11199103D02*
X10444586Y-11218151D01*
X10444586Y-11218151D02*
X10444586Y-11275293D01*
X10444586Y-11275293D02*
X10435062Y-11294341D01*
X10435062Y-11294341D02*
X10425539Y-11303865D01*
X10425539Y-11303865D02*
X10406491Y-11313389D01*
X10406491Y-11313389D02*
X10368396Y-11313389D01*
X10368396Y-11313389D02*
X10349348Y-11303865D01*
X10530300Y-11294341D02*
X10539824Y-11303865D01*
X10539824Y-11303865D02*
X10530300Y-11313389D01*
X10530300Y-11313389D02*
X10520777Y-11303865D01*
X10520777Y-11303865D02*
X10530300Y-11294341D01*
X10530300Y-11294341D02*
X10530300Y-11313389D01*
X10530300Y-11189579D02*
X10539824Y-11199103D01*
X10539824Y-11199103D02*
X10530300Y-11208627D01*
X10530300Y-11208627D02*
X10520777Y-11199103D01*
X10520777Y-11199103D02*
X10530300Y-11189579D01*
X10530300Y-11189579D02*
X10530300Y-11208627D01*
D12*
X8868095Y-11626905D02*
X8898095Y-11656905D01*
X8898095Y-11626905D02*
X8868095Y-11656905D01*
D11*
X9196967Y-11533389D02*
X9216015Y-11533389D01*
X9216015Y-11533389D02*
X9235062Y-11542913D01*
X9235062Y-11542913D02*
X9244586Y-11552436D01*
X9244586Y-11552436D02*
X9254110Y-11571484D01*
X9254110Y-11571484D02*
X9263634Y-11609579D01*
X9263634Y-11609579D02*
X9263634Y-11657198D01*
X9263634Y-11657198D02*
X9254110Y-11695293D01*
X9254110Y-11695293D02*
X9244586Y-11714341D01*
X9244586Y-11714341D02*
X9235062Y-11723865D01*
X9235062Y-11723865D02*
X9216015Y-11733389D01*
X9216015Y-11733389D02*
X9196967Y-11733389D01*
X9196967Y-11733389D02*
X9177919Y-11723865D01*
X9177919Y-11723865D02*
X9168396Y-11714341D01*
X9168396Y-11714341D02*
X9158872Y-11695293D01*
X9158872Y-11695293D02*
X9149348Y-11657198D01*
X9149348Y-11657198D02*
X9149348Y-11609579D01*
X9149348Y-11609579D02*
X9158872Y-11571484D01*
X9158872Y-11571484D02*
X9168396Y-11552436D01*
X9168396Y-11552436D02*
X9177919Y-11542913D01*
X9177919Y-11542913D02*
X9196967Y-11533389D01*
X9349348Y-11714341D02*
X9358872Y-11723865D01*
X9358872Y-11723865D02*
X9349348Y-11733389D01*
X9349348Y-11733389D02*
X9339824Y-11723865D01*
X9339824Y-11723865D02*
X9349348Y-11714341D01*
X9349348Y-11714341D02*
X9349348Y-11733389D01*
X9425539Y-11533389D02*
X9549348Y-11533389D01*
X9549348Y-11533389D02*
X9482681Y-11609579D01*
X9482681Y-11609579D02*
X9511253Y-11609579D01*
X9511253Y-11609579D02*
X9530300Y-11619103D01*
X9530300Y-11619103D02*
X9539824Y-11628627D01*
X9539824Y-11628627D02*
X9549348Y-11647674D01*
X9549348Y-11647674D02*
X9549348Y-11695293D01*
X9549348Y-11695293D02*
X9539824Y-11714341D01*
X9539824Y-11714341D02*
X9530300Y-11723865D01*
X9530300Y-11723865D02*
X9511253Y-11733389D01*
X9511253Y-11733389D02*
X9454110Y-11733389D01*
X9454110Y-11733389D02*
X9435062Y-11723865D01*
X9435062Y-11723865D02*
X9425539Y-11714341D01*
X9673158Y-11533389D02*
X9692205Y-11533389D01*
X9692205Y-11533389D02*
X9711253Y-11542913D01*
X9711253Y-11542913D02*
X9720777Y-11552436D01*
X9720777Y-11552436D02*
X9730300Y-11571484D01*
X9730300Y-11571484D02*
X9739824Y-11609579D01*
X9739824Y-11609579D02*
X9739824Y-11657198D01*
X9739824Y-11657198D02*
X9730300Y-11695293D01*
X9730300Y-11695293D02*
X9720777Y-11714341D01*
X9720777Y-11714341D02*
X9711253Y-11723865D01*
X9711253Y-11723865D02*
X9692205Y-11733389D01*
X9692205Y-11733389D02*
X9673158Y-11733389D01*
X9673158Y-11733389D02*
X9654110Y-11723865D01*
X9654110Y-11723865D02*
X9644586Y-11714341D01*
X9644586Y-11714341D02*
X9635062Y-11695293D01*
X9635062Y-11695293D02*
X9625539Y-11657198D01*
X9625539Y-11657198D02*
X9625539Y-11609579D01*
X9625539Y-11609579D02*
X9635062Y-11571484D01*
X9635062Y-11571484D02*
X9644586Y-11552436D01*
X9644586Y-11552436D02*
X9654110Y-11542913D01*
X9654110Y-11542913D02*
X9673158Y-11533389D01*
X9863634Y-11533389D02*
X9882681Y-11533389D01*
X9882681Y-11533389D02*
X9901729Y-11542913D01*
X9901729Y-11542913D02*
X9911253Y-11552436D01*
X9911253Y-11552436D02*
X9920777Y-11571484D01*
X9920777Y-11571484D02*
X9930300Y-11609579D01*
X9930300Y-11609579D02*
X9930300Y-11657198D01*
X9930300Y-11657198D02*
X9920777Y-11695293D01*
X9920777Y-11695293D02*
X9911253Y-11714341D01*
X9911253Y-11714341D02*
X9901729Y-11723865D01*
X9901729Y-11723865D02*
X9882681Y-11733389D01*
X9882681Y-11733389D02*
X9863634Y-11733389D01*
X9863634Y-11733389D02*
X9844586Y-11723865D01*
X9844586Y-11723865D02*
X9835062Y-11714341D01*
X9835062Y-11714341D02*
X9825539Y-11695293D01*
X9825539Y-11695293D02*
X9816015Y-11657198D01*
X9816015Y-11657198D02*
X9816015Y-11609579D01*
X9816015Y-11609579D02*
X9825539Y-11571484D01*
X9825539Y-11571484D02*
X9835062Y-11552436D01*
X9835062Y-11552436D02*
X9844586Y-11542913D01*
X9844586Y-11542913D02*
X9863634Y-11533389D01*
X10016015Y-11733389D02*
X10016015Y-11600055D01*
X10016015Y-11619103D02*
X10025539Y-11609579D01*
X10025539Y-11609579D02*
X10044586Y-11600055D01*
X10044586Y-11600055D02*
X10073158Y-11600055D01*
X10073158Y-11600055D02*
X10092205Y-11609579D01*
X10092205Y-11609579D02*
X10101729Y-11628627D01*
X10101729Y-11628627D02*
X10101729Y-11733389D01*
X10101729Y-11628627D02*
X10111253Y-11609579D01*
X10111253Y-11609579D02*
X10130300Y-11600055D01*
X10130300Y-11600055D02*
X10158872Y-11600055D01*
X10158872Y-11600055D02*
X10177920Y-11609579D01*
X10177920Y-11609579D02*
X10187443Y-11628627D01*
X10187443Y-11628627D02*
X10187443Y-11733389D01*
X10282681Y-11733389D02*
X10282681Y-11600055D01*
X10282681Y-11619103D02*
X10292205Y-11609579D01*
X10292205Y-11609579D02*
X10311253Y-11600055D01*
X10311253Y-11600055D02*
X10339824Y-11600055D01*
X10339824Y-11600055D02*
X10358872Y-11609579D01*
X10358872Y-11609579D02*
X10368396Y-11628627D01*
X10368396Y-11628627D02*
X10368396Y-11733389D01*
X10368396Y-11628627D02*
X10377920Y-11609579D01*
X10377920Y-11609579D02*
X10396967Y-11600055D01*
X10396967Y-11600055D02*
X10425539Y-11600055D01*
X10425539Y-11600055D02*
X10444586Y-11609579D01*
X10444586Y-11609579D02*
X10454110Y-11628627D01*
X10454110Y-11628627D02*
X10454110Y-11733389D01*
X10844586Y-11523865D02*
X10673158Y-11781008D01*
X11101729Y-11533389D02*
X11120777Y-11533389D01*
X11120777Y-11533389D02*
X11139824Y-11542913D01*
X11139824Y-11542913D02*
X11149348Y-11552436D01*
X11149348Y-11552436D02*
X11158872Y-11571484D01*
X11158872Y-11571484D02*
X11168396Y-11609579D01*
X11168396Y-11609579D02*
X11168396Y-11657198D01*
X11168396Y-11657198D02*
X11158872Y-11695293D01*
X11158872Y-11695293D02*
X11149348Y-11714341D01*
X11149348Y-11714341D02*
X11139824Y-11723865D01*
X11139824Y-11723865D02*
X11120777Y-11733389D01*
X11120777Y-11733389D02*
X11101729Y-11733389D01*
X11101729Y-11733389D02*
X11082682Y-11723865D01*
X11082682Y-11723865D02*
X11073158Y-11714341D01*
X11073158Y-11714341D02*
X11063634Y-11695293D01*
X11063634Y-11695293D02*
X11054110Y-11657198D01*
X11054110Y-11657198D02*
X11054110Y-11609579D01*
X11054110Y-11609579D02*
X11063634Y-11571484D01*
X11063634Y-11571484D02*
X11073158Y-11552436D01*
X11073158Y-11552436D02*
X11082682Y-11542913D01*
X11082682Y-11542913D02*
X11101729Y-11533389D01*
X11254110Y-11714341D02*
X11263634Y-11723865D01*
X11263634Y-11723865D02*
X11254110Y-11733389D01*
X11254110Y-11733389D02*
X11244586Y-11723865D01*
X11244586Y-11723865D02*
X11254110Y-11714341D01*
X11254110Y-11714341D02*
X11254110Y-11733389D01*
X11387443Y-11533389D02*
X11406491Y-11533389D01*
X11406491Y-11533389D02*
X11425539Y-11542913D01*
X11425539Y-11542913D02*
X11435062Y-11552436D01*
X11435062Y-11552436D02*
X11444586Y-11571484D01*
X11444586Y-11571484D02*
X11454110Y-11609579D01*
X11454110Y-11609579D02*
X11454110Y-11657198D01*
X11454110Y-11657198D02*
X11444586Y-11695293D01*
X11444586Y-11695293D02*
X11435062Y-11714341D01*
X11435062Y-11714341D02*
X11425539Y-11723865D01*
X11425539Y-11723865D02*
X11406491Y-11733389D01*
X11406491Y-11733389D02*
X11387443Y-11733389D01*
X11387443Y-11733389D02*
X11368396Y-11723865D01*
X11368396Y-11723865D02*
X11358872Y-11714341D01*
X11358872Y-11714341D02*
X11349348Y-11695293D01*
X11349348Y-11695293D02*
X11339824Y-11657198D01*
X11339824Y-11657198D02*
X11339824Y-11609579D01*
X11339824Y-11609579D02*
X11349348Y-11571484D01*
X11349348Y-11571484D02*
X11358872Y-11552436D01*
X11358872Y-11552436D02*
X11368396Y-11542913D01*
X11368396Y-11542913D02*
X11387443Y-11533389D01*
X11644586Y-11733389D02*
X11530301Y-11733389D01*
X11587443Y-11733389D02*
X11587443Y-11533389D01*
X11587443Y-11533389D02*
X11568396Y-11561960D01*
X11568396Y-11561960D02*
X11549348Y-11581008D01*
X11549348Y-11581008D02*
X11530301Y-11590532D01*
X11835062Y-11733389D02*
X11720777Y-11733389D01*
X11777920Y-11733389D02*
X11777920Y-11533389D01*
X11777920Y-11533389D02*
X11758872Y-11561960D01*
X11758872Y-11561960D02*
X11739824Y-11581008D01*
X11739824Y-11581008D02*
X11720777Y-11590532D01*
X11949348Y-11619103D02*
X11930301Y-11609579D01*
X11930301Y-11609579D02*
X11920777Y-11600055D01*
X11920777Y-11600055D02*
X11911253Y-11581008D01*
X11911253Y-11581008D02*
X11911253Y-11571484D01*
X11911253Y-11571484D02*
X11920777Y-11552436D01*
X11920777Y-11552436D02*
X11930301Y-11542913D01*
X11930301Y-11542913D02*
X11949348Y-11533389D01*
X11949348Y-11533389D02*
X11987443Y-11533389D01*
X11987443Y-11533389D02*
X12006491Y-11542913D01*
X12006491Y-11542913D02*
X12016015Y-11552436D01*
X12016015Y-11552436D02*
X12025539Y-11571484D01*
X12025539Y-11571484D02*
X12025539Y-11581008D01*
X12025539Y-11581008D02*
X12016015Y-11600055D01*
X12016015Y-11600055D02*
X12006491Y-11609579D01*
X12006491Y-11609579D02*
X11987443Y-11619103D01*
X11987443Y-11619103D02*
X11949348Y-11619103D01*
X11949348Y-11619103D02*
X11930301Y-11628627D01*
X11930301Y-11628627D02*
X11920777Y-11638151D01*
X11920777Y-11638151D02*
X11911253Y-11657198D01*
X11911253Y-11657198D02*
X11911253Y-11695293D01*
X11911253Y-11695293D02*
X11920777Y-11714341D01*
X11920777Y-11714341D02*
X11930301Y-11723865D01*
X11930301Y-11723865D02*
X11949348Y-11733389D01*
X11949348Y-11733389D02*
X11987443Y-11733389D01*
X11987443Y-11733389D02*
X12006491Y-11723865D01*
X12006491Y-11723865D02*
X12016015Y-11714341D01*
X12016015Y-11714341D02*
X12025539Y-11695293D01*
X12025539Y-11695293D02*
X12025539Y-11657198D01*
X12025539Y-11657198D02*
X12016015Y-11638151D01*
X12016015Y-11638151D02*
X12006491Y-11628627D01*
X12006491Y-11628627D02*
X11987443Y-11619103D01*
X12101729Y-11533389D02*
X12101729Y-11571484D01*
X12177920Y-11533389D02*
X12177920Y-11571484D01*
X12473158Y-11809579D02*
X12463634Y-11800055D01*
X12463634Y-11800055D02*
X12444586Y-11771484D01*
X12444586Y-11771484D02*
X12435063Y-11752436D01*
X12435063Y-11752436D02*
X12425539Y-11723865D01*
X12425539Y-11723865D02*
X12416015Y-11676246D01*
X12416015Y-11676246D02*
X12416015Y-11638151D01*
X12416015Y-11638151D02*
X12425539Y-11590532D01*
X12425539Y-11590532D02*
X12435063Y-11561960D01*
X12435063Y-11561960D02*
X12444586Y-11542913D01*
X12444586Y-11542913D02*
X12463634Y-11514341D01*
X12463634Y-11514341D02*
X12473158Y-11504817D01*
X12530301Y-11533389D02*
X12654110Y-11533389D01*
X12654110Y-11533389D02*
X12587443Y-11609579D01*
X12587443Y-11609579D02*
X12616015Y-11609579D01*
X12616015Y-11609579D02*
X12635063Y-11619103D01*
X12635063Y-11619103D02*
X12644586Y-11628627D01*
X12644586Y-11628627D02*
X12654110Y-11647674D01*
X12654110Y-11647674D02*
X12654110Y-11695293D01*
X12654110Y-11695293D02*
X12644586Y-11714341D01*
X12644586Y-11714341D02*
X12635063Y-11723865D01*
X12635063Y-11723865D02*
X12616015Y-11733389D01*
X12616015Y-11733389D02*
X12558872Y-11733389D01*
X12558872Y-11733389D02*
X12539824Y-11723865D01*
X12539824Y-11723865D02*
X12530301Y-11714341D01*
X12892205Y-11733389D02*
X12892205Y-11533389D01*
X12977920Y-11733389D02*
X12977920Y-11628627D01*
X12977920Y-11628627D02*
X12968396Y-11609579D01*
X12968396Y-11609579D02*
X12949348Y-11600055D01*
X12949348Y-11600055D02*
X12920777Y-11600055D01*
X12920777Y-11600055D02*
X12901729Y-11609579D01*
X12901729Y-11609579D02*
X12892205Y-11619103D01*
X13101729Y-11733389D02*
X13082682Y-11723865D01*
X13082682Y-11723865D02*
X13073158Y-11714341D01*
X13073158Y-11714341D02*
X13063634Y-11695293D01*
X13063634Y-11695293D02*
X13063634Y-11638151D01*
X13063634Y-11638151D02*
X13073158Y-11619103D01*
X13073158Y-11619103D02*
X13082682Y-11609579D01*
X13082682Y-11609579D02*
X13101729Y-11600055D01*
X13101729Y-11600055D02*
X13130301Y-11600055D01*
X13130301Y-11600055D02*
X13149348Y-11609579D01*
X13149348Y-11609579D02*
X13158872Y-11619103D01*
X13158872Y-11619103D02*
X13168396Y-11638151D01*
X13168396Y-11638151D02*
X13168396Y-11695293D01*
X13168396Y-11695293D02*
X13158872Y-11714341D01*
X13158872Y-11714341D02*
X13149348Y-11723865D01*
X13149348Y-11723865D02*
X13130301Y-11733389D01*
X13130301Y-11733389D02*
X13101729Y-11733389D01*
X13282682Y-11733389D02*
X13263634Y-11723865D01*
X13263634Y-11723865D02*
X13254110Y-11704817D01*
X13254110Y-11704817D02*
X13254110Y-11533389D01*
X13435063Y-11723865D02*
X13416015Y-11733389D01*
X13416015Y-11733389D02*
X13377920Y-11733389D01*
X13377920Y-11733389D02*
X13358872Y-11723865D01*
X13358872Y-11723865D02*
X13349348Y-11704817D01*
X13349348Y-11704817D02*
X13349348Y-11628627D01*
X13349348Y-11628627D02*
X13358872Y-11609579D01*
X13358872Y-11609579D02*
X13377920Y-11600055D01*
X13377920Y-11600055D02*
X13416015Y-11600055D01*
X13416015Y-11600055D02*
X13435063Y-11609579D01*
X13435063Y-11609579D02*
X13444586Y-11628627D01*
X13444586Y-11628627D02*
X13444586Y-11647674D01*
X13444586Y-11647674D02*
X13349348Y-11666722D01*
X13520777Y-11723865D02*
X13539825Y-11733389D01*
X13539825Y-11733389D02*
X13577920Y-11733389D01*
X13577920Y-11733389D02*
X13596967Y-11723865D01*
X13596967Y-11723865D02*
X13606491Y-11704817D01*
X13606491Y-11704817D02*
X13606491Y-11695293D01*
X13606491Y-11695293D02*
X13596967Y-11676246D01*
X13596967Y-11676246D02*
X13577920Y-11666722D01*
X13577920Y-11666722D02*
X13549348Y-11666722D01*
X13549348Y-11666722D02*
X13530301Y-11657198D01*
X13530301Y-11657198D02*
X13520777Y-11638151D01*
X13520777Y-11638151D02*
X13520777Y-11628627D01*
X13520777Y-11628627D02*
X13530301Y-11609579D01*
X13530301Y-11609579D02*
X13549348Y-11600055D01*
X13549348Y-11600055D02*
X13577920Y-11600055D01*
X13577920Y-11600055D02*
X13596967Y-11609579D01*
X13673158Y-11809579D02*
X13682682Y-11800055D01*
X13682682Y-11800055D02*
X13701729Y-11771484D01*
X13701729Y-11771484D02*
X13711253Y-11752436D01*
X13711253Y-11752436D02*
X13720777Y-11723865D01*
X13720777Y-11723865D02*
X13730301Y-11676246D01*
X13730301Y-11676246D02*
X13730301Y-11638151D01*
X13730301Y-11638151D02*
X13720777Y-11590532D01*
X13720777Y-11590532D02*
X13711253Y-11561960D01*
X13711253Y-11561960D02*
X13701729Y-11542913D01*
X13701729Y-11542913D02*
X13682682Y-11514341D01*
X13682682Y-11514341D02*
X13673158Y-11504817D01*
D12*
X8898095Y-11905905D02*
G75*
G02*
X8818095Y-11905905I-40000J0D01*
G01*
X8818095Y-11905905D02*
G75*
G02*
X8898095Y-11905905I40000J0D01*
G01*
D11*
X9196967Y-11797389D02*
X9216015Y-11797389D01*
X9216015Y-11797389D02*
X9235062Y-11806913D01*
X9235062Y-11806913D02*
X9244586Y-11816436D01*
X9244586Y-11816436D02*
X9254110Y-11835484D01*
X9254110Y-11835484D02*
X9263634Y-11873579D01*
X9263634Y-11873579D02*
X9263634Y-11921198D01*
X9263634Y-11921198D02*
X9254110Y-11959293D01*
X9254110Y-11959293D02*
X9244586Y-11978341D01*
X9244586Y-11978341D02*
X9235062Y-11987865D01*
X9235062Y-11987865D02*
X9216015Y-11997389D01*
X9216015Y-11997389D02*
X9196967Y-11997389D01*
X9196967Y-11997389D02*
X9177919Y-11987865D01*
X9177919Y-11987865D02*
X9168396Y-11978341D01*
X9168396Y-11978341D02*
X9158872Y-11959293D01*
X9158872Y-11959293D02*
X9149348Y-11921198D01*
X9149348Y-11921198D02*
X9149348Y-11873579D01*
X9149348Y-11873579D02*
X9158872Y-11835484D01*
X9158872Y-11835484D02*
X9168396Y-11816436D01*
X9168396Y-11816436D02*
X9177919Y-11806913D01*
X9177919Y-11806913D02*
X9196967Y-11797389D01*
X9349348Y-11978341D02*
X9358872Y-11987865D01*
X9358872Y-11987865D02*
X9349348Y-11997389D01*
X9349348Y-11997389D02*
X9339824Y-11987865D01*
X9339824Y-11987865D02*
X9349348Y-11978341D01*
X9349348Y-11978341D02*
X9349348Y-11997389D01*
X9473158Y-11883103D02*
X9454110Y-11873579D01*
X9454110Y-11873579D02*
X9444586Y-11864055D01*
X9444586Y-11864055D02*
X9435062Y-11845008D01*
X9435062Y-11845008D02*
X9435062Y-11835484D01*
X9435062Y-11835484D02*
X9444586Y-11816436D01*
X9444586Y-11816436D02*
X9454110Y-11806913D01*
X9454110Y-11806913D02*
X9473158Y-11797389D01*
X9473158Y-11797389D02*
X9511253Y-11797389D01*
X9511253Y-11797389D02*
X9530300Y-11806913D01*
X9530300Y-11806913D02*
X9539824Y-11816436D01*
X9539824Y-11816436D02*
X9549348Y-11835484D01*
X9549348Y-11835484D02*
X9549348Y-11845008D01*
X9549348Y-11845008D02*
X9539824Y-11864055D01*
X9539824Y-11864055D02*
X9530300Y-11873579D01*
X9530300Y-11873579D02*
X9511253Y-11883103D01*
X9511253Y-11883103D02*
X9473158Y-11883103D01*
X9473158Y-11883103D02*
X9454110Y-11892627D01*
X9454110Y-11892627D02*
X9444586Y-11902151D01*
X9444586Y-11902151D02*
X9435062Y-11921198D01*
X9435062Y-11921198D02*
X9435062Y-11959293D01*
X9435062Y-11959293D02*
X9444586Y-11978341D01*
X9444586Y-11978341D02*
X9454110Y-11987865D01*
X9454110Y-11987865D02*
X9473158Y-11997389D01*
X9473158Y-11997389D02*
X9511253Y-11997389D01*
X9511253Y-11997389D02*
X9530300Y-11987865D01*
X9530300Y-11987865D02*
X9539824Y-11978341D01*
X9539824Y-11978341D02*
X9549348Y-11959293D01*
X9549348Y-11959293D02*
X9549348Y-11921198D01*
X9549348Y-11921198D02*
X9539824Y-11902151D01*
X9539824Y-11902151D02*
X9530300Y-11892627D01*
X9530300Y-11892627D02*
X9511253Y-11883103D01*
X9673158Y-11797389D02*
X9692205Y-11797389D01*
X9692205Y-11797389D02*
X9711253Y-11806913D01*
X9711253Y-11806913D02*
X9720777Y-11816436D01*
X9720777Y-11816436D02*
X9730300Y-11835484D01*
X9730300Y-11835484D02*
X9739824Y-11873579D01*
X9739824Y-11873579D02*
X9739824Y-11921198D01*
X9739824Y-11921198D02*
X9730300Y-11959293D01*
X9730300Y-11959293D02*
X9720777Y-11978341D01*
X9720777Y-11978341D02*
X9711253Y-11987865D01*
X9711253Y-11987865D02*
X9692205Y-11997389D01*
X9692205Y-11997389D02*
X9673158Y-11997389D01*
X9673158Y-11997389D02*
X9654110Y-11987865D01*
X9654110Y-11987865D02*
X9644586Y-11978341D01*
X9644586Y-11978341D02*
X9635062Y-11959293D01*
X9635062Y-11959293D02*
X9625539Y-11921198D01*
X9625539Y-11921198D02*
X9625539Y-11873579D01*
X9625539Y-11873579D02*
X9635062Y-11835484D01*
X9635062Y-11835484D02*
X9644586Y-11816436D01*
X9644586Y-11816436D02*
X9654110Y-11806913D01*
X9654110Y-11806913D02*
X9673158Y-11797389D01*
X9863634Y-11797389D02*
X9882681Y-11797389D01*
X9882681Y-11797389D02*
X9901729Y-11806913D01*
X9901729Y-11806913D02*
X9911253Y-11816436D01*
X9911253Y-11816436D02*
X9920777Y-11835484D01*
X9920777Y-11835484D02*
X9930300Y-11873579D01*
X9930300Y-11873579D02*
X9930300Y-11921198D01*
X9930300Y-11921198D02*
X9920777Y-11959293D01*
X9920777Y-11959293D02*
X9911253Y-11978341D01*
X9911253Y-11978341D02*
X9901729Y-11987865D01*
X9901729Y-11987865D02*
X9882681Y-11997389D01*
X9882681Y-11997389D02*
X9863634Y-11997389D01*
X9863634Y-11997389D02*
X9844586Y-11987865D01*
X9844586Y-11987865D02*
X9835062Y-11978341D01*
X9835062Y-11978341D02*
X9825539Y-11959293D01*
X9825539Y-11959293D02*
X9816015Y-11921198D01*
X9816015Y-11921198D02*
X9816015Y-11873579D01*
X9816015Y-11873579D02*
X9825539Y-11835484D01*
X9825539Y-11835484D02*
X9835062Y-11816436D01*
X9835062Y-11816436D02*
X9844586Y-11806913D01*
X9844586Y-11806913D02*
X9863634Y-11797389D01*
X10016015Y-11997389D02*
X10016015Y-11864055D01*
X10016015Y-11883103D02*
X10025539Y-11873579D01*
X10025539Y-11873579D02*
X10044586Y-11864055D01*
X10044586Y-11864055D02*
X10073158Y-11864055D01*
X10073158Y-11864055D02*
X10092205Y-11873579D01*
X10092205Y-11873579D02*
X10101729Y-11892627D01*
X10101729Y-11892627D02*
X10101729Y-11997389D01*
X10101729Y-11892627D02*
X10111253Y-11873579D01*
X10111253Y-11873579D02*
X10130300Y-11864055D01*
X10130300Y-11864055D02*
X10158872Y-11864055D01*
X10158872Y-11864055D02*
X10177920Y-11873579D01*
X10177920Y-11873579D02*
X10187443Y-11892627D01*
X10187443Y-11892627D02*
X10187443Y-11997389D01*
X10282681Y-11997389D02*
X10282681Y-11864055D01*
X10282681Y-11883103D02*
X10292205Y-11873579D01*
X10292205Y-11873579D02*
X10311253Y-11864055D01*
X10311253Y-11864055D02*
X10339824Y-11864055D01*
X10339824Y-11864055D02*
X10358872Y-11873579D01*
X10358872Y-11873579D02*
X10368396Y-11892627D01*
X10368396Y-11892627D02*
X10368396Y-11997389D01*
X10368396Y-11892627D02*
X10377920Y-11873579D01*
X10377920Y-11873579D02*
X10396967Y-11864055D01*
X10396967Y-11864055D02*
X10425539Y-11864055D01*
X10425539Y-11864055D02*
X10444586Y-11873579D01*
X10444586Y-11873579D02*
X10454110Y-11892627D01*
X10454110Y-11892627D02*
X10454110Y-11997389D01*
X10844586Y-11787865D02*
X10673158Y-12045008D01*
X11101729Y-11797389D02*
X11120777Y-11797389D01*
X11120777Y-11797389D02*
X11139824Y-11806913D01*
X11139824Y-11806913D02*
X11149348Y-11816436D01*
X11149348Y-11816436D02*
X11158872Y-11835484D01*
X11158872Y-11835484D02*
X11168396Y-11873579D01*
X11168396Y-11873579D02*
X11168396Y-11921198D01*
X11168396Y-11921198D02*
X11158872Y-11959293D01*
X11158872Y-11959293D02*
X11149348Y-11978341D01*
X11149348Y-11978341D02*
X11139824Y-11987865D01*
X11139824Y-11987865D02*
X11120777Y-11997389D01*
X11120777Y-11997389D02*
X11101729Y-11997389D01*
X11101729Y-11997389D02*
X11082682Y-11987865D01*
X11082682Y-11987865D02*
X11073158Y-11978341D01*
X11073158Y-11978341D02*
X11063634Y-11959293D01*
X11063634Y-11959293D02*
X11054110Y-11921198D01*
X11054110Y-11921198D02*
X11054110Y-11873579D01*
X11054110Y-11873579D02*
X11063634Y-11835484D01*
X11063634Y-11835484D02*
X11073158Y-11816436D01*
X11073158Y-11816436D02*
X11082682Y-11806913D01*
X11082682Y-11806913D02*
X11101729Y-11797389D01*
X11254110Y-11978341D02*
X11263634Y-11987865D01*
X11263634Y-11987865D02*
X11254110Y-11997389D01*
X11254110Y-11997389D02*
X11244586Y-11987865D01*
X11244586Y-11987865D02*
X11254110Y-11978341D01*
X11254110Y-11978341D02*
X11254110Y-11997389D01*
X11387443Y-11797389D02*
X11406491Y-11797389D01*
X11406491Y-11797389D02*
X11425539Y-11806913D01*
X11425539Y-11806913D02*
X11435062Y-11816436D01*
X11435062Y-11816436D02*
X11444586Y-11835484D01*
X11444586Y-11835484D02*
X11454110Y-11873579D01*
X11454110Y-11873579D02*
X11454110Y-11921198D01*
X11454110Y-11921198D02*
X11444586Y-11959293D01*
X11444586Y-11959293D02*
X11435062Y-11978341D01*
X11435062Y-11978341D02*
X11425539Y-11987865D01*
X11425539Y-11987865D02*
X11406491Y-11997389D01*
X11406491Y-11997389D02*
X11387443Y-11997389D01*
X11387443Y-11997389D02*
X11368396Y-11987865D01*
X11368396Y-11987865D02*
X11358872Y-11978341D01*
X11358872Y-11978341D02*
X11349348Y-11959293D01*
X11349348Y-11959293D02*
X11339824Y-11921198D01*
X11339824Y-11921198D02*
X11339824Y-11873579D01*
X11339824Y-11873579D02*
X11349348Y-11835484D01*
X11349348Y-11835484D02*
X11358872Y-11816436D01*
X11358872Y-11816436D02*
X11368396Y-11806913D01*
X11368396Y-11806913D02*
X11387443Y-11797389D01*
X11520777Y-11797389D02*
X11644586Y-11797389D01*
X11644586Y-11797389D02*
X11577920Y-11873579D01*
X11577920Y-11873579D02*
X11606491Y-11873579D01*
X11606491Y-11873579D02*
X11625539Y-11883103D01*
X11625539Y-11883103D02*
X11635062Y-11892627D01*
X11635062Y-11892627D02*
X11644586Y-11911674D01*
X11644586Y-11911674D02*
X11644586Y-11959293D01*
X11644586Y-11959293D02*
X11635062Y-11978341D01*
X11635062Y-11978341D02*
X11625539Y-11987865D01*
X11625539Y-11987865D02*
X11606491Y-11997389D01*
X11606491Y-11997389D02*
X11549348Y-11997389D01*
X11549348Y-11997389D02*
X11530301Y-11987865D01*
X11530301Y-11987865D02*
X11520777Y-11978341D01*
X11835062Y-11997389D02*
X11720777Y-11997389D01*
X11777920Y-11997389D02*
X11777920Y-11797389D01*
X11777920Y-11797389D02*
X11758872Y-11825960D01*
X11758872Y-11825960D02*
X11739824Y-11845008D01*
X11739824Y-11845008D02*
X11720777Y-11854532D01*
X12016015Y-11797389D02*
X11920777Y-11797389D01*
X11920777Y-11797389D02*
X11911253Y-11892627D01*
X11911253Y-11892627D02*
X11920777Y-11883103D01*
X11920777Y-11883103D02*
X11939824Y-11873579D01*
X11939824Y-11873579D02*
X11987443Y-11873579D01*
X11987443Y-11873579D02*
X12006491Y-11883103D01*
X12006491Y-11883103D02*
X12016015Y-11892627D01*
X12016015Y-11892627D02*
X12025539Y-11911674D01*
X12025539Y-11911674D02*
X12025539Y-11959293D01*
X12025539Y-11959293D02*
X12016015Y-11978341D01*
X12016015Y-11978341D02*
X12006491Y-11987865D01*
X12006491Y-11987865D02*
X11987443Y-11997389D01*
X11987443Y-11997389D02*
X11939824Y-11997389D01*
X11939824Y-11997389D02*
X11920777Y-11987865D01*
X11920777Y-11987865D02*
X11911253Y-11978341D01*
X12101729Y-11797389D02*
X12101729Y-11835484D01*
X12177920Y-11797389D02*
X12177920Y-11835484D01*
X12473158Y-12073579D02*
X12463634Y-12064055D01*
X12463634Y-12064055D02*
X12444586Y-12035484D01*
X12444586Y-12035484D02*
X12435063Y-12016436D01*
X12435063Y-12016436D02*
X12425539Y-11987865D01*
X12425539Y-11987865D02*
X12416015Y-11940246D01*
X12416015Y-11940246D02*
X12416015Y-11902151D01*
X12416015Y-11902151D02*
X12425539Y-11854532D01*
X12425539Y-11854532D02*
X12435063Y-11825960D01*
X12435063Y-11825960D02*
X12444586Y-11806913D01*
X12444586Y-11806913D02*
X12463634Y-11778341D01*
X12463634Y-11778341D02*
X12473158Y-11768817D01*
X12539824Y-11816436D02*
X12549348Y-11806913D01*
X12549348Y-11806913D02*
X12568396Y-11797389D01*
X12568396Y-11797389D02*
X12616015Y-11797389D01*
X12616015Y-11797389D02*
X12635063Y-11806913D01*
X12635063Y-11806913D02*
X12644586Y-11816436D01*
X12644586Y-11816436D02*
X12654110Y-11835484D01*
X12654110Y-11835484D02*
X12654110Y-11854532D01*
X12654110Y-11854532D02*
X12644586Y-11883103D01*
X12644586Y-11883103D02*
X12530301Y-11997389D01*
X12530301Y-11997389D02*
X12654110Y-11997389D01*
X12720777Y-11797389D02*
X12844586Y-11797389D01*
X12844586Y-11797389D02*
X12777920Y-11873579D01*
X12777920Y-11873579D02*
X12806491Y-11873579D01*
X12806491Y-11873579D02*
X12825539Y-11883103D01*
X12825539Y-11883103D02*
X12835063Y-11892627D01*
X12835063Y-11892627D02*
X12844586Y-11911674D01*
X12844586Y-11911674D02*
X12844586Y-11959293D01*
X12844586Y-11959293D02*
X12835063Y-11978341D01*
X12835063Y-11978341D02*
X12825539Y-11987865D01*
X12825539Y-11987865D02*
X12806491Y-11997389D01*
X12806491Y-11997389D02*
X12749348Y-11997389D01*
X12749348Y-11997389D02*
X12730301Y-11987865D01*
X12730301Y-11987865D02*
X12720777Y-11978341D01*
X13082682Y-11997389D02*
X13082682Y-11797389D01*
X13168396Y-11997389D02*
X13168396Y-11892627D01*
X13168396Y-11892627D02*
X13158872Y-11873579D01*
X13158872Y-11873579D02*
X13139825Y-11864055D01*
X13139825Y-11864055D02*
X13111253Y-11864055D01*
X13111253Y-11864055D02*
X13092205Y-11873579D01*
X13092205Y-11873579D02*
X13082682Y-11883103D01*
X13292205Y-11997389D02*
X13273158Y-11987865D01*
X13273158Y-11987865D02*
X13263634Y-11978341D01*
X13263634Y-11978341D02*
X13254110Y-11959293D01*
X13254110Y-11959293D02*
X13254110Y-11902151D01*
X13254110Y-11902151D02*
X13263634Y-11883103D01*
X13263634Y-11883103D02*
X13273158Y-11873579D01*
X13273158Y-11873579D02*
X13292205Y-11864055D01*
X13292205Y-11864055D02*
X13320777Y-11864055D01*
X13320777Y-11864055D02*
X13339825Y-11873579D01*
X13339825Y-11873579D02*
X13349348Y-11883103D01*
X13349348Y-11883103D02*
X13358872Y-11902151D01*
X13358872Y-11902151D02*
X13358872Y-11959293D01*
X13358872Y-11959293D02*
X13349348Y-11978341D01*
X13349348Y-11978341D02*
X13339825Y-11987865D01*
X13339825Y-11987865D02*
X13320777Y-11997389D01*
X13320777Y-11997389D02*
X13292205Y-11997389D01*
X13473158Y-11997389D02*
X13454110Y-11987865D01*
X13454110Y-11987865D02*
X13444586Y-11968817D01*
X13444586Y-11968817D02*
X13444586Y-11797389D01*
X13625539Y-11987865D02*
X13606491Y-11997389D01*
X13606491Y-11997389D02*
X13568396Y-11997389D01*
X13568396Y-11997389D02*
X13549348Y-11987865D01*
X13549348Y-11987865D02*
X13539825Y-11968817D01*
X13539825Y-11968817D02*
X13539825Y-11892627D01*
X13539825Y-11892627D02*
X13549348Y-11873579D01*
X13549348Y-11873579D02*
X13568396Y-11864055D01*
X13568396Y-11864055D02*
X13606491Y-11864055D01*
X13606491Y-11864055D02*
X13625539Y-11873579D01*
X13625539Y-11873579D02*
X13635063Y-11892627D01*
X13635063Y-11892627D02*
X13635063Y-11911674D01*
X13635063Y-11911674D02*
X13539825Y-11930722D01*
X13711253Y-11987865D02*
X13730301Y-11997389D01*
X13730301Y-11997389D02*
X13768396Y-11997389D01*
X13768396Y-11997389D02*
X13787444Y-11987865D01*
X13787444Y-11987865D02*
X13796967Y-11968817D01*
X13796967Y-11968817D02*
X13796967Y-11959293D01*
X13796967Y-11959293D02*
X13787444Y-11940246D01*
X13787444Y-11940246D02*
X13768396Y-11930722D01*
X13768396Y-11930722D02*
X13739825Y-11930722D01*
X13739825Y-11930722D02*
X13720777Y-11921198D01*
X13720777Y-11921198D02*
X13711253Y-11902151D01*
X13711253Y-11902151D02*
X13711253Y-11892627D01*
X13711253Y-11892627D02*
X13720777Y-11873579D01*
X13720777Y-11873579D02*
X13739825Y-11864055D01*
X13739825Y-11864055D02*
X13768396Y-11864055D01*
X13768396Y-11864055D02*
X13787444Y-11873579D01*
X13863634Y-12073579D02*
X13873158Y-12064055D01*
X13873158Y-12064055D02*
X13892206Y-12035484D01*
X13892206Y-12035484D02*
X13901729Y-12016436D01*
X13901729Y-12016436D02*
X13911253Y-11987865D01*
X13911253Y-11987865D02*
X13920777Y-11940246D01*
X13920777Y-11940246D02*
X13920777Y-11902151D01*
X13920777Y-11902151D02*
X13911253Y-11854532D01*
X13911253Y-11854532D02*
X13901729Y-11825960D01*
X13901729Y-11825960D02*
X13892206Y-11806913D01*
X13892206Y-11806913D02*
X13873158Y-11778341D01*
X13873158Y-11778341D02*
X13863634Y-11768817D01*
D12*
X8853095Y-12124905D02*
X8853095Y-12214905D01*
X8808095Y-12169905D02*
X8898095Y-12169905D01*
D11*
X9196967Y-12061389D02*
X9216015Y-12061389D01*
X9216015Y-12061389D02*
X9235062Y-12070913D01*
X9235062Y-12070913D02*
X9244586Y-12080436D01*
X9244586Y-12080436D02*
X9254110Y-12099484D01*
X9254110Y-12099484D02*
X9263634Y-12137579D01*
X9263634Y-12137579D02*
X9263634Y-12185198D01*
X9263634Y-12185198D02*
X9254110Y-12223293D01*
X9254110Y-12223293D02*
X9244586Y-12242341D01*
X9244586Y-12242341D02*
X9235062Y-12251865D01*
X9235062Y-12251865D02*
X9216015Y-12261389D01*
X9216015Y-12261389D02*
X9196967Y-12261389D01*
X9196967Y-12261389D02*
X9177919Y-12251865D01*
X9177919Y-12251865D02*
X9168396Y-12242341D01*
X9168396Y-12242341D02*
X9158872Y-12223293D01*
X9158872Y-12223293D02*
X9149348Y-12185198D01*
X9149348Y-12185198D02*
X9149348Y-12137579D01*
X9149348Y-12137579D02*
X9158872Y-12099484D01*
X9158872Y-12099484D02*
X9168396Y-12080436D01*
X9168396Y-12080436D02*
X9177919Y-12070913D01*
X9177919Y-12070913D02*
X9196967Y-12061389D01*
X9349348Y-12242341D02*
X9358872Y-12251865D01*
X9358872Y-12251865D02*
X9349348Y-12261389D01*
X9349348Y-12261389D02*
X9339824Y-12251865D01*
X9339824Y-12251865D02*
X9349348Y-12242341D01*
X9349348Y-12242341D02*
X9349348Y-12261389D01*
X9454110Y-12261389D02*
X9492205Y-12261389D01*
X9492205Y-12261389D02*
X9511253Y-12251865D01*
X9511253Y-12251865D02*
X9520777Y-12242341D01*
X9520777Y-12242341D02*
X9539824Y-12213770D01*
X9539824Y-12213770D02*
X9549348Y-12175674D01*
X9549348Y-12175674D02*
X9549348Y-12099484D01*
X9549348Y-12099484D02*
X9539824Y-12080436D01*
X9539824Y-12080436D02*
X9530300Y-12070913D01*
X9530300Y-12070913D02*
X9511253Y-12061389D01*
X9511253Y-12061389D02*
X9473158Y-12061389D01*
X9473158Y-12061389D02*
X9454110Y-12070913D01*
X9454110Y-12070913D02*
X9444586Y-12080436D01*
X9444586Y-12080436D02*
X9435062Y-12099484D01*
X9435062Y-12099484D02*
X9435062Y-12147103D01*
X9435062Y-12147103D02*
X9444586Y-12166151D01*
X9444586Y-12166151D02*
X9454110Y-12175674D01*
X9454110Y-12175674D02*
X9473158Y-12185198D01*
X9473158Y-12185198D02*
X9511253Y-12185198D01*
X9511253Y-12185198D02*
X9530300Y-12175674D01*
X9530300Y-12175674D02*
X9539824Y-12166151D01*
X9539824Y-12166151D02*
X9549348Y-12147103D01*
X9673158Y-12061389D02*
X9692205Y-12061389D01*
X9692205Y-12061389D02*
X9711253Y-12070913D01*
X9711253Y-12070913D02*
X9720777Y-12080436D01*
X9720777Y-12080436D02*
X9730300Y-12099484D01*
X9730300Y-12099484D02*
X9739824Y-12137579D01*
X9739824Y-12137579D02*
X9739824Y-12185198D01*
X9739824Y-12185198D02*
X9730300Y-12223293D01*
X9730300Y-12223293D02*
X9720777Y-12242341D01*
X9720777Y-12242341D02*
X9711253Y-12251865D01*
X9711253Y-12251865D02*
X9692205Y-12261389D01*
X9692205Y-12261389D02*
X9673158Y-12261389D01*
X9673158Y-12261389D02*
X9654110Y-12251865D01*
X9654110Y-12251865D02*
X9644586Y-12242341D01*
X9644586Y-12242341D02*
X9635062Y-12223293D01*
X9635062Y-12223293D02*
X9625539Y-12185198D01*
X9625539Y-12185198D02*
X9625539Y-12137579D01*
X9625539Y-12137579D02*
X9635062Y-12099484D01*
X9635062Y-12099484D02*
X9644586Y-12080436D01*
X9644586Y-12080436D02*
X9654110Y-12070913D01*
X9654110Y-12070913D02*
X9673158Y-12061389D01*
X9863634Y-12061389D02*
X9882681Y-12061389D01*
X9882681Y-12061389D02*
X9901729Y-12070913D01*
X9901729Y-12070913D02*
X9911253Y-12080436D01*
X9911253Y-12080436D02*
X9920777Y-12099484D01*
X9920777Y-12099484D02*
X9930300Y-12137579D01*
X9930300Y-12137579D02*
X9930300Y-12185198D01*
X9930300Y-12185198D02*
X9920777Y-12223293D01*
X9920777Y-12223293D02*
X9911253Y-12242341D01*
X9911253Y-12242341D02*
X9901729Y-12251865D01*
X9901729Y-12251865D02*
X9882681Y-12261389D01*
X9882681Y-12261389D02*
X9863634Y-12261389D01*
X9863634Y-12261389D02*
X9844586Y-12251865D01*
X9844586Y-12251865D02*
X9835062Y-12242341D01*
X9835062Y-12242341D02*
X9825539Y-12223293D01*
X9825539Y-12223293D02*
X9816015Y-12185198D01*
X9816015Y-12185198D02*
X9816015Y-12137579D01*
X9816015Y-12137579D02*
X9825539Y-12099484D01*
X9825539Y-12099484D02*
X9835062Y-12080436D01*
X9835062Y-12080436D02*
X9844586Y-12070913D01*
X9844586Y-12070913D02*
X9863634Y-12061389D01*
X10016015Y-12261389D02*
X10016015Y-12128055D01*
X10016015Y-12147103D02*
X10025539Y-12137579D01*
X10025539Y-12137579D02*
X10044586Y-12128055D01*
X10044586Y-12128055D02*
X10073158Y-12128055D01*
X10073158Y-12128055D02*
X10092205Y-12137579D01*
X10092205Y-12137579D02*
X10101729Y-12156627D01*
X10101729Y-12156627D02*
X10101729Y-12261389D01*
X10101729Y-12156627D02*
X10111253Y-12137579D01*
X10111253Y-12137579D02*
X10130300Y-12128055D01*
X10130300Y-12128055D02*
X10158872Y-12128055D01*
X10158872Y-12128055D02*
X10177920Y-12137579D01*
X10177920Y-12137579D02*
X10187443Y-12156627D01*
X10187443Y-12156627D02*
X10187443Y-12261389D01*
X10282681Y-12261389D02*
X10282681Y-12128055D01*
X10282681Y-12147103D02*
X10292205Y-12137579D01*
X10292205Y-12137579D02*
X10311253Y-12128055D01*
X10311253Y-12128055D02*
X10339824Y-12128055D01*
X10339824Y-12128055D02*
X10358872Y-12137579D01*
X10358872Y-12137579D02*
X10368396Y-12156627D01*
X10368396Y-12156627D02*
X10368396Y-12261389D01*
X10368396Y-12156627D02*
X10377920Y-12137579D01*
X10377920Y-12137579D02*
X10396967Y-12128055D01*
X10396967Y-12128055D02*
X10425539Y-12128055D01*
X10425539Y-12128055D02*
X10444586Y-12137579D01*
X10444586Y-12137579D02*
X10454110Y-12156627D01*
X10454110Y-12156627D02*
X10454110Y-12261389D01*
X10844586Y-12051865D02*
X10673158Y-12309008D01*
X11101729Y-12061389D02*
X11120777Y-12061389D01*
X11120777Y-12061389D02*
X11139824Y-12070913D01*
X11139824Y-12070913D02*
X11149348Y-12080436D01*
X11149348Y-12080436D02*
X11158872Y-12099484D01*
X11158872Y-12099484D02*
X11168396Y-12137579D01*
X11168396Y-12137579D02*
X11168396Y-12185198D01*
X11168396Y-12185198D02*
X11158872Y-12223293D01*
X11158872Y-12223293D02*
X11149348Y-12242341D01*
X11149348Y-12242341D02*
X11139824Y-12251865D01*
X11139824Y-12251865D02*
X11120777Y-12261389D01*
X11120777Y-12261389D02*
X11101729Y-12261389D01*
X11101729Y-12261389D02*
X11082682Y-12251865D01*
X11082682Y-12251865D02*
X11073158Y-12242341D01*
X11073158Y-12242341D02*
X11063634Y-12223293D01*
X11063634Y-12223293D02*
X11054110Y-12185198D01*
X11054110Y-12185198D02*
X11054110Y-12137579D01*
X11054110Y-12137579D02*
X11063634Y-12099484D01*
X11063634Y-12099484D02*
X11073158Y-12080436D01*
X11073158Y-12080436D02*
X11082682Y-12070913D01*
X11082682Y-12070913D02*
X11101729Y-12061389D01*
X11254110Y-12242341D02*
X11263634Y-12251865D01*
X11263634Y-12251865D02*
X11254110Y-12261389D01*
X11254110Y-12261389D02*
X11244586Y-12251865D01*
X11244586Y-12251865D02*
X11254110Y-12242341D01*
X11254110Y-12242341D02*
X11254110Y-12261389D01*
X11387443Y-12061389D02*
X11406491Y-12061389D01*
X11406491Y-12061389D02*
X11425539Y-12070913D01*
X11425539Y-12070913D02*
X11435062Y-12080436D01*
X11435062Y-12080436D02*
X11444586Y-12099484D01*
X11444586Y-12099484D02*
X11454110Y-12137579D01*
X11454110Y-12137579D02*
X11454110Y-12185198D01*
X11454110Y-12185198D02*
X11444586Y-12223293D01*
X11444586Y-12223293D02*
X11435062Y-12242341D01*
X11435062Y-12242341D02*
X11425539Y-12251865D01*
X11425539Y-12251865D02*
X11406491Y-12261389D01*
X11406491Y-12261389D02*
X11387443Y-12261389D01*
X11387443Y-12261389D02*
X11368396Y-12251865D01*
X11368396Y-12251865D02*
X11358872Y-12242341D01*
X11358872Y-12242341D02*
X11349348Y-12223293D01*
X11349348Y-12223293D02*
X11339824Y-12185198D01*
X11339824Y-12185198D02*
X11339824Y-12137579D01*
X11339824Y-12137579D02*
X11349348Y-12099484D01*
X11349348Y-12099484D02*
X11358872Y-12080436D01*
X11358872Y-12080436D02*
X11368396Y-12070913D01*
X11368396Y-12070913D02*
X11387443Y-12061389D01*
X11520777Y-12061389D02*
X11644586Y-12061389D01*
X11644586Y-12061389D02*
X11577920Y-12137579D01*
X11577920Y-12137579D02*
X11606491Y-12137579D01*
X11606491Y-12137579D02*
X11625539Y-12147103D01*
X11625539Y-12147103D02*
X11635062Y-12156627D01*
X11635062Y-12156627D02*
X11644586Y-12175674D01*
X11644586Y-12175674D02*
X11644586Y-12223293D01*
X11644586Y-12223293D02*
X11635062Y-12242341D01*
X11635062Y-12242341D02*
X11625539Y-12251865D01*
X11625539Y-12251865D02*
X11606491Y-12261389D01*
X11606491Y-12261389D02*
X11549348Y-12261389D01*
X11549348Y-12261389D02*
X11530301Y-12251865D01*
X11530301Y-12251865D02*
X11520777Y-12242341D01*
X11825539Y-12061389D02*
X11730301Y-12061389D01*
X11730301Y-12061389D02*
X11720777Y-12156627D01*
X11720777Y-12156627D02*
X11730301Y-12147103D01*
X11730301Y-12147103D02*
X11749348Y-12137579D01*
X11749348Y-12137579D02*
X11796967Y-12137579D01*
X11796967Y-12137579D02*
X11816015Y-12147103D01*
X11816015Y-12147103D02*
X11825539Y-12156627D01*
X11825539Y-12156627D02*
X11835062Y-12175674D01*
X11835062Y-12175674D02*
X11835062Y-12223293D01*
X11835062Y-12223293D02*
X11825539Y-12242341D01*
X11825539Y-12242341D02*
X11816015Y-12251865D01*
X11816015Y-12251865D02*
X11796967Y-12261389D01*
X11796967Y-12261389D02*
X11749348Y-12261389D01*
X11749348Y-12261389D02*
X11730301Y-12251865D01*
X11730301Y-12251865D02*
X11720777Y-12242341D01*
X12006491Y-12128055D02*
X12006491Y-12261389D01*
X11958872Y-12051865D02*
X11911253Y-12194722D01*
X11911253Y-12194722D02*
X12035062Y-12194722D01*
X12101729Y-12061389D02*
X12101729Y-12099484D01*
X12177920Y-12061389D02*
X12177920Y-12099484D01*
X12473158Y-12337579D02*
X12463634Y-12328055D01*
X12463634Y-12328055D02*
X12444586Y-12299484D01*
X12444586Y-12299484D02*
X12435063Y-12280436D01*
X12435063Y-12280436D02*
X12425539Y-12251865D01*
X12425539Y-12251865D02*
X12416015Y-12204246D01*
X12416015Y-12204246D02*
X12416015Y-12166151D01*
X12416015Y-12166151D02*
X12425539Y-12118532D01*
X12425539Y-12118532D02*
X12435063Y-12089960D01*
X12435063Y-12089960D02*
X12444586Y-12070913D01*
X12444586Y-12070913D02*
X12463634Y-12042341D01*
X12463634Y-12042341D02*
X12473158Y-12032817D01*
X12539824Y-12080436D02*
X12549348Y-12070913D01*
X12549348Y-12070913D02*
X12568396Y-12061389D01*
X12568396Y-12061389D02*
X12616015Y-12061389D01*
X12616015Y-12061389D02*
X12635063Y-12070913D01*
X12635063Y-12070913D02*
X12644586Y-12080436D01*
X12644586Y-12080436D02*
X12654110Y-12099484D01*
X12654110Y-12099484D02*
X12654110Y-12118532D01*
X12654110Y-12118532D02*
X12644586Y-12147103D01*
X12644586Y-12147103D02*
X12530301Y-12261389D01*
X12530301Y-12261389D02*
X12654110Y-12261389D01*
X12892205Y-12261389D02*
X12892205Y-12061389D01*
X12977920Y-12261389D02*
X12977920Y-12156627D01*
X12977920Y-12156627D02*
X12968396Y-12137579D01*
X12968396Y-12137579D02*
X12949348Y-12128055D01*
X12949348Y-12128055D02*
X12920777Y-12128055D01*
X12920777Y-12128055D02*
X12901729Y-12137579D01*
X12901729Y-12137579D02*
X12892205Y-12147103D01*
X13101729Y-12261389D02*
X13082682Y-12251865D01*
X13082682Y-12251865D02*
X13073158Y-12242341D01*
X13073158Y-12242341D02*
X13063634Y-12223293D01*
X13063634Y-12223293D02*
X13063634Y-12166151D01*
X13063634Y-12166151D02*
X13073158Y-12147103D01*
X13073158Y-12147103D02*
X13082682Y-12137579D01*
X13082682Y-12137579D02*
X13101729Y-12128055D01*
X13101729Y-12128055D02*
X13130301Y-12128055D01*
X13130301Y-12128055D02*
X13149348Y-12137579D01*
X13149348Y-12137579D02*
X13158872Y-12147103D01*
X13158872Y-12147103D02*
X13168396Y-12166151D01*
X13168396Y-12166151D02*
X13168396Y-12223293D01*
X13168396Y-12223293D02*
X13158872Y-12242341D01*
X13158872Y-12242341D02*
X13149348Y-12251865D01*
X13149348Y-12251865D02*
X13130301Y-12261389D01*
X13130301Y-12261389D02*
X13101729Y-12261389D01*
X13282682Y-12261389D02*
X13263634Y-12251865D01*
X13263634Y-12251865D02*
X13254110Y-12232817D01*
X13254110Y-12232817D02*
X13254110Y-12061389D01*
X13435063Y-12251865D02*
X13416015Y-12261389D01*
X13416015Y-12261389D02*
X13377920Y-12261389D01*
X13377920Y-12261389D02*
X13358872Y-12251865D01*
X13358872Y-12251865D02*
X13349348Y-12232817D01*
X13349348Y-12232817D02*
X13349348Y-12156627D01*
X13349348Y-12156627D02*
X13358872Y-12137579D01*
X13358872Y-12137579D02*
X13377920Y-12128055D01*
X13377920Y-12128055D02*
X13416015Y-12128055D01*
X13416015Y-12128055D02*
X13435063Y-12137579D01*
X13435063Y-12137579D02*
X13444586Y-12156627D01*
X13444586Y-12156627D02*
X13444586Y-12175674D01*
X13444586Y-12175674D02*
X13349348Y-12194722D01*
X13520777Y-12251865D02*
X13539825Y-12261389D01*
X13539825Y-12261389D02*
X13577920Y-12261389D01*
X13577920Y-12261389D02*
X13596967Y-12251865D01*
X13596967Y-12251865D02*
X13606491Y-12232817D01*
X13606491Y-12232817D02*
X13606491Y-12223293D01*
X13606491Y-12223293D02*
X13596967Y-12204246D01*
X13596967Y-12204246D02*
X13577920Y-12194722D01*
X13577920Y-12194722D02*
X13549348Y-12194722D01*
X13549348Y-12194722D02*
X13530301Y-12185198D01*
X13530301Y-12185198D02*
X13520777Y-12166151D01*
X13520777Y-12166151D02*
X13520777Y-12156627D01*
X13520777Y-12156627D02*
X13530301Y-12137579D01*
X13530301Y-12137579D02*
X13549348Y-12128055D01*
X13549348Y-12128055D02*
X13577920Y-12128055D01*
X13577920Y-12128055D02*
X13596967Y-12137579D01*
X13673158Y-12337579D02*
X13682682Y-12328055D01*
X13682682Y-12328055D02*
X13701729Y-12299484D01*
X13701729Y-12299484D02*
X13711253Y-12280436D01*
X13711253Y-12280436D02*
X13720777Y-12251865D01*
X13720777Y-12251865D02*
X13730301Y-12204246D01*
X13730301Y-12204246D02*
X13730301Y-12166151D01*
X13730301Y-12166151D02*
X13720777Y-12118532D01*
X13720777Y-12118532D02*
X13711253Y-12089960D01*
X13711253Y-12089960D02*
X13701729Y-12070913D01*
X13701729Y-12070913D02*
X13682682Y-12042341D01*
X13682682Y-12042341D02*
X13673158Y-12032817D01*
D12*
X8883451Y-12469261D02*
X8883451Y-12398549D01*
X8812739Y-12398549D01*
X8812739Y-12469261D01*
X8883451Y-12469261D01*
D11*
X9263634Y-12525389D02*
X9149348Y-12525389D01*
X9206491Y-12525389D02*
X9206491Y-12325389D01*
X9206491Y-12325389D02*
X9187443Y-12353960D01*
X9187443Y-12353960D02*
X9168396Y-12373008D01*
X9168396Y-12373008D02*
X9149348Y-12382532D01*
X9349348Y-12506341D02*
X9358872Y-12515865D01*
X9358872Y-12515865D02*
X9349348Y-12525389D01*
X9349348Y-12525389D02*
X9339824Y-12515865D01*
X9339824Y-12515865D02*
X9349348Y-12506341D01*
X9349348Y-12506341D02*
X9349348Y-12525389D01*
X9482681Y-12325389D02*
X9501729Y-12325389D01*
X9501729Y-12325389D02*
X9520777Y-12334913D01*
X9520777Y-12334913D02*
X9530300Y-12344436D01*
X9530300Y-12344436D02*
X9539824Y-12363484D01*
X9539824Y-12363484D02*
X9549348Y-12401579D01*
X9549348Y-12401579D02*
X9549348Y-12449198D01*
X9549348Y-12449198D02*
X9539824Y-12487293D01*
X9539824Y-12487293D02*
X9530300Y-12506341D01*
X9530300Y-12506341D02*
X9520777Y-12515865D01*
X9520777Y-12515865D02*
X9501729Y-12525389D01*
X9501729Y-12525389D02*
X9482681Y-12525389D01*
X9482681Y-12525389D02*
X9463634Y-12515865D01*
X9463634Y-12515865D02*
X9454110Y-12506341D01*
X9454110Y-12506341D02*
X9444586Y-12487293D01*
X9444586Y-12487293D02*
X9435062Y-12449198D01*
X9435062Y-12449198D02*
X9435062Y-12401579D01*
X9435062Y-12401579D02*
X9444586Y-12363484D01*
X9444586Y-12363484D02*
X9454110Y-12344436D01*
X9454110Y-12344436D02*
X9463634Y-12334913D01*
X9463634Y-12334913D02*
X9482681Y-12325389D01*
X9673158Y-12325389D02*
X9692205Y-12325389D01*
X9692205Y-12325389D02*
X9711253Y-12334913D01*
X9711253Y-12334913D02*
X9720777Y-12344436D01*
X9720777Y-12344436D02*
X9730300Y-12363484D01*
X9730300Y-12363484D02*
X9739824Y-12401579D01*
X9739824Y-12401579D02*
X9739824Y-12449198D01*
X9739824Y-12449198D02*
X9730300Y-12487293D01*
X9730300Y-12487293D02*
X9720777Y-12506341D01*
X9720777Y-12506341D02*
X9711253Y-12515865D01*
X9711253Y-12515865D02*
X9692205Y-12525389D01*
X9692205Y-12525389D02*
X9673158Y-12525389D01*
X9673158Y-12525389D02*
X9654110Y-12515865D01*
X9654110Y-12515865D02*
X9644586Y-12506341D01*
X9644586Y-12506341D02*
X9635062Y-12487293D01*
X9635062Y-12487293D02*
X9625539Y-12449198D01*
X9625539Y-12449198D02*
X9625539Y-12401579D01*
X9625539Y-12401579D02*
X9635062Y-12363484D01*
X9635062Y-12363484D02*
X9644586Y-12344436D01*
X9644586Y-12344436D02*
X9654110Y-12334913D01*
X9654110Y-12334913D02*
X9673158Y-12325389D01*
X9863634Y-12325389D02*
X9882681Y-12325389D01*
X9882681Y-12325389D02*
X9901729Y-12334913D01*
X9901729Y-12334913D02*
X9911253Y-12344436D01*
X9911253Y-12344436D02*
X9920777Y-12363484D01*
X9920777Y-12363484D02*
X9930300Y-12401579D01*
X9930300Y-12401579D02*
X9930300Y-12449198D01*
X9930300Y-12449198D02*
X9920777Y-12487293D01*
X9920777Y-12487293D02*
X9911253Y-12506341D01*
X9911253Y-12506341D02*
X9901729Y-12515865D01*
X9901729Y-12515865D02*
X9882681Y-12525389D01*
X9882681Y-12525389D02*
X9863634Y-12525389D01*
X9863634Y-12525389D02*
X9844586Y-12515865D01*
X9844586Y-12515865D02*
X9835062Y-12506341D01*
X9835062Y-12506341D02*
X9825539Y-12487293D01*
X9825539Y-12487293D02*
X9816015Y-12449198D01*
X9816015Y-12449198D02*
X9816015Y-12401579D01*
X9816015Y-12401579D02*
X9825539Y-12363484D01*
X9825539Y-12363484D02*
X9835062Y-12344436D01*
X9835062Y-12344436D02*
X9844586Y-12334913D01*
X9844586Y-12334913D02*
X9863634Y-12325389D01*
X10016015Y-12525389D02*
X10016015Y-12392055D01*
X10016015Y-12411103D02*
X10025539Y-12401579D01*
X10025539Y-12401579D02*
X10044586Y-12392055D01*
X10044586Y-12392055D02*
X10073158Y-12392055D01*
X10073158Y-12392055D02*
X10092205Y-12401579D01*
X10092205Y-12401579D02*
X10101729Y-12420627D01*
X10101729Y-12420627D02*
X10101729Y-12525389D01*
X10101729Y-12420627D02*
X10111253Y-12401579D01*
X10111253Y-12401579D02*
X10130300Y-12392055D01*
X10130300Y-12392055D02*
X10158872Y-12392055D01*
X10158872Y-12392055D02*
X10177920Y-12401579D01*
X10177920Y-12401579D02*
X10187443Y-12420627D01*
X10187443Y-12420627D02*
X10187443Y-12525389D01*
X10282681Y-12525389D02*
X10282681Y-12392055D01*
X10282681Y-12411103D02*
X10292205Y-12401579D01*
X10292205Y-12401579D02*
X10311253Y-12392055D01*
X10311253Y-12392055D02*
X10339824Y-12392055D01*
X10339824Y-12392055D02*
X10358872Y-12401579D01*
X10358872Y-12401579D02*
X10368396Y-12420627D01*
X10368396Y-12420627D02*
X10368396Y-12525389D01*
X10368396Y-12420627D02*
X10377920Y-12401579D01*
X10377920Y-12401579D02*
X10396967Y-12392055D01*
X10396967Y-12392055D02*
X10425539Y-12392055D01*
X10425539Y-12392055D02*
X10444586Y-12401579D01*
X10444586Y-12401579D02*
X10454110Y-12420627D01*
X10454110Y-12420627D02*
X10454110Y-12525389D01*
X10844586Y-12315865D02*
X10673158Y-12573008D01*
X11101729Y-12325389D02*
X11120777Y-12325389D01*
X11120777Y-12325389D02*
X11139824Y-12334913D01*
X11139824Y-12334913D02*
X11149348Y-12344436D01*
X11149348Y-12344436D02*
X11158872Y-12363484D01*
X11158872Y-12363484D02*
X11168396Y-12401579D01*
X11168396Y-12401579D02*
X11168396Y-12449198D01*
X11168396Y-12449198D02*
X11158872Y-12487293D01*
X11158872Y-12487293D02*
X11149348Y-12506341D01*
X11149348Y-12506341D02*
X11139824Y-12515865D01*
X11139824Y-12515865D02*
X11120777Y-12525389D01*
X11120777Y-12525389D02*
X11101729Y-12525389D01*
X11101729Y-12525389D02*
X11082682Y-12515865D01*
X11082682Y-12515865D02*
X11073158Y-12506341D01*
X11073158Y-12506341D02*
X11063634Y-12487293D01*
X11063634Y-12487293D02*
X11054110Y-12449198D01*
X11054110Y-12449198D02*
X11054110Y-12401579D01*
X11054110Y-12401579D02*
X11063634Y-12363484D01*
X11063634Y-12363484D02*
X11073158Y-12344436D01*
X11073158Y-12344436D02*
X11082682Y-12334913D01*
X11082682Y-12334913D02*
X11101729Y-12325389D01*
X11254110Y-12506341D02*
X11263634Y-12515865D01*
X11263634Y-12515865D02*
X11254110Y-12525389D01*
X11254110Y-12525389D02*
X11244586Y-12515865D01*
X11244586Y-12515865D02*
X11254110Y-12506341D01*
X11254110Y-12506341D02*
X11254110Y-12525389D01*
X11387443Y-12325389D02*
X11406491Y-12325389D01*
X11406491Y-12325389D02*
X11425539Y-12334913D01*
X11425539Y-12334913D02*
X11435062Y-12344436D01*
X11435062Y-12344436D02*
X11444586Y-12363484D01*
X11444586Y-12363484D02*
X11454110Y-12401579D01*
X11454110Y-12401579D02*
X11454110Y-12449198D01*
X11454110Y-12449198D02*
X11444586Y-12487293D01*
X11444586Y-12487293D02*
X11435062Y-12506341D01*
X11435062Y-12506341D02*
X11425539Y-12515865D01*
X11425539Y-12515865D02*
X11406491Y-12525389D01*
X11406491Y-12525389D02*
X11387443Y-12525389D01*
X11387443Y-12525389D02*
X11368396Y-12515865D01*
X11368396Y-12515865D02*
X11358872Y-12506341D01*
X11358872Y-12506341D02*
X11349348Y-12487293D01*
X11349348Y-12487293D02*
X11339824Y-12449198D01*
X11339824Y-12449198D02*
X11339824Y-12401579D01*
X11339824Y-12401579D02*
X11349348Y-12363484D01*
X11349348Y-12363484D02*
X11358872Y-12344436D01*
X11358872Y-12344436D02*
X11368396Y-12334913D01*
X11368396Y-12334913D02*
X11387443Y-12325389D01*
X11520777Y-12325389D02*
X11644586Y-12325389D01*
X11644586Y-12325389D02*
X11577920Y-12401579D01*
X11577920Y-12401579D02*
X11606491Y-12401579D01*
X11606491Y-12401579D02*
X11625539Y-12411103D01*
X11625539Y-12411103D02*
X11635062Y-12420627D01*
X11635062Y-12420627D02*
X11644586Y-12439674D01*
X11644586Y-12439674D02*
X11644586Y-12487293D01*
X11644586Y-12487293D02*
X11635062Y-12506341D01*
X11635062Y-12506341D02*
X11625539Y-12515865D01*
X11625539Y-12515865D02*
X11606491Y-12525389D01*
X11606491Y-12525389D02*
X11549348Y-12525389D01*
X11549348Y-12525389D02*
X11530301Y-12515865D01*
X11530301Y-12515865D02*
X11520777Y-12506341D01*
X11739824Y-12525389D02*
X11777920Y-12525389D01*
X11777920Y-12525389D02*
X11796967Y-12515865D01*
X11796967Y-12515865D02*
X11806491Y-12506341D01*
X11806491Y-12506341D02*
X11825539Y-12477770D01*
X11825539Y-12477770D02*
X11835062Y-12439674D01*
X11835062Y-12439674D02*
X11835062Y-12363484D01*
X11835062Y-12363484D02*
X11825539Y-12344436D01*
X11825539Y-12344436D02*
X11816015Y-12334913D01*
X11816015Y-12334913D02*
X11796967Y-12325389D01*
X11796967Y-12325389D02*
X11758872Y-12325389D01*
X11758872Y-12325389D02*
X11739824Y-12334913D01*
X11739824Y-12334913D02*
X11730301Y-12344436D01*
X11730301Y-12344436D02*
X11720777Y-12363484D01*
X11720777Y-12363484D02*
X11720777Y-12411103D01*
X11720777Y-12411103D02*
X11730301Y-12430151D01*
X11730301Y-12430151D02*
X11739824Y-12439674D01*
X11739824Y-12439674D02*
X11758872Y-12449198D01*
X11758872Y-12449198D02*
X11796967Y-12449198D01*
X11796967Y-12449198D02*
X11816015Y-12439674D01*
X11816015Y-12439674D02*
X11825539Y-12430151D01*
X11825539Y-12430151D02*
X11835062Y-12411103D01*
X12006491Y-12392055D02*
X12006491Y-12525389D01*
X11958872Y-12315865D02*
X11911253Y-12458722D01*
X11911253Y-12458722D02*
X12035062Y-12458722D01*
X12101729Y-12325389D02*
X12101729Y-12363484D01*
X12177920Y-12325389D02*
X12177920Y-12363484D01*
X12473158Y-12601579D02*
X12463634Y-12592055D01*
X12463634Y-12592055D02*
X12444586Y-12563484D01*
X12444586Y-12563484D02*
X12435063Y-12544436D01*
X12435063Y-12544436D02*
X12425539Y-12515865D01*
X12425539Y-12515865D02*
X12416015Y-12468246D01*
X12416015Y-12468246D02*
X12416015Y-12430151D01*
X12416015Y-12430151D02*
X12425539Y-12382532D01*
X12425539Y-12382532D02*
X12435063Y-12353960D01*
X12435063Y-12353960D02*
X12444586Y-12334913D01*
X12444586Y-12334913D02*
X12463634Y-12306341D01*
X12463634Y-12306341D02*
X12473158Y-12296817D01*
X12530301Y-12325389D02*
X12654110Y-12325389D01*
X12654110Y-12325389D02*
X12587443Y-12401579D01*
X12587443Y-12401579D02*
X12616015Y-12401579D01*
X12616015Y-12401579D02*
X12635063Y-12411103D01*
X12635063Y-12411103D02*
X12644586Y-12420627D01*
X12644586Y-12420627D02*
X12654110Y-12439674D01*
X12654110Y-12439674D02*
X12654110Y-12487293D01*
X12654110Y-12487293D02*
X12644586Y-12506341D01*
X12644586Y-12506341D02*
X12635063Y-12515865D01*
X12635063Y-12515865D02*
X12616015Y-12525389D01*
X12616015Y-12525389D02*
X12558872Y-12525389D01*
X12558872Y-12525389D02*
X12539824Y-12515865D01*
X12539824Y-12515865D02*
X12530301Y-12506341D01*
X12777920Y-12325389D02*
X12796967Y-12325389D01*
X12796967Y-12325389D02*
X12816015Y-12334913D01*
X12816015Y-12334913D02*
X12825539Y-12344436D01*
X12825539Y-12344436D02*
X12835063Y-12363484D01*
X12835063Y-12363484D02*
X12844586Y-12401579D01*
X12844586Y-12401579D02*
X12844586Y-12449198D01*
X12844586Y-12449198D02*
X12835063Y-12487293D01*
X12835063Y-12487293D02*
X12825539Y-12506341D01*
X12825539Y-12506341D02*
X12816015Y-12515865D01*
X12816015Y-12515865D02*
X12796967Y-12525389D01*
X12796967Y-12525389D02*
X12777920Y-12525389D01*
X12777920Y-12525389D02*
X12758872Y-12515865D01*
X12758872Y-12515865D02*
X12749348Y-12506341D01*
X12749348Y-12506341D02*
X12739824Y-12487293D01*
X12739824Y-12487293D02*
X12730301Y-12449198D01*
X12730301Y-12449198D02*
X12730301Y-12401579D01*
X12730301Y-12401579D02*
X12739824Y-12363484D01*
X12739824Y-12363484D02*
X12749348Y-12344436D01*
X12749348Y-12344436D02*
X12758872Y-12334913D01*
X12758872Y-12334913D02*
X12777920Y-12325389D01*
X13082682Y-12525389D02*
X13082682Y-12325389D01*
X13168396Y-12525389D02*
X13168396Y-12420627D01*
X13168396Y-12420627D02*
X13158872Y-12401579D01*
X13158872Y-12401579D02*
X13139825Y-12392055D01*
X13139825Y-12392055D02*
X13111253Y-12392055D01*
X13111253Y-12392055D02*
X13092205Y-12401579D01*
X13092205Y-12401579D02*
X13082682Y-12411103D01*
X13292205Y-12525389D02*
X13273158Y-12515865D01*
X13273158Y-12515865D02*
X13263634Y-12506341D01*
X13263634Y-12506341D02*
X13254110Y-12487293D01*
X13254110Y-12487293D02*
X13254110Y-12430151D01*
X13254110Y-12430151D02*
X13263634Y-12411103D01*
X13263634Y-12411103D02*
X13273158Y-12401579D01*
X13273158Y-12401579D02*
X13292205Y-12392055D01*
X13292205Y-12392055D02*
X13320777Y-12392055D01*
X13320777Y-12392055D02*
X13339825Y-12401579D01*
X13339825Y-12401579D02*
X13349348Y-12411103D01*
X13349348Y-12411103D02*
X13358872Y-12430151D01*
X13358872Y-12430151D02*
X13358872Y-12487293D01*
X13358872Y-12487293D02*
X13349348Y-12506341D01*
X13349348Y-12506341D02*
X13339825Y-12515865D01*
X13339825Y-12515865D02*
X13320777Y-12525389D01*
X13320777Y-12525389D02*
X13292205Y-12525389D01*
X13473158Y-12525389D02*
X13454110Y-12515865D01*
X13454110Y-12515865D02*
X13444586Y-12496817D01*
X13444586Y-12496817D02*
X13444586Y-12325389D01*
X13625539Y-12515865D02*
X13606491Y-12525389D01*
X13606491Y-12525389D02*
X13568396Y-12525389D01*
X13568396Y-12525389D02*
X13549348Y-12515865D01*
X13549348Y-12515865D02*
X13539825Y-12496817D01*
X13539825Y-12496817D02*
X13539825Y-12420627D01*
X13539825Y-12420627D02*
X13549348Y-12401579D01*
X13549348Y-12401579D02*
X13568396Y-12392055D01*
X13568396Y-12392055D02*
X13606491Y-12392055D01*
X13606491Y-12392055D02*
X13625539Y-12401579D01*
X13625539Y-12401579D02*
X13635063Y-12420627D01*
X13635063Y-12420627D02*
X13635063Y-12439674D01*
X13635063Y-12439674D02*
X13539825Y-12458722D01*
X13711253Y-12515865D02*
X13730301Y-12525389D01*
X13730301Y-12525389D02*
X13768396Y-12525389D01*
X13768396Y-12525389D02*
X13787444Y-12515865D01*
X13787444Y-12515865D02*
X13796967Y-12496817D01*
X13796967Y-12496817D02*
X13796967Y-12487293D01*
X13796967Y-12487293D02*
X13787444Y-12468246D01*
X13787444Y-12468246D02*
X13768396Y-12458722D01*
X13768396Y-12458722D02*
X13739825Y-12458722D01*
X13739825Y-12458722D02*
X13720777Y-12449198D01*
X13720777Y-12449198D02*
X13711253Y-12430151D01*
X13711253Y-12430151D02*
X13711253Y-12420627D01*
X13711253Y-12420627D02*
X13720777Y-12401579D01*
X13720777Y-12401579D02*
X13739825Y-12392055D01*
X13739825Y-12392055D02*
X13768396Y-12392055D01*
X13768396Y-12392055D02*
X13787444Y-12401579D01*
X13863634Y-12601579D02*
X13873158Y-12592055D01*
X13873158Y-12592055D02*
X13892206Y-12563484D01*
X13892206Y-12563484D02*
X13901729Y-12544436D01*
X13901729Y-12544436D02*
X13911253Y-12515865D01*
X13911253Y-12515865D02*
X13920777Y-12468246D01*
X13920777Y-12468246D02*
X13920777Y-12430151D01*
X13920777Y-12430151D02*
X13911253Y-12382532D01*
X13911253Y-12382532D02*
X13901729Y-12353960D01*
X13901729Y-12353960D02*
X13892206Y-12334913D01*
X13892206Y-12334913D02*
X13873158Y-12306341D01*
X13873158Y-12306341D02*
X13863634Y-12296817D01*
D13*
X8843095Y-12752905D02*
X8898095Y-12697905D01*
X8843095Y-12642905D01*
X8788095Y-12697905D01*
X8843095Y-12752905D01*
D11*
X9263634Y-12789389D02*
X9149348Y-12789389D01*
X9206491Y-12789389D02*
X9206491Y-12589389D01*
X9206491Y-12589389D02*
X9187443Y-12617960D01*
X9187443Y-12617960D02*
X9168396Y-12637008D01*
X9168396Y-12637008D02*
X9149348Y-12646532D01*
X9349348Y-12770341D02*
X9358872Y-12779865D01*
X9358872Y-12779865D02*
X9349348Y-12789389D01*
X9349348Y-12789389D02*
X9339824Y-12779865D01*
X9339824Y-12779865D02*
X9349348Y-12770341D01*
X9349348Y-12770341D02*
X9349348Y-12789389D01*
X9549348Y-12789389D02*
X9435062Y-12789389D01*
X9492205Y-12789389D02*
X9492205Y-12589389D01*
X9492205Y-12589389D02*
X9473158Y-12617960D01*
X9473158Y-12617960D02*
X9454110Y-12637008D01*
X9454110Y-12637008D02*
X9435062Y-12646532D01*
X9673158Y-12589389D02*
X9692205Y-12589389D01*
X9692205Y-12589389D02*
X9711253Y-12598913D01*
X9711253Y-12598913D02*
X9720777Y-12608436D01*
X9720777Y-12608436D02*
X9730300Y-12627484D01*
X9730300Y-12627484D02*
X9739824Y-12665579D01*
X9739824Y-12665579D02*
X9739824Y-12713198D01*
X9739824Y-12713198D02*
X9730300Y-12751293D01*
X9730300Y-12751293D02*
X9720777Y-12770341D01*
X9720777Y-12770341D02*
X9711253Y-12779865D01*
X9711253Y-12779865D02*
X9692205Y-12789389D01*
X9692205Y-12789389D02*
X9673158Y-12789389D01*
X9673158Y-12789389D02*
X9654110Y-12779865D01*
X9654110Y-12779865D02*
X9644586Y-12770341D01*
X9644586Y-12770341D02*
X9635062Y-12751293D01*
X9635062Y-12751293D02*
X9625539Y-12713198D01*
X9625539Y-12713198D02*
X9625539Y-12665579D01*
X9625539Y-12665579D02*
X9635062Y-12627484D01*
X9635062Y-12627484D02*
X9644586Y-12608436D01*
X9644586Y-12608436D02*
X9654110Y-12598913D01*
X9654110Y-12598913D02*
X9673158Y-12589389D01*
X9863634Y-12589389D02*
X9882681Y-12589389D01*
X9882681Y-12589389D02*
X9901729Y-12598913D01*
X9901729Y-12598913D02*
X9911253Y-12608436D01*
X9911253Y-12608436D02*
X9920777Y-12627484D01*
X9920777Y-12627484D02*
X9930300Y-12665579D01*
X9930300Y-12665579D02*
X9930300Y-12713198D01*
X9930300Y-12713198D02*
X9920777Y-12751293D01*
X9920777Y-12751293D02*
X9911253Y-12770341D01*
X9911253Y-12770341D02*
X9901729Y-12779865D01*
X9901729Y-12779865D02*
X9882681Y-12789389D01*
X9882681Y-12789389D02*
X9863634Y-12789389D01*
X9863634Y-12789389D02*
X9844586Y-12779865D01*
X9844586Y-12779865D02*
X9835062Y-12770341D01*
X9835062Y-12770341D02*
X9825539Y-12751293D01*
X9825539Y-12751293D02*
X9816015Y-12713198D01*
X9816015Y-12713198D02*
X9816015Y-12665579D01*
X9816015Y-12665579D02*
X9825539Y-12627484D01*
X9825539Y-12627484D02*
X9835062Y-12608436D01*
X9835062Y-12608436D02*
X9844586Y-12598913D01*
X9844586Y-12598913D02*
X9863634Y-12589389D01*
X10016015Y-12789389D02*
X10016015Y-12656055D01*
X10016015Y-12675103D02*
X10025539Y-12665579D01*
X10025539Y-12665579D02*
X10044586Y-12656055D01*
X10044586Y-12656055D02*
X10073158Y-12656055D01*
X10073158Y-12656055D02*
X10092205Y-12665579D01*
X10092205Y-12665579D02*
X10101729Y-12684627D01*
X10101729Y-12684627D02*
X10101729Y-12789389D01*
X10101729Y-12684627D02*
X10111253Y-12665579D01*
X10111253Y-12665579D02*
X10130300Y-12656055D01*
X10130300Y-12656055D02*
X10158872Y-12656055D01*
X10158872Y-12656055D02*
X10177920Y-12665579D01*
X10177920Y-12665579D02*
X10187443Y-12684627D01*
X10187443Y-12684627D02*
X10187443Y-12789389D01*
X10282681Y-12789389D02*
X10282681Y-12656055D01*
X10282681Y-12675103D02*
X10292205Y-12665579D01*
X10292205Y-12665579D02*
X10311253Y-12656055D01*
X10311253Y-12656055D02*
X10339824Y-12656055D01*
X10339824Y-12656055D02*
X10358872Y-12665579D01*
X10358872Y-12665579D02*
X10368396Y-12684627D01*
X10368396Y-12684627D02*
X10368396Y-12789389D01*
X10368396Y-12684627D02*
X10377920Y-12665579D01*
X10377920Y-12665579D02*
X10396967Y-12656055D01*
X10396967Y-12656055D02*
X10425539Y-12656055D01*
X10425539Y-12656055D02*
X10444586Y-12665579D01*
X10444586Y-12665579D02*
X10454110Y-12684627D01*
X10454110Y-12684627D02*
X10454110Y-12789389D01*
X10844586Y-12579865D02*
X10673158Y-12837008D01*
X11101729Y-12589389D02*
X11120777Y-12589389D01*
X11120777Y-12589389D02*
X11139824Y-12598913D01*
X11139824Y-12598913D02*
X11149348Y-12608436D01*
X11149348Y-12608436D02*
X11158872Y-12627484D01*
X11158872Y-12627484D02*
X11168396Y-12665579D01*
X11168396Y-12665579D02*
X11168396Y-12713198D01*
X11168396Y-12713198D02*
X11158872Y-12751293D01*
X11158872Y-12751293D02*
X11149348Y-12770341D01*
X11149348Y-12770341D02*
X11139824Y-12779865D01*
X11139824Y-12779865D02*
X11120777Y-12789389D01*
X11120777Y-12789389D02*
X11101729Y-12789389D01*
X11101729Y-12789389D02*
X11082682Y-12779865D01*
X11082682Y-12779865D02*
X11073158Y-12770341D01*
X11073158Y-12770341D02*
X11063634Y-12751293D01*
X11063634Y-12751293D02*
X11054110Y-12713198D01*
X11054110Y-12713198D02*
X11054110Y-12665579D01*
X11054110Y-12665579D02*
X11063634Y-12627484D01*
X11063634Y-12627484D02*
X11073158Y-12608436D01*
X11073158Y-12608436D02*
X11082682Y-12598913D01*
X11082682Y-12598913D02*
X11101729Y-12589389D01*
X11254110Y-12770341D02*
X11263634Y-12779865D01*
X11263634Y-12779865D02*
X11254110Y-12789389D01*
X11254110Y-12789389D02*
X11244586Y-12779865D01*
X11244586Y-12779865D02*
X11254110Y-12770341D01*
X11254110Y-12770341D02*
X11254110Y-12789389D01*
X11387443Y-12589389D02*
X11406491Y-12589389D01*
X11406491Y-12589389D02*
X11425539Y-12598913D01*
X11425539Y-12598913D02*
X11435062Y-12608436D01*
X11435062Y-12608436D02*
X11444586Y-12627484D01*
X11444586Y-12627484D02*
X11454110Y-12665579D01*
X11454110Y-12665579D02*
X11454110Y-12713198D01*
X11454110Y-12713198D02*
X11444586Y-12751293D01*
X11444586Y-12751293D02*
X11435062Y-12770341D01*
X11435062Y-12770341D02*
X11425539Y-12779865D01*
X11425539Y-12779865D02*
X11406491Y-12789389D01*
X11406491Y-12789389D02*
X11387443Y-12789389D01*
X11387443Y-12789389D02*
X11368396Y-12779865D01*
X11368396Y-12779865D02*
X11358872Y-12770341D01*
X11358872Y-12770341D02*
X11349348Y-12751293D01*
X11349348Y-12751293D02*
X11339824Y-12713198D01*
X11339824Y-12713198D02*
X11339824Y-12665579D01*
X11339824Y-12665579D02*
X11349348Y-12627484D01*
X11349348Y-12627484D02*
X11358872Y-12608436D01*
X11358872Y-12608436D02*
X11368396Y-12598913D01*
X11368396Y-12598913D02*
X11387443Y-12589389D01*
X11625539Y-12656055D02*
X11625539Y-12789389D01*
X11577920Y-12579865D02*
X11530301Y-12722722D01*
X11530301Y-12722722D02*
X11654110Y-12722722D01*
X11711253Y-12589389D02*
X11835062Y-12589389D01*
X11835062Y-12589389D02*
X11768396Y-12665579D01*
X11768396Y-12665579D02*
X11796967Y-12665579D01*
X11796967Y-12665579D02*
X11816015Y-12675103D01*
X11816015Y-12675103D02*
X11825539Y-12684627D01*
X11825539Y-12684627D02*
X11835062Y-12703674D01*
X11835062Y-12703674D02*
X11835062Y-12751293D01*
X11835062Y-12751293D02*
X11825539Y-12770341D01*
X11825539Y-12770341D02*
X11816015Y-12779865D01*
X11816015Y-12779865D02*
X11796967Y-12789389D01*
X11796967Y-12789389D02*
X11739824Y-12789389D01*
X11739824Y-12789389D02*
X11720777Y-12779865D01*
X11720777Y-12779865D02*
X11711253Y-12770341D01*
X11901729Y-12589389D02*
X12025539Y-12589389D01*
X12025539Y-12589389D02*
X11958872Y-12665579D01*
X11958872Y-12665579D02*
X11987443Y-12665579D01*
X11987443Y-12665579D02*
X12006491Y-12675103D01*
X12006491Y-12675103D02*
X12016015Y-12684627D01*
X12016015Y-12684627D02*
X12025539Y-12703674D01*
X12025539Y-12703674D02*
X12025539Y-12751293D01*
X12025539Y-12751293D02*
X12016015Y-12770341D01*
X12016015Y-12770341D02*
X12006491Y-12779865D01*
X12006491Y-12779865D02*
X11987443Y-12789389D01*
X11987443Y-12789389D02*
X11930301Y-12789389D01*
X11930301Y-12789389D02*
X11911253Y-12779865D01*
X11911253Y-12779865D02*
X11901729Y-12770341D01*
X12101729Y-12589389D02*
X12101729Y-12627484D01*
X12177920Y-12589389D02*
X12177920Y-12627484D01*
X12473158Y-12865579D02*
X12463634Y-12856055D01*
X12463634Y-12856055D02*
X12444586Y-12827484D01*
X12444586Y-12827484D02*
X12435063Y-12808436D01*
X12435063Y-12808436D02*
X12425539Y-12779865D01*
X12425539Y-12779865D02*
X12416015Y-12732246D01*
X12416015Y-12732246D02*
X12416015Y-12694151D01*
X12416015Y-12694151D02*
X12425539Y-12646532D01*
X12425539Y-12646532D02*
X12435063Y-12617960D01*
X12435063Y-12617960D02*
X12444586Y-12598913D01*
X12444586Y-12598913D02*
X12463634Y-12570341D01*
X12463634Y-12570341D02*
X12473158Y-12560817D01*
X12654110Y-12789389D02*
X12539824Y-12789389D01*
X12596967Y-12789389D02*
X12596967Y-12589389D01*
X12596967Y-12589389D02*
X12577920Y-12617960D01*
X12577920Y-12617960D02*
X12558872Y-12637008D01*
X12558872Y-12637008D02*
X12539824Y-12646532D01*
X12730301Y-12608436D02*
X12739824Y-12598913D01*
X12739824Y-12598913D02*
X12758872Y-12589389D01*
X12758872Y-12589389D02*
X12806491Y-12589389D01*
X12806491Y-12589389D02*
X12825539Y-12598913D01*
X12825539Y-12598913D02*
X12835063Y-12608436D01*
X12835063Y-12608436D02*
X12844586Y-12627484D01*
X12844586Y-12627484D02*
X12844586Y-12646532D01*
X12844586Y-12646532D02*
X12835063Y-12675103D01*
X12835063Y-12675103D02*
X12720777Y-12789389D01*
X12720777Y-12789389D02*
X12844586Y-12789389D01*
X13082682Y-12789389D02*
X13082682Y-12589389D01*
X13168396Y-12789389D02*
X13168396Y-12684627D01*
X13168396Y-12684627D02*
X13158872Y-12665579D01*
X13158872Y-12665579D02*
X13139825Y-12656055D01*
X13139825Y-12656055D02*
X13111253Y-12656055D01*
X13111253Y-12656055D02*
X13092205Y-12665579D01*
X13092205Y-12665579D02*
X13082682Y-12675103D01*
X13292205Y-12789389D02*
X13273158Y-12779865D01*
X13273158Y-12779865D02*
X13263634Y-12770341D01*
X13263634Y-12770341D02*
X13254110Y-12751293D01*
X13254110Y-12751293D02*
X13254110Y-12694151D01*
X13254110Y-12694151D02*
X13263634Y-12675103D01*
X13263634Y-12675103D02*
X13273158Y-12665579D01*
X13273158Y-12665579D02*
X13292205Y-12656055D01*
X13292205Y-12656055D02*
X13320777Y-12656055D01*
X13320777Y-12656055D02*
X13339825Y-12665579D01*
X13339825Y-12665579D02*
X13349348Y-12675103D01*
X13349348Y-12675103D02*
X13358872Y-12694151D01*
X13358872Y-12694151D02*
X13358872Y-12751293D01*
X13358872Y-12751293D02*
X13349348Y-12770341D01*
X13349348Y-12770341D02*
X13339825Y-12779865D01*
X13339825Y-12779865D02*
X13320777Y-12789389D01*
X13320777Y-12789389D02*
X13292205Y-12789389D01*
X13473158Y-12789389D02*
X13454110Y-12779865D01*
X13454110Y-12779865D02*
X13444586Y-12760817D01*
X13444586Y-12760817D02*
X13444586Y-12589389D01*
X13625539Y-12779865D02*
X13606491Y-12789389D01*
X13606491Y-12789389D02*
X13568396Y-12789389D01*
X13568396Y-12789389D02*
X13549348Y-12779865D01*
X13549348Y-12779865D02*
X13539825Y-12760817D01*
X13539825Y-12760817D02*
X13539825Y-12684627D01*
X13539825Y-12684627D02*
X13549348Y-12665579D01*
X13549348Y-12665579D02*
X13568396Y-12656055D01*
X13568396Y-12656055D02*
X13606491Y-12656055D01*
X13606491Y-12656055D02*
X13625539Y-12665579D01*
X13625539Y-12665579D02*
X13635063Y-12684627D01*
X13635063Y-12684627D02*
X13635063Y-12703674D01*
X13635063Y-12703674D02*
X13539825Y-12722722D01*
X13711253Y-12779865D02*
X13730301Y-12789389D01*
X13730301Y-12789389D02*
X13768396Y-12789389D01*
X13768396Y-12789389D02*
X13787444Y-12779865D01*
X13787444Y-12779865D02*
X13796967Y-12760817D01*
X13796967Y-12760817D02*
X13796967Y-12751293D01*
X13796967Y-12751293D02*
X13787444Y-12732246D01*
X13787444Y-12732246D02*
X13768396Y-12722722D01*
X13768396Y-12722722D02*
X13739825Y-12722722D01*
X13739825Y-12722722D02*
X13720777Y-12713198D01*
X13720777Y-12713198D02*
X13711253Y-12694151D01*
X13711253Y-12694151D02*
X13711253Y-12684627D01*
X13711253Y-12684627D02*
X13720777Y-12665579D01*
X13720777Y-12665579D02*
X13739825Y-12656055D01*
X13739825Y-12656055D02*
X13768396Y-12656055D01*
X13768396Y-12656055D02*
X13787444Y-12665579D01*
X13863634Y-12865579D02*
X13873158Y-12856055D01*
X13873158Y-12856055D02*
X13892206Y-12827484D01*
X13892206Y-12827484D02*
X13901729Y-12808436D01*
X13901729Y-12808436D02*
X13911253Y-12779865D01*
X13911253Y-12779865D02*
X13920777Y-12732246D01*
X13920777Y-12732246D02*
X13920777Y-12694151D01*
X13920777Y-12694151D02*
X13911253Y-12646532D01*
X13911253Y-12646532D02*
X13901729Y-12617960D01*
X13901729Y-12617960D02*
X13892206Y-12598913D01*
X13892206Y-12598913D02*
X13873158Y-12570341D01*
X13873158Y-12570341D02*
X13863634Y-12560817D01*
M02*
