M48
; DRILL file {KiCad 9.0.2} date 2025-05-14T19:23:24+0530
; FORMAT={-:-/ absolute / metric / decimal}
; #@! TF.CreationDate,2025-05-14T19:23:24+05:30
; #@! TF.GenerationSoftware,Kicad,Pcbnew,9.0.2
; #@! TF.FileFunction,Plated,1,2,PTH
FMAT,2
METRIC
; #@! TA.AperFunction,Plated,PTH,ViaDrill
T1C0.300
; #@! TA.AperFunction,Plated,PTH,ComponentDrill
T2C0.800
; #@! TA.AperFunction,Plated,PTH,ComponentDrill
T3C0.900
; #@! TA.AperFunction,Plated,PTH,ComponentDrill
T4C1.000
; #@! TA.AperFunction,Plated,PTH,ComponentDrill
T5C1.100
%
G90
G05
T1
X96.4Y-71.0
X106.8Y-74.6
X109.31Y-70.77
T2
X93.92Y-95.42
X96.46Y-95.42
X99.0Y-95.42
X101.54Y-95.42
X101.69Y-63.57
X104.08Y-95.42
X104.23Y-63.57
X106.77Y-63.57
X109.31Y-63.57
X145.38Y-65.5
X148.0Y-73.69
X148.0Y-81.31
X148.0Y-85.69
X148.0Y-93.31
X148.0Y-97.88
X148.0Y-105.5
X153.0Y-65.5
X153.0Y-73.5
X153.0Y-78.5
X153.0Y-85.5
X153.0Y-90.5
X153.0Y-98.0
X153.0Y-103.0
T3
X160.26Y-66.6
X162.8Y-66.6
T4
X123.76Y-67.44
X123.76Y-69.98
X123.76Y-72.52
X123.76Y-75.06
X123.76Y-77.6
X123.76Y-80.14
X123.76Y-82.68
X123.76Y-85.22
X123.76Y-87.76
X123.76Y-90.3
X123.76Y-92.84
X123.76Y-95.38
X123.76Y-97.92
X123.76Y-100.46
X123.76Y-103.0
X139.0Y-67.44
X139.0Y-69.98
X139.0Y-72.52
X139.0Y-75.06
X139.0Y-77.6
X139.0Y-80.14
X139.0Y-82.68
X139.0Y-85.22
X139.0Y-87.76
X139.0Y-90.3
X139.0Y-92.84
X139.0Y-95.38
X139.0Y-97.92
X139.0Y-100.46
X139.0Y-103.0
T5
X160.0Y-74.0
X160.0Y-78.5
X160.0Y-85.0
X160.0Y-89.5
X160.0Y-97.5
X160.0Y-102.0
X166.5Y-74.0
X166.5Y-78.5
X166.5Y-85.0
X166.5Y-89.5
X166.5Y-97.5
X166.5Y-102.0
M30
